<svg id="Layer_1" data-name="Layer 1" xmlns="http://www.w3.org/2000/svg" viewBox="0 0 403 608.491"><defs><style>.cls-1,.cls-2{fill:none;}.cls-1{stroke:#606060;stroke-miterlimit:10;stroke-width:0.5px;}.cls-2{stroke:#d9d9d9;stroke-linejoin:round;stroke-width:0.822px;}.cls-3{fill:#333;}.cls-4{fill:#108aa0;}.cls-5{fill:#b3b3b3;}.cls-6{fill:#ccc;}.cls-7{fill:#606060;}.cls-8{fill:#999;}</style></defs><line class="cls-1" x1="392.44" y1="106.418" x2="392.44" y2="519.996"/><line class="cls-2" x1="285.219" y1="131.058" x2="285.22" y2="519.996"/><path class="cls-3" d="M340.275,152.673v9.646h-1.317v-9.646Zm5.2,0-3.618,4.411,3.881,5.235h-1.623l-3.769-5.151,3.631-4.5Z"/><path class="cls-3" d="M350.947,154.857l-.236,1.26a2.645,2.645,0,0,0-.637-.084,1.349,1.349,0,0,0-1.1.5,3.773,3.773,0,0,0-.652,1.569v4.213h-1.274v-7.378h1.094l.125,1.5a2.8,2.8,0,0,1,.79-1.247,1.759,1.759,0,0,1,1.165-.419A2.939,2.939,0,0,1,350.947,154.857Z"/><path class="cls-3" d="M356.99,161.262a.926.926,0,0,0,.457.329l-.291.9a1.938,1.938,0,0,1-.915-.321,1.475,1.475,0,0,1-.512-.785,2.443,2.443,0,0,1-2.176,1.106,2.319,2.319,0,0,1-1.7-.616,2.161,2.161,0,0,1-.624-1.61,2.12,2.12,0,0,1,.839-1.805,3.885,3.885,0,0,1,2.377-.631h1.123v-.546a1.443,1.443,0,0,0-.375-1.12,1.687,1.687,0,0,0-1.151-.336,6.386,6.386,0,0,0-1.967.392l-.32-.938a7.29,7.29,0,0,1,2.524-.5,2.617,2.617,0,0,1,1.925.636,2.45,2.45,0,0,1,.638,1.813V160.6A1.16,1.16,0,0,0,356.99,161.262Zm-1.427-.888v-1.695h-.957q-2.025,0-2.024,1.512a1.4,1.4,0,0,0,.319,1,1.243,1.243,0,0,0,.943.336A1.9,1.9,0,0,0,355.563,160.374Z"/><path class="cls-3" d="M360.565,161.871a4.428,4.428,0,0,1-.249,1.638,2.431,2.431,0,0,1-.728,1,6.354,6.354,0,0,1-1.338.777l-.373-.938a3.831,3.831,0,0,0,.831-.5,1.479,1.479,0,0,0,.437-.686,4.044,4.044,0,0,0,.145-1.211v-7.015h1.275Zm.014-10.22a.86.86,0,0,1,.249.63.836.836,0,0,1-.249.623.887.887,0,0,1-.651.245.869.869,0,0,1-.638-.245.833.833,0,0,1-.249-.623.857.857,0,0,1,.887-.882A.876.876,0,0,1,360.579,151.651Z"/><path class="cls-3" d="M368.688,159.071H364.03a2.89,2.89,0,0,0,.611,1.792,1.756,1.756,0,0,0,1.357.575,2.934,2.934,0,0,0,.971-.155,3.87,3.87,0,0,0,.928-.489l.554.77a4.013,4.013,0,0,1-2.549.923,2.944,2.944,0,0,1-2.377-1.007,4.16,4.16,0,0,1-.853-2.772,5.318,5.318,0,0,1,.367-2.038,3.192,3.192,0,0,1,1.053-1.393,2.655,2.655,0,0,1,1.615-.5,2.7,2.7,0,0,1,2.232.965,4.164,4.164,0,0,1,.776,2.675C368.715,158.628,368.705,158.847,368.688,159.071Zm-1.235-1.036a2.745,2.745,0,0,0-.429-1.666,1.508,1.508,0,0,0-1.289-.574q-1.566,0-1.705,2.324h3.423Z"/><path class="cls-4" d="M408.734,103.964a5.244,5.244,0,0,1,.665,2.871,5.693,5.693,0,0,1-.34,2.037,3.107,3.107,0,0,1-1,1.393,2.492,2.492,0,0,1-1.56.5,2.282,2.282,0,0,1-1.844-.812v3.458l-1.773.195V103.153h1.553l.1.91a2.888,2.888,0,0,1,.984-.84,2.548,2.548,0,0,1,1.164-.281A2.278,2.278,0,0,1,408.734,103.964Zm-1.193,2.885a4.141,4.141,0,0,0-.345-1.96,1.127,1.127,0,0,0-1.04-.6,1.417,1.417,0,0,0-.832.273,2.388,2.388,0,0,0-.666.735v3.332a1.556,1.556,0,0,0,1.345.77Q407.544,109.4,407.541,106.849Z"/><path class="cls-5" d="M205.291,103.153v1.288l-3.549,4.718h3.618l-.18,1.4h-5.475v-1.288l3.563-4.718H200.01v-1.4Z"/><path class="cls-5" d="M212.089,109.235a.845.845,0,0,0,.423.316l-.375,1.19a2.257,2.257,0,0,1-1.018-.308,1.577,1.577,0,0,1-.6-.77,2.359,2.359,0,0,1-.936.833,2.831,2.831,0,0,1-1.254.273,2.354,2.354,0,0,1-1.732-.63,2.217,2.217,0,0,1-.639-1.652,2.143,2.143,0,0,1,.867-1.841,4.124,4.124,0,0,1,2.474-.637h.915v-.421a1.288,1.288,0,0,0-.326-1,1.57,1.57,0,0,0-1.046-.286,6.158,6.158,0,0,0-1.94.391l-.416-1.217a7.334,7.334,0,0,1,2.661-.533q2.814,0,2.813,2.549V108.6A1.19,1.19,0,0,0,212.089,109.235Zm-1.878-.678v-1.5h-.734q-1.72,0-1.719,1.288a1.19,1.19,0,0,0,.264.825.98.98,0,0,0,.775.3A1.568,1.568,0,0,0,210.211,108.557Z"/><path class="cls-5" d="M223.3,103.552a2.429,2.429,0,0,1,.526,1.645v5.362h-1.774v-5.082q0-1.19-.8-1.19a1.086,1.086,0,0,0-.741.273,3.364,3.364,0,0,0-.644.847v5.152h-1.775v-5.082q0-1.19-.8-1.19a1.11,1.11,0,0,0-.756.273,3.436,3.436,0,0,0-.645.847v5.152h-1.773v-7.406h1.538l.138.966a2.507,2.507,0,0,1,2.121-1.177,1.8,1.8,0,0,1,1.775,1.247,3.43,3.43,0,0,1,.977-.924,2.318,2.318,0,0,1,1.226-.323A1.775,1.775,0,0,1,223.3,103.552Z"/><path class="cls-5" d="M227.826,99.079l.721,1.4-3.132,1.26-.5-.91Zm-.166,4.074v7.406h-1.773v-7.406Z"/><path class="cls-5" d="M233.994,110.209a2.773,2.773,0,0,1-.866.419,3.436,3.436,0,0,1-.977.141,2.165,2.165,0,0,1-1.642-.623,2.571,2.571,0,0,1-.562-1.8v-3.906H228.8v-1.288h1.15v-1.638l1.774-.21v1.848h1.7l-.18,1.288h-1.525v3.864a1.276,1.276,0,0,0,.187.783.7.7,0,0,0,.59.239,1.8,1.8,0,0,0,.873-.266Z"/><path class="cls-5" d="M240.432,103.538a2.358,2.358,0,0,1,.548,1.659v5.362h-1.775v-5.082a1.435,1.435,0,0,0-.228-.924.84.84,0,0,0-.672-.266,1.3,1.3,0,0,0-.824.287,3.239,3.239,0,0,0-.715.833v5.152h-1.774v-7.406h1.538l.139.966a2.719,2.719,0,0,1,2.232-1.177A1.975,1.975,0,0,1,240.432,103.538Z"/><path class="cls-5" d="M248.908,110.559h-1.539l-.1-1.036a2.731,2.731,0,0,1-.95.938,2.6,2.6,0,0,1-1.294.308,1.909,1.909,0,0,1-1.518-.609,2.476,2.476,0,0,1-.534-1.687v-5.32h1.774v5.1a1.44,1.44,0,0,0,.215.9.83.83,0,0,0,.686.266,1.788,1.788,0,0,0,1.482-1.051v-5.207h1.775Z"/><path class="cls-5" d="M255.241,110.209a2.773,2.773,0,0,1-.866.419,3.429,3.429,0,0,1-.976.141,2.167,2.167,0,0,1-1.643-.623,2.566,2.566,0,0,1-.561-1.8v-3.906h-1.151v-1.288H251.2v-1.638l1.774-.21v1.848h1.705l-.181,1.288h-1.524v3.864a1.283,1.283,0,0,0,.186.783.7.7,0,0,0,.589.239,1.8,1.8,0,0,0,.873-.266Z"/><path class="cls-5" d="M261.978,107.409h-4.6a2.368,2.368,0,0,0,.554,1.54,1.705,1.705,0,0,0,1.248.462,2.585,2.585,0,0,0,.914-.161,4.248,4.248,0,0,0,.916-.5l.734,1.021a4.187,4.187,0,0,1-2.716,1,3.25,3.25,0,0,1-2.585-1.037,4.134,4.134,0,0,1-.908-2.827,5.124,5.124,0,0,1,.387-2.037,3.236,3.236,0,0,1,1.123-1.414,3.315,3.315,0,0,1,4.131.476,4.1,4.1,0,0,1,.846,2.751C262.02,106.774,262.005,107.017,261.978,107.409Zm-2.093-8.33.721,1.4-3.133,1.26-.5-.91Zm.374,7.084q0-1.947-1.428-1.946a1.206,1.206,0,0,0-1.018.483,2.9,2.9,0,0,0-.437,1.547h2.883Z"/><path class="cls-5" d="M273.246,100.185v10.374H271.68l-.125-.938a2.587,2.587,0,0,1-.88.84,2.389,2.389,0,0,1-1.213.308,2.353,2.353,0,0,1-2.065-1.05,4.975,4.975,0,0,1-.721-2.856,5.343,5.343,0,0,1,.361-2.024,3.188,3.188,0,0,1,1.032-1.392,2.584,2.584,0,0,1,3.4.294V99.989Zm-2.453,9a2.387,2.387,0,0,0,.679-.721v-3.388a2.582,2.582,0,0,0-.645-.589,1.441,1.441,0,0,0-.755-.195,1.265,1.265,0,0,0-1.116.637,3.622,3.622,0,0,0-.409,1.925,3.978,3.978,0,0,0,.361,1.967,1.158,1.158,0,0,0,1.053.595A1.506,1.506,0,0,0,270.793,109.18Z"/><path class="cls-5" d="M280.9,103.985a4.223,4.223,0,0,1,.907,2.864,4.786,4.786,0,0,1-.415,2.05,3.186,3.186,0,0,1-1.193,1.38,3.384,3.384,0,0,1-1.842.49,3.2,3.2,0,0,1-2.537-1.043,4.217,4.217,0,0,1-.915-2.877,4.746,4.746,0,0,1,.415-2.044,3.176,3.176,0,0,1,1.2-1.372,3.409,3.409,0,0,1,1.85-.491A3.181,3.181,0,0,1,280.9,103.985Zm-4.124,2.864a3.7,3.7,0,0,0,.4,1.939,1.433,1.433,0,0,0,2.369-.007,3.711,3.711,0,0,0,.395-1.932,3.668,3.668,0,0,0-.395-1.925,1.3,1.3,0,0,0-1.171-.623Q276.781,104.3,276.78,106.849Z"/><path class="cls-5" d="M287.674,110.209a2.8,2.8,0,0,1-.867.419,3.441,3.441,0,0,1-.977.141,2.168,2.168,0,0,1-1.642-.623,2.57,2.57,0,0,1-.561-1.8v-3.906h-1.15v-1.288h1.15v-1.638l1.774-.21v1.848h1.7l-.18,1.288H285.4v3.864a1.276,1.276,0,0,0,.187.783.7.7,0,0,0,.589.239,1.8,1.8,0,0,0,.873-.266Z"/><path class="cls-5" d="M294.084,109.235a.845.845,0,0,0,.423.316l-.374,1.19a2.266,2.266,0,0,1-1.02-.308,1.582,1.582,0,0,1-.6-.77,2.359,2.359,0,0,1-.936.833,2.828,2.828,0,0,1-1.254.273,2.36,2.36,0,0,1-1.733-.63,2.224,2.224,0,0,1-.637-1.652,2.143,2.143,0,0,1,.867-1.841,4.117,4.117,0,0,1,2.473-.637h.915v-.421a1.288,1.288,0,0,0-.325-1,1.573,1.573,0,0,0-1.047-.286,6.158,6.158,0,0,0-1.94.391l-.416-1.217a7.338,7.338,0,0,1,2.661-.533q2.813,0,2.813,2.549V108.6A1.19,1.19,0,0,0,294.084,109.235Zm-1.878-.678v-1.5h-.735q-1.717,0-1.718,1.288a1.19,1.19,0,0,0,.263.825.985.985,0,0,0,.776.3A1.569,1.569,0,0,0,292.206,108.557Z"/><path class="cls-5" d="M300.349,103.153a3.442,3.442,0,0,1,1.088.658l-.79,1.078a2.865,2.865,0,0,0-.721-.407,2.231,2.231,0,0,0-.762-.125q-1.649,0-1.65,2.534a3.111,3.111,0,0,0,.43,1.855,1.441,1.441,0,0,0,1.22.567,1.96,1.96,0,0,0,.713-.126,4.693,4.693,0,0,0,.77-.406l.79,1.134a3.634,3.634,0,0,1-2.37.854,3.474,3.474,0,0,1-1.83-.469,3.06,3.06,0,0,1-1.192-1.338,4.682,4.682,0,0,1-.416-2.043,4.929,4.929,0,0,1,.416-2.08,3.206,3.206,0,0,1,1.192-1.4,3.288,3.288,0,0,1,1.816-.5A3.764,3.764,0,0,1,300.349,103.153Z"/><path class="cls-5" d="M308.422,107.409h-4.6a2.363,2.363,0,0,0,.554,1.54,1.708,1.708,0,0,0,1.248.462,2.589,2.589,0,0,0,.914-.161,4.22,4.22,0,0,0,.915-.5l.735,1.021a4.191,4.191,0,0,1-2.716,1,3.254,3.254,0,0,1-2.586-1.037,4.139,4.139,0,0,1-.907-2.827,5.124,5.124,0,0,1,.387-2.037,3.229,3.229,0,0,1,1.123-1.414,3.314,3.314,0,0,1,4.13.476,4.093,4.093,0,0,1,.846,2.751C308.464,106.774,308.449,107.017,308.422,107.409Zm-1.719-1.246q0-1.947-1.427-1.946a1.206,1.206,0,0,0-1.018.483,2.888,2.888,0,0,0-.437,1.547H306.7Z"/><path class="cls-5" d="M318.963,103.538a2.358,2.358,0,0,1,.547,1.659v5.362h-1.773v-5.082a1.434,1.434,0,0,0-.229-.924.839.839,0,0,0-.672-.266,1.3,1.3,0,0,0-.825.287,3.257,3.257,0,0,0-.714.833v5.152h-1.773v-7.406h1.537l.138.966a2.722,2.722,0,0,1,2.233-1.177A1.975,1.975,0,0,1,318.963,103.538Z"/><path class="cls-5" d="M327.126,109.235a.845.845,0,0,0,.423.316l-.375,1.19a2.257,2.257,0,0,1-1.018-.308,1.577,1.577,0,0,1-.6-.77,2.359,2.359,0,0,1-.936.833,2.831,2.831,0,0,1-1.254.273,2.354,2.354,0,0,1-1.732-.63,2.217,2.217,0,0,1-.639-1.652,2.141,2.141,0,0,1,.868-1.841,4.119,4.119,0,0,1,2.473-.637h.915v-.421a1.288,1.288,0,0,0-.326-1,1.57,1.57,0,0,0-1.046-.286,6.163,6.163,0,0,0-1.94.391l-.416-1.217a7.334,7.334,0,0,1,2.661-.533q2.814,0,2.813,2.549V108.6A1.19,1.19,0,0,0,327.126,109.235Zm-1.878-.678v-1.5h-.734q-1.721,0-1.719,1.288a1.19,1.19,0,0,0,.264.825.982.982,0,0,0,.775.3A1.568,1.568,0,0,0,325.248,108.557Z"/><path class="cls-5" d="M338.457,103.964a5.244,5.244,0,0,1,.665,2.871,5.671,5.671,0,0,1-.34,2.037,3.1,3.1,0,0,1-1,1.393,2.492,2.492,0,0,1-1.56.5,2.276,2.276,0,0,1-1.843-.812v3.458l-1.774.195V103.153h1.552l.1.91a2.857,2.857,0,0,1,.983-.84,2.548,2.548,0,0,1,1.164-.281A2.277,2.277,0,0,1,338.457,103.964Zm-1.192,2.885a4.125,4.125,0,0,0-.347-1.96,1.123,1.123,0,0,0-1.039-.6,1.42,1.42,0,0,0-.832.273,2.373,2.373,0,0,0-.665.735v3.332a1.555,1.555,0,0,0,1.345.77Q337.265,109.4,337.265,106.849Z"/><path class="cls-5" d="M345.221,103.055l-.306,1.736a2.6,2.6,0,0,0-.651-.084,1.24,1.24,0,0,0-1.026.469,3.588,3.588,0,0,0-.6,1.434v3.949h-1.775v-7.406h1.538l.166,1.455a2.672,2.672,0,0,1,.763-1.224,1.716,1.716,0,0,1,1.151-.427A2.578,2.578,0,0,1,345.221,103.055Z"/><path class="cls-5" d="M351.436,103.985a4.218,4.218,0,0,1,.908,2.864,4.786,4.786,0,0,1-.416,2.05,3.181,3.181,0,0,1-1.191,1.38,3.391,3.391,0,0,1-1.844.49,3.2,3.2,0,0,1-2.536-1.043,4.212,4.212,0,0,1-.915-2.877,4.731,4.731,0,0,1,.416-2.044,3.161,3.161,0,0,1,1.2-1.372,3.41,3.41,0,0,1,1.849-.491A3.18,3.18,0,0,1,351.436,103.985Zm-4.123,2.864a3.713,3.713,0,0,0,.4,1.939,1.434,1.434,0,0,0,2.37-.007,3.711,3.711,0,0,0,.4-1.932,3.668,3.668,0,0,0-.4-1.925,1.3,1.3,0,0,0-1.172-.623Q347.313,104.3,347.313,106.849Z"/><path class="cls-5" d="M355.768,109.9a4.363,4.363,0,0,1-.313,1.786,2.754,2.754,0,0,1-.88,1.113,7.024,7.024,0,0,1-1.483.8l-.568-1.3a4.145,4.145,0,0,0,.845-.5,1.52,1.52,0,0,0,.465-.664,3.234,3.234,0,0,0,.159-1.12v-6.86h1.775Zm-.09-10.184a1.064,1.064,0,0,1,.311.777,1.04,1.04,0,0,1-.311.77,1.109,1.109,0,0,1-.811.308,1.087,1.087,0,0,1-.8-.308,1.037,1.037,0,0,1-.312-.77,1.073,1.073,0,0,1,1.109-1.093A1.091,1.091,0,0,1,355.678,99.716Z"/><path class="cls-5" d="M363.875,107.409h-4.6a2.363,2.363,0,0,0,.554,1.54,1.708,1.708,0,0,0,1.248.462,2.589,2.589,0,0,0,.914-.161,4.2,4.2,0,0,0,.915-.5l.735,1.021a4.191,4.191,0,0,1-2.716,1,3.255,3.255,0,0,1-2.586-1.037,4.139,4.139,0,0,1-.907-2.827,5.107,5.107,0,0,1,.388-2.037,3.215,3.215,0,0,1,1.123-1.414,3.312,3.312,0,0,1,4.129.476,4.093,4.093,0,0,1,.846,2.751Q363.917,106.821,363.875,107.409Zm-1.719-1.246q0-1.947-1.427-1.946a1.206,1.206,0,0,0-1.018.483,2.9,2.9,0,0,0-.437,1.547h2.882Z"/><path class="cls-5" d="M367.285,99.989v10.57h-1.773V100.185Zm4.394,3.164-2.44,3.262,2.675,4.144h-2.037l-2.522-4.046,2.453-3.36Z"/><path class="cls-5" d="M377.112,110.209a2.778,2.778,0,0,1-.867.419,3.436,3.436,0,0,1-.977.141,2.165,2.165,0,0,1-1.642-.623,2.57,2.57,0,0,1-.561-1.8v-3.906h-1.151v-1.288h1.151v-1.638l1.773-.21v1.848h1.7l-.18,1.288h-1.525v3.864a1.275,1.275,0,0,0,.188.783.7.7,0,0,0,.589.239,1.8,1.8,0,0,0,.873-.266Z"/><path class="cls-5" d="M381.588,110.586a4.544,4.544,0,0,1-1.344,2.136,4.25,4.25,0,0,1-2.466.888l-.181-1.3a4.429,4.429,0,0,0,1.157-.315,1.876,1.876,0,0,0,.7-.539,3.678,3.678,0,0,0,.486-.9h-.611L377,103.153h1.885l1.594,6.216,1.663-6.216h1.83Z"/><path class="cls-3" d="M311.342,273.441h-1.761l-3.881-8.189q.084.966.132,1.785t.049,1.981v4.423h-1.234V263.8h1.718l3.922,8.2q-.041-.365-.11-1.274t-.069-1.666V263.8h1.234Z"/><path class="cls-3" d="M319.532,270.193h-4.657a2.89,2.89,0,0,0,.611,1.792,1.756,1.756,0,0,0,1.358.575,2.932,2.932,0,0,0,.97-.155,3.852,3.852,0,0,0,.928-.489l.555.77a4.019,4.019,0,0,1-2.551.923,2.946,2.946,0,0,1-2.377-1.007,4.165,4.165,0,0,1-.851-2.772,5.294,5.294,0,0,1,.367-2.037,3.189,3.189,0,0,1,1.053-1.394,2.659,2.659,0,0,1,1.615-.5,2.692,2.692,0,0,1,2.23.965,4.159,4.159,0,0,1,.778,2.675Q319.561,269.857,319.532,270.193Zm-1.233-1.036a2.752,2.752,0,0,0-.43-1.666,1.509,1.509,0,0,0-1.289-.573q-1.567,0-1.7,2.323H318.3Z"/><path class="cls-3" d="M325.783,266.064v.98l-3.81,5.319h3.852l-.152,1.078h-5.142v-.965l3.8-5.321H320.85v-1.091Z"/><path class="cls-3" d="M328.832,262.774a.853.853,0,0,1,.25.629.833.833,0,0,1-.25.623.886.886,0,0,1-.65.246.872.872,0,0,1-.639-.246.836.836,0,0,1-.249-.623.857.857,0,0,1,.888-.881A.874.874,0,0,1,328.832,262.774Zm0,3.29v7.377h-1.274v-7.377Z"/><path class="cls-3" d="M334.792,266.106a4.044,4.044,0,0,1,1.137.629l-.54.812a4.505,4.505,0,0,0-.95-.476,2.932,2.932,0,0,0-.95-.153,1.661,1.661,0,0,0-.984.258.883.883,0,0,0-.02,1.408,3.891,3.891,0,0,0,1.226.489,4.359,4.359,0,0,1,1.822.841,1.837,1.837,0,0,1,.6,1.456,1.893,1.893,0,0,1-.839,1.666,3.53,3.53,0,0,1-2.044.573,4.013,4.013,0,0,1-2.758-.965l.679-.785a3.28,3.28,0,0,0,2.052.714,1.938,1.938,0,0,0,1.142-.3.954.954,0,0,0,.423-.819,1.1,1.1,0,0,0-.152-.61,1.247,1.247,0,0,0-.527-.4,7.2,7.2,0,0,0-1.1-.372,3.716,3.716,0,0,1-1.684-.826,1.779,1.779,0,0,1-.519-1.316,1.736,1.736,0,0,1,.34-1.043,2.206,2.206,0,0,1,.941-.728,3.4,3.4,0,0,1,1.351-.258A4,4,0,0,1,334.792,266.106Z"/><path class="cls-3" d="M339.213,262.941v10.5h-1.274V263.1Zm4.2,3.123-2.688,3.261,2.993,4.116h-1.524l-2.9-4.032,2.689-3.345Z"/><path class="cls-3" d="M350.045,266.932a4.3,4.3,0,0,1,.853,2.814,4.963,4.963,0,0,1-.388,2.023,3.081,3.081,0,0,1-1.123,1.358,3.114,3.114,0,0,1-1.746.482,2.946,2.946,0,0,1-2.4-1.036,4.276,4.276,0,0,1-.859-2.814,4.947,4.947,0,0,1,.389-2.023,3.063,3.063,0,0,1,1.123-1.358,3.136,3.136,0,0,1,1.76-.482A2.921,2.921,0,0,1,350.045,266.932Zm-4.289,2.827q0,2.814,1.885,2.814t1.885-2.827q0-2.814-1.871-2.814Q345.756,266.932,345.756,269.759Z"/><path class="cls-3" d="M358.313,266.064l-2.481,7.377h-1.539l-2.521-7.377h1.384l1.915,6.23,1.9-6.23Z"/><path class="cls-3" d="M361.043,262.941v10.5h-1.275V263.1Zm4.2,3.123-2.688,3.261,2.993,4.116h-1.523l-2.9-4.032,2.689-3.345Z"/><path class="cls-3" d="M369.789,273.483a5,5,0,0,1-1.2,2.038,3.6,3.6,0,0,1-2.2.9l-.139-1.007a3.722,3.722,0,0,0,1.151-.365,1.97,1.97,0,0,0,.686-.609,4.28,4.28,0,0,0,.478-1h-.43l-2.453-7.377h1.359L369,272.5l1.913-6.439h1.318Z"/><path class="cls-3" d="M297.61,430.891a3.821,3.821,0,0,1,1.413,1.7,6.578,6.578,0,0,1,.506,2.716,6.5,6.5,0,0,1-.506,2.688,3.868,3.868,0,0,1-1.413,1.708,3.807,3.807,0,0,1-2.115.588,3.867,3.867,0,0,1-2.113-.574,3.769,3.769,0,0,1-1.414-1.694,7.43,7.43,0,0,1,0-5.39,3.889,3.889,0,0,1,1.421-1.729,3.772,3.772,0,0,1,2.106-.595A3.844,3.844,0,0,1,297.61,430.891Zm-4.055,1.463a5.081,5.081,0,0,0-.693,2.968,4.938,4.938,0,0,0,.7,2.94,2.276,2.276,0,0,0,1.932.938q2.632,0,2.634-3.892T295.5,431.4A2.262,2.262,0,0,0,293.555,432.354Z"/><path class="cls-3" d="M306.93,433.593a4.772,4.772,0,0,1,.734,2.835,5.469,5.469,0,0,1-.346,2.023,3.038,3.038,0,0,1-1,1.358,2.5,2.5,0,0,1-1.526.483,2.4,2.4,0,0,1-1.94-.98l-.124.812h-1.123V429.778l1.275-.154v4.046a2.436,2.436,0,0,1,2.064-1.092A2.324,2.324,0,0,1,306.93,433.593Zm-1.115,4.984a3.84,3.84,0,0,0,.477-2.149,4.008,4.008,0,0,0-.444-2.163,1.426,1.426,0,0,0-1.261-.665,2.064,2.064,0,0,0-1.7,1.148v3.528a2.268,2.268,0,0,0,.713.728,1.647,1.647,0,0,0,.894.266A1.524,1.524,0,0,0,305.815,438.577Z"/><path class="cls-3" d="M313.694,432.767a3.312,3.312,0,0,1,1.039.609l-.61.812a3.142,3.142,0,0,0-.756-.413,2.373,2.373,0,0,0-.81-.133,1.579,1.579,0,0,0-1.379.714,3.733,3.733,0,0,0-.492,2.114,3.528,3.528,0,0,0,.485,2.065,1.61,1.61,0,0,0,1.386.665,2.258,2.258,0,0,0,.79-.133,3.957,3.957,0,0,0,.8-.427l.582.84a3.442,3.442,0,0,1-2.231.812,2.9,2.9,0,0,1-2.336-1.008,4.183,4.183,0,0,1-.852-2.786,5.1,5.1,0,0,1,.387-2.058,3.17,3.17,0,0,1,1.1-1.372,2.93,2.93,0,0,1,1.7-.49A3.6,3.6,0,0,1,313.694,432.767Z"/><path class="cls-3" d="M321.677,436.876H317.02a2.89,2.89,0,0,0,.61,1.792,1.758,1.758,0,0,0,1.358.574,2.932,2.932,0,0,0,.97-.154,3.9,3.9,0,0,0,.929-.49l.555.77a4.016,4.016,0,0,1-2.551.924,2.944,2.944,0,0,1-2.377-1.008,4.161,4.161,0,0,1-.852-2.772,5.279,5.279,0,0,1,.368-2.037,3.184,3.184,0,0,1,1.052-1.393,2.653,2.653,0,0,1,1.615-.5,2.7,2.7,0,0,1,2.231.966,4.157,4.157,0,0,1,.777,2.674Q321.705,436.54,321.677,436.876Zm-1.233-1.036a2.752,2.752,0,0,0-.43-1.666,1.511,1.511,0,0,0-1.289-.574q-1.567,0-1.705,2.324h3.424Z"/><path class="cls-3" d="M334.813,319.482a3.817,3.817,0,0,1,1.234.868l-.818.77a2.6,2.6,0,0,0-2-.84,2.253,2.253,0,0,0-1.4.42,1.361,1.361,0,0,0-.553,1.148,1.146,1.146,0,0,0,.373.9,4.307,4.307,0,0,0,1.414.686,5.109,5.109,0,0,1,1.843.952,2.141,2.141,0,0,1,.652,1.694,2.938,2.938,0,0,1-.409,1.491,3.056,3.056,0,0,1-1.248,1.155,4.382,4.382,0,0,1-2.085.448,3.883,3.883,0,0,1-3.091-1.288l.832-.784a2.929,2.929,0,0,0,1,.735,3.157,3.157,0,0,0,1.289.245,2.628,2.628,0,0,0,1.712-.525,1.723,1.723,0,0,0,.644-1.407,1.268,1.268,0,0,0-.381-.973,4.072,4.072,0,0,0-1.378-.707,5.552,5.552,0,0,1-1.9-1.015,1.989,1.989,0,0,1-.6-1.533,2.427,2.427,0,0,1,.388-1.288,2.956,2.956,0,0,1,1.13-1.036,3.621,3.621,0,0,1,1.767-.406A3.949,3.949,0,0,1,334.813,319.482Z"/><path class="cls-3" d="M338.611,327.056c-.019.187-.029.308-.029.364a.7.7,0,0,0,.16.511.664.664,0,0,0,.493.161,1.63,1.63,0,0,0,.492-.077,4.306,4.306,0,0,0,.56-.231l.416.9a2.948,2.948,0,0,1-1.621.49,1.8,1.8,0,0,1-1.3-.441,1.655,1.655,0,0,1-.459-1.253,2.532,2.532,0,0,1,.029-.448l.609-4.41H336.7l.139-.994h1.317l.458-1.708,1-.112-.249,1.82h1.718l-.276.994h-1.58Z"/><path class="cls-3" d="M346.739,321.61a6.422,6.422,0,0,1,1.269.476l-.749,5.236a2.879,2.879,0,0,0-.028.308.714.714,0,0,0,.1.406.741.741,0,0,0,.367.252l-.36.882a1.567,1.567,0,0,1-.9-.364,1.358,1.358,0,0,1-.389-.868,3.555,3.555,0,0,1-1,.9,2.272,2.272,0,0,1-1.178.329,2.066,2.066,0,0,1-1.719-.77,3.224,3.224,0,0,1-.609-2.058,6.506,6.506,0,0,1,.408-2.24,4.531,4.531,0,0,1,1.282-1.883,3.234,3.234,0,0,1,2.205-.763A5.311,5.311,0,0,1,346.739,321.61Zm-2.716,1.463a3.593,3.593,0,0,0-.845,1.484,6.133,6.133,0,0,0-.272,1.8,2.31,2.31,0,0,0,.32,1.351,1.058,1.058,0,0,0,.915.441,1.616,1.616,0,0,0,1.018-.35,5.1,5.1,0,0,0,.936-1.008l.567-4.074a2.867,2.867,0,0,0-.56-.182,3.167,3.167,0,0,0-.631-.056A1.927,1.927,0,0,0,344.023,323.073Zm3.153-5.285.416,1.078-3.05,1.2-.291-.686Z"/><path class="cls-3" d="M351.14,327.056c-.019.187-.028.308-.028.364a.7.7,0,0,0,.16.511.66.66,0,0,0,.492.161,1.63,1.63,0,0,0,.492-.077,4.313,4.313,0,0,0,.561-.231l.416.9a2.953,2.953,0,0,1-1.621.49,1.8,1.8,0,0,1-1.3-.441,1.655,1.655,0,0,1-.458-1.253,2.653,2.653,0,0,1,.028-.448l.609-4.41h-1.261l.138-.994h1.317l.458-1.708,1-.112-.249,1.82h1.719l-.277.994h-1.58Z"/><path class="cls-3" d="M285.957,208.686l-3.05,9.646h-1.413l-3.078-9.646h1.414l2.4,8.2,2.4-8.2Z"/><path class="cls-3" d="M291.209,208.791a4.464,4.464,0,0,1,1.317.847l-.721.812a4.036,4.036,0,0,0-1.06-.637,3.023,3.023,0,0,0-1.116-.2,2.058,2.058,0,0,0-1.233.351,1.18,1.18,0,0,0-.486,1.022,1.4,1.4,0,0,0,.166.707,1.494,1.494,0,0,0,.618.524,7.806,7.806,0,0,0,1.31.5,8.452,8.452,0,0,1,1.5.6,2.468,2.468,0,0,1,1.331,2.325,2.707,2.707,0,0,1-.409,1.484,2.742,2.742,0,0,1-1.178,1.008,4.236,4.236,0,0,1-1.822.364,4.416,4.416,0,0,1-3.244-1.247l.721-.812a4.681,4.681,0,0,0,1.177.722,3.487,3.487,0,0,0,1.331.245,2.363,2.363,0,0,0,1.47-.442,1.507,1.507,0,0,0,.582-1.28,1.575,1.575,0,0,0-.18-.791,1.619,1.619,0,0,0-.617-.567,6.317,6.317,0,0,0-1.268-.5,5.558,5.558,0,0,1-2.149-1.078,2.219,2.219,0,0,1-.678-1.708,2.31,2.31,0,0,1,.38-1.3,2.548,2.548,0,0,1,1.068-.9,3.636,3.636,0,0,1,1.559-.321A4.364,4.364,0,0,1,291.209,208.791Zm.208-3.185.54.629-1.871,1.54h-.845l-1.885-1.54.554-.629,1.746,1.134Z"/><path class="cls-3" d="M303.447,217.274a.925.925,0,0,0,.458.33l-.292.9a1.941,1.941,0,0,1-.914-.322,1.472,1.472,0,0,1-.512-.784,2.446,2.446,0,0,1-2.177,1.106,2.312,2.312,0,0,1-1.7-.617,2.158,2.158,0,0,1-.624-1.609,2.121,2.121,0,0,1,.839-1.806,3.882,3.882,0,0,1,2.377-.631h1.122v-.545a1.452,1.452,0,0,0-.373-1.121,1.69,1.69,0,0,0-1.151-.335,6.346,6.346,0,0,0-1.968.392l-.319-.938a7.278,7.278,0,0,1,2.522-.5,2.624,2.624,0,0,1,1.927.636,2.457,2.457,0,0,1,.637,1.813v3.374A1.169,1.169,0,0,0,303.447,217.274Zm-1.427-.888v-1.695h-.956q-2.024,0-2.024,1.513a1.391,1.391,0,0,0,.32.994,1.238,1.238,0,0,0,.941.336A1.9,1.9,0,0,0,302.02,216.386Z"/><path class="cls-3" d="M314.951,210.954l-2.48,7.378h-1.539l-2.522-7.378H309.8l1.914,6.23,1.9-6.23Z"/><path class="cls-3" d="M319.331,218.374a5,5,0,0,1-1.2,2.037,3.611,3.611,0,0,1-2.2.9l-.139-1.008a3.715,3.715,0,0,0,1.15-.365,1.977,1.977,0,0,0,.686-.608,4.3,4.3,0,0,0,.479-1h-.43l-2.453-7.378h1.358l1.954,6.44,1.912-6.44h1.318Zm.263-11.256.568,1.077-2.937,1.2-.389-.686Z"/><path class="cls-3" d="M327.508,210.954v.98l-3.811,5.319h3.853l-.152,1.079h-5.142v-.966l3.8-5.321h-3.479v-1.091Z"/><path class="cls-3" d="M330.558,207.832v10.5h-1.275V207.985Zm4.2,3.122-2.689,3.261,2.994,4.117h-1.526l-2.9-4.033,2.689-3.345Z"/><path class="cls-3" d="M341.715,218.332h-1.1l-.1-1.148a2.8,2.8,0,0,1-.956,1,2.576,2.576,0,0,1-1.317.315,1.932,1.932,0,0,1-1.5-.588,2.375,2.375,0,0,1-.54-1.666v-5.292h1.275v5.152a1.694,1.694,0,0,0,.262,1.071,1.063,1.063,0,0,0,.86.315,2.171,2.171,0,0,0,1.83-1.274v-5.264h1.275Z"/><path class="cls-3" d="M353.121,211.4a2.38,2.38,0,0,1,.541,1.645v5.292h-1.275v-5.11q0-1.428-1.025-1.428a1.38,1.38,0,0,0-.916.314,4.407,4.407,0,0,0-.8.988v5.236h-1.276v-5.11q0-1.428-1.025-1.428a1.373,1.373,0,0,0-.929.322,4.44,4.44,0,0,0-.79.98v5.236h-1.275v-7.378h1.1l.11,1.078a2.441,2.441,0,0,1,2.106-1.246,1.836,1.836,0,0,1,1.844,1.33,3.478,3.478,0,0,1,.949-.988,2.183,2.183,0,0,1,1.227-.342A1.832,1.832,0,0,1,353.121,211.4Z"/><path d="M10.848,11.982a3.472,3.472,0,0,1,1.323,2.97,3.689,3.689,0,0,1-1.332,3.1,5.619,5.619,0,0,1-3.546,1.035H5.835V23.43H3.459V10.992H7.131A6.1,6.1,0,0,1,10.848,11.982Zm-1.809,4.8a2.244,2.244,0,0,0,.648-1.827q0-2.214-2.574-2.214H5.835V17.31H7.113A2.983,2.983,0,0,0,9.039,16.779Z"/><path d="M20.657,14.979a5.38,5.38,0,0,1,1.18,3.681A6.122,6.122,0,0,1,21.3,21.3a4.094,4.094,0,0,1-1.548,1.773,4.427,4.427,0,0,1-2.394.63,4.171,4.171,0,0,1-3.294-1.341,5.384,5.384,0,0,1-1.188-3.7,6.047,6.047,0,0,1,.54-2.628,4.1,4.1,0,0,1,1.557-1.764,4.468,4.468,0,0,1,2.4-.63A4.146,4.146,0,0,1,20.657,14.979ZM15.3,18.66a4.73,4.73,0,0,0,.513,2.493,1.7,1.7,0,0,0,1.539.8,1.7,1.7,0,0,0,1.539-.81,4.738,4.738,0,0,0,.512-2.484,4.687,4.687,0,0,0-.512-2.475,1.69,1.69,0,0,0-1.521-.8Q15.3,15.384,15.3,18.66Z"/><path d="M30.045,13.908v1.656L25.437,21.63h4.7l-.234,1.8h-7.11V21.774l4.626-6.066h-4.23v-1.8ZM28.875,9.03l.882,1.008-2.5,2.25h-1.44l-2.5-2.25L24.2,9.03l2.34,1.584Z"/><path d="M38.873,21.729a1.1,1.1,0,0,0,.549.405l-.485,1.53a2.948,2.948,0,0,1-1.324-.4,2.035,2.035,0,0,1-.783-.99,3.045,3.045,0,0,1-1.215,1.071,3.705,3.705,0,0,1-1.628.351,3.076,3.076,0,0,1-2.25-.81,2.839,2.839,0,0,1-.829-2.124A2.748,2.748,0,0,1,32.033,18.4a5.4,5.4,0,0,1,3.213-.819h1.189v-.54a1.647,1.647,0,0,0-.423-1.287,2.045,2.045,0,0,0-1.359-.369,8.033,8.033,0,0,0-2.521.5l-.539-1.566a9.613,9.613,0,0,1,3.455-.684q3.655,0,3.654,3.276v4A1.528,1.528,0,0,0,38.873,21.729Zm-2.438-.873V18.93h-.954q-2.234,0-2.233,1.656a1.53,1.53,0,0,0,.342,1.062,1.294,1.294,0,0,0,1.009.378A2.04,2.04,0,0,0,36.435,20.856Z"/><path d="M49.5,10.092V23.43H47.469l-.162-1.206a3.327,3.327,0,0,1-1.144,1.08,3.116,3.116,0,0,1-1.574.4,3.068,3.068,0,0,1-2.683-1.35,6.35,6.35,0,0,1-.935-3.672,6.8,6.8,0,0,1,.468-2.6,4.1,4.1,0,0,1,1.341-1.791,3.383,3.383,0,0,1,4.418.378V9.84ZM46.317,21.657a3.072,3.072,0,0,0,.881-.927V16.374a3.319,3.319,0,0,0-.836-.756,1.885,1.885,0,0,0-.981-.252,1.645,1.645,0,0,0-1.449.819A4.6,4.6,0,0,0,43.4,18.66a5.094,5.094,0,0,0,.467,2.529,1.511,1.511,0,0,0,1.369.765A1.974,1.974,0,0,0,46.317,21.657Z"/><path d="M59.447,14.979a5.38,5.38,0,0,1,1.18,3.681,6.122,6.122,0,0,1-.54,2.637,4.094,4.094,0,0,1-1.548,1.773,4.427,4.427,0,0,1-2.394.63,4.171,4.171,0,0,1-3.294-1.341,5.384,5.384,0,0,1-1.188-3.7,6.047,6.047,0,0,1,.54-2.628,4.1,4.1,0,0,1,1.557-1.764,4.468,4.468,0,0,1,2.4-.63A4.146,4.146,0,0,1,59.447,14.979ZM54.093,18.66a4.73,4.73,0,0,0,.513,2.493,1.873,1.873,0,0,0,3.078-.009A4.738,4.738,0,0,0,58.2,18.66a4.687,4.687,0,0,0-.512-2.475,1.69,1.69,0,0,0-1.521-.8Q54.092,15.384,54.093,18.66Z"/><path d="M70.329,13.908,67.234,23.43H64.479l-3.15-9.522h2.5l2.034,7.668,2.088-7.668Z"/><path d="M78.617,21.729a1.1,1.1,0,0,0,.549.405l-.485,1.53a2.94,2.94,0,0,1-1.323-.4,2.031,2.031,0,0,1-.784-.99,3.049,3.049,0,0,1-1.214,1.071,3.713,3.713,0,0,1-1.629.351,3.076,3.076,0,0,1-2.25-.81,2.838,2.838,0,0,1-.828-2.124A2.748,2.748,0,0,1,71.778,18.4a5.4,5.4,0,0,1,3.212-.819h1.189v-.54a1.647,1.647,0,0,0-.423-1.287,2.045,2.045,0,0,0-1.359-.369,8.039,8.039,0,0,0-2.521.5l-.539-1.566a9.617,9.617,0,0,1,3.455-.684q3.655,0,3.654,3.276v4A1.528,1.528,0,0,0,78.617,21.729Zm-2.438-.873V18.93h-.954q-2.232,0-2.233,1.656a1.53,1.53,0,0,0,.342,1.062,1.294,1.294,0,0,0,1.009.378A2.039,2.039,0,0,0,76.179,20.856Z"/><path d="M88.3,14.4a3.017,3.017,0,0,1,.711,2.133V23.43h-2.3V16.9a1.822,1.822,0,0,0-.3-1.188,1.093,1.093,0,0,0-.872-.342,1.7,1.7,0,0,0-1.071.369,4.228,4.228,0,0,0-.927,1.071V23.43h-2.3V13.908h2l.18,1.242a3.537,3.537,0,0,1,2.9-1.512A2.584,2.584,0,0,1,88.3,14.4Z"/><path d="M99.452,19.38H93.477a3.023,3.023,0,0,0,.719,1.98,2.231,2.231,0,0,0,1.621.594,3.388,3.388,0,0,0,1.188-.207,5.568,5.568,0,0,0,1.188-.639l.954,1.314A5.482,5.482,0,0,1,95.618,23.7a4.245,4.245,0,0,1-3.356-1.332,5.288,5.288,0,0,1-1.179-3.636,6.515,6.515,0,0,1,.5-2.619A4.149,4.149,0,0,1,93.045,14.3a4.34,4.34,0,0,1,5.363.612,5.228,5.228,0,0,1,1.1,3.537C99.507,18.565,99.488,18.876,99.452,19.38ZM96.735,8.67l.936,1.8L93.6,12.09l-.648-1.17Zm.486,9.108q0-2.5-1.855-2.5a1.574,1.574,0,0,0-1.322.621,3.692,3.692,0,0,0-.567,1.989h3.744Z"/><path d="M111.423,14.448l1.314,1.314-2.124,2.106,2.124,2.178-1.314,1.314-2.106-2.2-2.178,2.2-1.315-1.314,2.124-2.088-2.124-2.2,1.315-1.314,2.105,2.214Z"/><path d="M126.147,14.772l-.9,1.35a4.481,4.481,0,0,0-2.393-.774,1.861,1.861,0,0,0-1.063.261.8.8,0,0,0-.378.693.875.875,0,0,0,.162.54,1.475,1.475,0,0,0,.585.405,9.908,9.908,0,0,0,1.251.423,5.5,5.5,0,0,1,2.3,1.1,2.457,2.457,0,0,1,.747,1.908A2.555,2.555,0,0,1,125.3,22.9a4.892,4.892,0,0,1-2.861.8,6.052,6.052,0,0,1-2.134-.36,5.17,5.17,0,0,1-1.665-.99l1.152-1.3a4.252,4.252,0,0,0,2.592.936,2.189,2.189,0,0,0,1.233-.306.963.963,0,0,0,.459-.846,1.125,1.125,0,0,0-.171-.657,1.408,1.408,0,0,0-.612-.432,12.845,12.845,0,0,0-1.377-.459,4.6,4.6,0,0,1-2.141-1.107,2.456,2.456,0,0,1-.685-1.773,2.355,2.355,0,0,1,.459-1.422,3.052,3.052,0,0,1,1.3-.99,4.816,4.816,0,0,1,1.917-.36A5.361,5.361,0,0,1,126.147,14.772Z"/><path d="M128.856,23.061a2.489,2.489,0,0,1-.621-1.809V10.092l2.3-.252V21.18c0,.445.181.666.54.666a1.69,1.69,0,0,0,.54-.09l.487,1.62a3.694,3.694,0,0,1-1.531.324A2.285,2.285,0,0,1,128.856,23.061Z"/><path d="M136.155,8.67l.935,1.8-4.067,1.62-.649-1.17Zm-.216,5.238V23.43h-2.305V13.908Z"/><path d="M146.576,14.961a6.326,6.326,0,0,1,.936,3.7,6.966,6.966,0,0,1-.459,2.619,4.063,4.063,0,0,1-1.305,1.782,3.221,3.221,0,0,1-2,.639,3.082,3.082,0,0,1-1.413-.324,3.288,3.288,0,0,1-1.106-.918l-.145.972h-2.034V10.092l2.305-.252v5.148a3.235,3.235,0,0,1,1.142-1,3.174,3.174,0,0,1,1.486-.351A3,3,0,0,1,146.576,14.961Zm-2,6.21a4.706,4.706,0,0,0,.522-2.511,4.9,4.9,0,0,0-.486-2.547,1.543,1.543,0,0,0-1.368-.747,2.247,2.247,0,0,0-1.889,1.3v4.212a2.312,2.312,0,0,0,.764.81,1.836,1.836,0,0,0,1,.288A1.648,1.648,0,0,0,144.578,21.171Z"/><path d="M157.537,19.38h-5.975a3.023,3.023,0,0,0,.719,1.98,2.231,2.231,0,0,0,1.621.594,3.392,3.392,0,0,0,1.188-.207,5.568,5.568,0,0,0,1.188-.639l.954,1.314A5.482,5.482,0,0,1,153.7,23.7a4.245,4.245,0,0,1-3.356-1.332,5.288,5.288,0,0,1-1.179-3.636,6.515,6.515,0,0,1,.5-2.619A4.149,4.149,0,0,1,151.13,14.3a4.34,4.34,0,0,1,5.363.612,5.228,5.228,0,0,1,1.1,3.537C157.592,18.565,157.573,18.876,157.537,19.38Zm-2.231-1.6q0-2.5-1.855-2.5a1.573,1.573,0,0,0-1.322.621,3.692,3.692,0,0,0-.567,1.989h3.744Z"/><path d="M166.727,14.4a3.021,3.021,0,0,1,.711,2.133V23.43h-2.3V16.9a1.828,1.828,0,0,0-.3-1.188,1.093,1.093,0,0,0-.872-.342,1.7,1.7,0,0,0-1.071.369,4.208,4.208,0,0,0-.927,1.071V23.43h-2.305V13.908h2l.181,1.242a3.536,3.536,0,0,1,2.9-1.512A2.584,2.584,0,0,1,166.727,14.4Z"/><path d="M177.877,19.38H171.9a3.023,3.023,0,0,0,.719,1.98,2.23,2.23,0,0,0,1.62.594,3.394,3.394,0,0,0,1.189-.207,5.563,5.563,0,0,0,1.187-.639l.954,1.314a5.477,5.477,0,0,1-3.528,1.278,4.245,4.245,0,0,1-3.356-1.332,5.288,5.288,0,0,1-1.179-3.636,6.515,6.515,0,0,1,.5-2.619A4.149,4.149,0,0,1,171.47,14.3a4.34,4.34,0,0,1,5.363.612,5.228,5.228,0,0,1,1.1,3.537C177.932,18.565,177.913,18.876,177.877,19.38ZM175.159,8.67l.937,1.8-4.068,1.62-.648-1.17Zm.487,9.108q0-2.5-1.855-2.5a1.573,1.573,0,0,0-1.322.621,3.692,3.692,0,0,0-.567,1.989h3.744Z"/><path d="M192.512,10.092V23.43h-2.034l-.162-1.206a3.327,3.327,0,0,1-1.144,1.08,3.116,3.116,0,0,1-1.574.4,3.068,3.068,0,0,1-2.683-1.35,6.35,6.35,0,0,1-.935-3.672,6.815,6.815,0,0,1,.467-2.6,4.11,4.11,0,0,1,1.341-1.791,3.384,3.384,0,0,1,4.419.378V9.84Zm-3.187,11.565a3.062,3.062,0,0,0,.882-.927V16.374a3.3,3.3,0,0,0-.837-.756,1.879,1.879,0,0,0-.98-.252,1.645,1.645,0,0,0-1.449.819,4.6,4.6,0,0,0-.532,2.475,5.092,5.092,0,0,0,.468,2.529,1.51,1.51,0,0,0,1.368.765A1.97,1.97,0,0,0,189.325,21.657Z"/><path d="M202.456,14.979a5.385,5.385,0,0,1,1.18,3.681,6.122,6.122,0,0,1-.54,2.637,4.094,4.094,0,0,1-1.548,1.773,4.429,4.429,0,0,1-2.394.63,4.171,4.171,0,0,1-3.294-1.341,5.384,5.384,0,0,1-1.188-3.7,6.047,6.047,0,0,1,.54-2.628,4.09,4.09,0,0,1,1.557-1.764,4.466,4.466,0,0,1,2.4-.63A4.147,4.147,0,0,1,202.456,14.979ZM197.1,18.66a4.741,4.741,0,0,0,.512,2.493,1.874,1.874,0,0,0,3.079-.009,4.748,4.748,0,0,0,.512-2.484,4.7,4.7,0,0,0-.512-2.475,1.69,1.69,0,0,0-1.521-.8Q197.1,15.384,197.1,18.66Z"/><path d="M211.249,22.98a3.683,3.683,0,0,1-1.125.54,4.534,4.534,0,0,1-1.268.18,2.823,2.823,0,0,1-2.133-.8,3.28,3.28,0,0,1-.73-2.313V15.564H204.5V13.908h1.494V11.8l2.3-.27v2.376h2.214l-.233,1.656H208.3v4.968a1.636,1.636,0,0,0,.243,1.008.919.919,0,0,0,.766.306,2.354,2.354,0,0,0,1.134-.342Z"/><path d="M219.574,21.729a1.1,1.1,0,0,0,.549.405l-.485,1.53a2.94,2.94,0,0,1-1.323-.4,2.031,2.031,0,0,1-.784-.99,3.049,3.049,0,0,1-1.214,1.071,3.713,3.713,0,0,1-1.629.351,3.076,3.076,0,0,1-2.25-.81,2.838,2.838,0,0,1-.828-2.124,2.748,2.748,0,0,1,1.125-2.367,5.4,5.4,0,0,1,3.212-.819h1.189v-.54a1.647,1.647,0,0,0-.423-1.287,2.045,2.045,0,0,0-1.359-.369,8.039,8.039,0,0,0-2.521.5l-.539-1.566a9.617,9.617,0,0,1,3.455-.684q3.656,0,3.655,3.276v4A1.53,1.53,0,0,0,219.574,21.729Zm-2.438-.873V18.93h-.954q-2.232,0-2.233,1.656a1.53,1.53,0,0,0,.342,1.062,1.294,1.294,0,0,0,1.009.378A2.039,2.039,0,0,0,217.136,20.856Z"/><path d="M227.711,13.908a4.5,4.5,0,0,1,1.413.846L228.1,16.14a3.69,3.69,0,0,0-.937-.522,2.9,2.9,0,0,0-.989-.162q-2.143,0-2.142,3.258a3.975,3.975,0,0,0,.558,2.385,1.876,1.876,0,0,0,1.584.729,2.571,2.571,0,0,0,.927-.162,6.023,6.023,0,0,0,1-.522l1.026,1.458a4.74,4.74,0,0,1-3.078,1.1,4.541,4.541,0,0,1-2.376-.6,3.946,3.946,0,0,1-1.548-1.719,5.974,5.974,0,0,1-.54-2.628,6.273,6.273,0,0,1,.54-2.673,4.133,4.133,0,0,1,1.548-1.8,4.318,4.318,0,0,1,2.358-.639A4.927,4.927,0,0,1,227.711,13.908Z"/><path d="M238.2,19.38H232.22a3.018,3.018,0,0,0,.72,1.98,2.227,2.227,0,0,0,1.62.594,3.388,3.388,0,0,0,1.188-.207,5.568,5.568,0,0,0,1.188-.639l.954,1.314a5.481,5.481,0,0,1-3.528,1.278,4.245,4.245,0,0,1-3.357-1.332,5.288,5.288,0,0,1-1.179-3.636,6.515,6.515,0,0,1,.5-2.619,4.156,4.156,0,0,1,1.458-1.818,4.342,4.342,0,0,1,5.364.612,5.233,5.233,0,0,1,1.1,3.537C238.25,18.565,238.232,18.876,238.2,19.38Zm-2.232-1.6q0-2.5-1.854-2.5a1.575,1.575,0,0,0-1.323.621,3.7,3.7,0,0,0-.567,1.989h3.744Z"/><path d="M4.532,39.7V49.836H3.644V39.7Zm5.313,0-4.2,4.662L10.1,49.836H9.017L4.591,44.4,8.824,39.7Z"/><path d="M15.44,42.021l-.163.814a2.585,2.585,0,0,0-.681-.089,1.581,1.581,0,0,0-1.266.57,4.691,4.691,0,0,0-.806,1.784v4.736h-.859V42.1h.74l.075,1.732a3.1,3.1,0,0,1,.85-1.428,1.98,1.98,0,0,1,1.34-.467A2.853,2.853,0,0,1,15.44,42.021Z"/><path d="M21.633,48.992a.949.949,0,0,0,.5.4L21.937,50a1.521,1.521,0,0,1-.822-.4,1.6,1.6,0,0,1-.377-.9A2.643,2.643,0,0,1,18.325,50a2.4,2.4,0,0,1-1.754-.629,2.24,2.24,0,0,1-.643-1.679,2.193,2.193,0,0,1,.851-1.851,3.8,3.8,0,0,1,2.36-.65h1.48v-.755a1.88,1.88,0,0,0-.414-1.355,1.877,1.877,0,0,0-1.377-.422,6.274,6.274,0,0,0-2.1.445l-.222-.652a6.633,6.633,0,0,1,2.441-.518,2.206,2.206,0,0,1,2.532,2.457v3.73A1.826,1.826,0,0,0,21.633,48.992Zm-1.014-1.051V45.81H19.273a3.009,3.009,0,0,0-1.806.459,1.6,1.6,0,0,0-.622,1.376,1.662,1.662,0,0,0,.43,1.229,1.619,1.619,0,0,0,1.2.429A2.349,2.349,0,0,0,20.619,47.941Z"/><path d="M25.311,49.554a4.717,4.717,0,0,1-.222,1.606,2.244,2.244,0,0,1-.651.962,5.282,5.282,0,0,1-1.213.718l-.252-.622a3.915,3.915,0,0,0,.866-.555,1.693,1.693,0,0,0,.458-.754,4.465,4.465,0,0,0,.155-1.325V42.1h.859Zm.03-10.685a.643.643,0,0,1,0,.888.641.641,0,0,1-.474.177.624.624,0,0,1-.459-.177.645.645,0,0,1,0-.888.625.625,0,0,1,.459-.178A.641.641,0,0,1,25.341,38.869Z"/><path d="M33.91,46.3H28.745a3.6,3.6,0,0,0,.718,2.243,2.145,2.145,0,0,0,1.694.732,2.909,2.909,0,0,0,1.074-.185,4.684,4.684,0,0,0,1.013-.585l.4.548a4.37,4.37,0,0,1-1.184.71A3.678,3.678,0,0,1,31.113,50,2.965,2.965,0,0,1,28.7,48.947a4.43,4.43,0,0,1-.873-2.915,5.688,5.688,0,0,1,.377-2.154,3.237,3.237,0,0,1,1.081-1.435,2.711,2.711,0,0,1,1.635-.511,2.667,2.667,0,0,1,2.25,1,4.4,4.4,0,0,1,.77,2.746A6.153,6.153,0,0,1,33.91,46.3ZM33.1,45.41a3.367,3.367,0,0,0-.54-2.034,1.867,1.867,0,0,0-1.606-.733,1.892,1.892,0,0,0-1.554.74,3.8,3.8,0,0,0-.651,2.249H33.1Z"/><path d="M44.684,42.1v.666L40.363,49.1h4.292l-.089.741h-5.21V49.17l4.322-6.335H39.711V42.1Z"/><path d="M48.3,38.262l.385.769L45.793,40.29l-.281-.5ZM47.613,42.1v7.741h-.858V42.1Z"/><path d="M53.963,42.147a4.318,4.318,0,0,1,1.154.644l-.4.562a4.386,4.386,0,0,0-1.007-.54,3.049,3.049,0,0,0-1.035-.17A2.014,2.014,0,0,0,51.433,43a1.122,1.122,0,0,0-.474.947,1.035,1.035,0,0,0,.406.873,4.491,4.491,0,0,0,1.473.592,4.653,4.653,0,0,1,1.9.859,1.871,1.871,0,0,1,.584,1.48,1.953,1.953,0,0,1-.8,1.643,3.217,3.217,0,0,1-2,.606,4.263,4.263,0,0,1-1.554-.259,4.113,4.113,0,0,1-1.214-.732l.474-.548a3.821,3.821,0,0,0,1.058.614,3.482,3.482,0,0,0,1.221.2,2.256,2.256,0,0,0,1.384-.392,1.284,1.284,0,0,0,.525-1.088,1.474,1.474,0,0,0-.178-.769,1.411,1.411,0,0,0-.606-.511,7.031,7.031,0,0,0-1.258-.437,4.313,4.313,0,0,1-1.769-.814,1.668,1.668,0,0,1-.54-1.3,1.723,1.723,0,0,1,.34-1.043,2.241,2.241,0,0,1,.925-.726,3.211,3.211,0,0,1,1.31-.259A3.842,3.842,0,0,1,53.963,42.147Z"/><path d="M58.477,38.839v11h-.859V38.943ZM62.814,42.1l-3.256,3.463,3.6,4.278H62.118L58.566,45.6,61.822,42.1Z"/><path d="M69.584,48.992a.949.949,0,0,0,.5.4L69.888,50a1.514,1.514,0,0,1-.821-.4,1.591,1.591,0,0,1-.378-.9A2.643,2.643,0,0,1,66.277,50a2.4,2.4,0,0,1-1.754-.629,2.237,2.237,0,0,1-.644-1.679,2.193,2.193,0,0,1,.851-1.851,3.8,3.8,0,0,1,2.36-.65h1.481v-.755a1.523,1.523,0,0,0-1.791-1.777,6.279,6.279,0,0,0-2.1.445l-.222-.652a6.633,6.633,0,0,1,2.442-.518,2.206,2.206,0,0,1,2.531,2.457v3.73A1.826,1.826,0,0,0,69.584,48.992Zm-1.013-1.051V45.81H67.224a3.009,3.009,0,0,0-1.806.459,1.6,1.6,0,0,0-.622,1.376,1.666,1.666,0,0,0,.43,1.229,1.619,1.619,0,0,0,1.2.429A2.351,2.351,0,0,0,68.571,47.941Z"/><path d="M73.262,49.554a4.717,4.717,0,0,1-.222,1.606,2.244,2.244,0,0,1-.651.962,5.282,5.282,0,0,1-1.213.718l-.252-.622a3.915,3.915,0,0,0,.866-.555,1.693,1.693,0,0,0,.458-.754,4.46,4.46,0,0,0,.156-1.325V42.1h.858Zm.03-10.685a.643.643,0,0,1,0,.888.64.64,0,0,1-.473.177.621.621,0,0,1-.459-.177.643.643,0,0,1,0-.888.622.622,0,0,1,.459-.178A.64.64,0,0,1,73.292,38.869Z"/><path d="M78.116,38.262l.385.769L75.614,40.29l-.281-.5ZM77.435,42.1v7.741h-.859V42.1Z"/><path d="M89.867,42.1l-2.678,7.741H86.122L83.355,42.1H84.3l2.353,6.986L88.949,42.1Z"/><path d="M97.09,46.3H91.925a3.6,3.6,0,0,0,.718,2.243,2.144,2.144,0,0,0,1.694.732,2.9,2.9,0,0,0,1.073-.185,4.665,4.665,0,0,0,1.014-.585l.4.548a4.35,4.35,0,0,1-1.183.71A3.683,3.683,0,0,1,94.292,50a2.964,2.964,0,0,1-2.412-1.051,4.43,4.43,0,0,1-.873-2.915,5.688,5.688,0,0,1,.377-2.154,3.23,3.23,0,0,1,1.081-1.435,2.711,2.711,0,0,1,1.635-.511,2.667,2.667,0,0,1,2.25,1,4.4,4.4,0,0,1,.769,2.746A6.161,6.161,0,0,1,97.09,46.3Zm-.814-.888a3.367,3.367,0,0,0-.54-2.034,1.868,1.868,0,0,0-1.606-.733,1.894,1.894,0,0,0-1.555.74,3.812,3.812,0,0,0-.65,2.249h4.351Zm-.34-6.956.385.445-1.91,1.568h-.533L91.954,38.9l.385-.445L94.145,39.7Z"/><path d="M103.083,49.51a2.888,2.888,0,0,1-1.628.488,1.832,1.832,0,0,1-1.39-.525,2.106,2.106,0,0,1-.5-1.517V42.791h-1.3v-.7h1.3v-1.85l.858-.1V42.1h2l-.1.7h-1.895v5.121a1.546,1.546,0,0,0,.281,1.013,1.059,1.059,0,0,0,.859.333,2.356,2.356,0,0,0,1.184-.34Z"/><path d="M107.82,42.147a4.333,4.333,0,0,1,1.154.644l-.4.562a4.4,4.4,0,0,0-1.006-.54,3.059,3.059,0,0,0-1.036-.17,2.018,2.018,0,0,0-1.243.355,1.123,1.123,0,0,0-.473.947,1.032,1.032,0,0,0,.406.873,4.481,4.481,0,0,0,1.473.592,4.666,4.666,0,0,1,1.9.859,1.871,1.871,0,0,1,.584,1.48,1.954,1.954,0,0,1-.8,1.643,3.213,3.213,0,0,1-2,.606,4.267,4.267,0,0,1-1.554-.259,4.125,4.125,0,0,1-1.214-.732l.474-.548a3.826,3.826,0,0,0,1.059.614,3.473,3.473,0,0,0,1.22.2,2.252,2.252,0,0,0,1.384-.392,1.282,1.282,0,0,0,.526-1.088,1.484,1.484,0,0,0-.178-.769,1.414,1.414,0,0,0-.607-.511,7.045,7.045,0,0,0-1.257-.437,4.312,4.312,0,0,1-1.77-.814,1.672,1.672,0,0,1-.54-1.3,1.717,1.717,0,0,1,.341-1.043,2.234,2.234,0,0,1,.925-.726,3.206,3.206,0,0,1,1.309-.259A3.848,3.848,0,0,1,107.82,42.147Zm.562-3.693.385.445-1.909,1.568h-.534L104.4,38.9l.384-.445,1.806,1.243Z"/><path d="M112.363,38.869a.645.645,0,0,1,0,.888.644.644,0,0,1-.474.177.621.621,0,0,1-.459-.177.643.643,0,0,1,0-.888.622.622,0,0,1,.459-.178A.644.644,0,0,1,112.363,38.869Zm-.031,3.226v7.741h-.858V42.1Z"/><path d="M120.5,42.554a2.531,2.531,0,0,1,.555,1.746v5.536h-.858V44.419a2.053,2.053,0,0,0-.371-1.362,1.366,1.366,0,0,0-1.094-.429,2.2,2.2,0,0,0-1.311.407,4.474,4.474,0,0,0-1.088,1.191v5.61h-.858V42.1h.74l.089,1.317a3.623,3.623,0,0,1,1.125-1.088,2.789,2.789,0,0,1,1.465-.392A2.042,2.042,0,0,1,120.5,42.554Z"/><path d="M129.545,49.836h-.739l-.045-1.377A2.822,2.822,0,0,1,126.231,50a2.1,2.1,0,0,1-1.621-.614,2.484,2.484,0,0,1-.57-1.754V42.1h.859v5.447a1.944,1.944,0,0,0,.377,1.324,1.458,1.458,0,0,0,1.147.422,2.644,2.644,0,0,0,2.264-1.584V42.1h.858Z"/><path d="M142.118,42.976a5.258,5.258,0,0,1,.7,2.952,5.139,5.139,0,0,1-.762,2.968,2.5,2.5,0,0,1-2.183,1.1,2.723,2.723,0,0,1-1.259-.288,2.861,2.861,0,0,1-.947-.777v3.818l-.858.119V42.1h.74l.074,1.125a3.135,3.135,0,0,1,1.043-.947,2.722,2.722,0,0,1,1.34-.341A2.373,2.373,0,0,1,142.118,42.976Zm-.777,5.454a4.539,4.539,0,0,0,.563-2.5q0-3.285-2.058-3.285A2.057,2.057,0,0,0,138.64,43a4.26,4.26,0,0,0-.97.977v4.114a2.342,2.342,0,0,0,2.043,1.184A1.837,1.837,0,0,0,141.341,48.43Z"/><path d="M150.48,42.99a4.542,4.542,0,0,1,.866,2.953,4.588,4.588,0,0,1-.881,2.968,3.218,3.218,0,0,1-4.81.014,4.569,4.569,0,0,1-.866-2.952,5.329,5.329,0,0,1,.4-2.146,2.98,2.98,0,0,1,2.885-1.895A2.938,2.938,0,0,1,150.48,42.99Zm-4.152.511a4.137,4.137,0,0,0-.621,2.472,4.14,4.14,0,0,0,.614,2.457,2.025,2.025,0,0,0,1.739.843,2.063,2.063,0,0,0,1.754-.843,4.131,4.131,0,0,0,.629-2.487,4.1,4.1,0,0,0-.615-2.449,2.242,2.242,0,0,0-3.5.007Z"/><path d="M157.946,42.1v.666L153.624,49.1h4.292l-.089.741h-5.21V49.17l4.323-6.335h-3.967V42.1Zm-.755-3.641.384.445-1.909,1.568h-.532L153.21,38.9l.385-.445L155.4,39.7Z"/><path d="M164.762,48.992a.942.942,0,0,0,.5.4l-.192.606a1.521,1.521,0,0,1-.822-.4,1.6,1.6,0,0,1-.378-.9,2.641,2.641,0,0,1-2.412,1.3,2.4,2.4,0,0,1-1.754-.629,2.24,2.24,0,0,1-.643-1.679,2.194,2.194,0,0,1,.85-1.851,3.807,3.807,0,0,1,2.361-.65h1.48v-.755a1.522,1.522,0,0,0-1.791-1.777,6.27,6.27,0,0,0-2.1.445l-.222-.652a6.633,6.633,0,0,1,2.441-.518,2.206,2.206,0,0,1,2.532,2.457v3.73A1.814,1.814,0,0,0,164.762,48.992Zm-1.014-1.051V45.81H162.4a3.009,3.009,0,0,0-1.806.459,1.6,1.6,0,0,0-.622,1.376,1.662,1.662,0,0,0,.43,1.229,1.619,1.619,0,0,0,1.2.429A2.349,2.349,0,0,0,163.748,47.941Z"/><path d="M173.249,38.943V49.836h-.739l-.1-1.185A2.547,2.547,0,0,1,170.082,50a2.483,2.483,0,0,1-2.124-1.073A4.9,4.9,0,0,1,167.182,46a5.726,5.726,0,0,1,.362-2.117A3.228,3.228,0,0,1,168.6,42.45a2.622,2.622,0,0,1,1.621-.518,2.691,2.691,0,0,1,2.175,1.051V38.839Zm-1.783,9.99a3.246,3.246,0,0,0,.925-1.081v-4.04a2.433,2.433,0,0,0-2.028-1.169,1.934,1.934,0,0,0-1.665.873,4.187,4.187,0,0,0-.6,2.471,4.443,4.443,0,0,0,.562,2.45,1.769,1.769,0,0,0,1.555.851A2.132,2.132,0,0,0,171.466,48.933Z"/><path d="M181.455,42.99a4.542,4.542,0,0,1,.866,2.953,4.588,4.588,0,0,1-.88,2.968,3.218,3.218,0,0,1-4.81.014,4.569,4.569,0,0,1-.866-2.952,5.347,5.347,0,0,1,.4-2.146,3.137,3.137,0,0,1,1.14-1.407,3.1,3.1,0,0,1,1.746-.488A2.937,2.937,0,0,1,181.455,42.99ZM177.3,43.5a4.137,4.137,0,0,0-.621,2.472,4.148,4.148,0,0,0,.613,2.457,2.025,2.025,0,0,0,1.739.843,2.063,2.063,0,0,0,1.754-.843,4.131,4.131,0,0,0,.629-2.487,4.108,4.108,0,0,0-.614-2.449,2.242,2.242,0,0,0-3.5.007Z"/><path d="M189.974,42.1,187.3,49.836h-1.066L183.461,42.1h.947l2.354,6.986,2.294-6.986Z"/><path d="M196.537,48.992a.949.949,0,0,0,.5.4l-.192.606a1.517,1.517,0,0,1-.821-.4,1.591,1.591,0,0,1-.378-.9A2.642,2.642,0,0,1,193.23,50a2.4,2.4,0,0,1-1.754-.629,2.237,2.237,0,0,1-.644-1.679,2.193,2.193,0,0,1,.851-1.851,3.8,3.8,0,0,1,2.36-.65h1.481v-.755a1.522,1.522,0,0,0-1.791-1.777,6.279,6.279,0,0,0-2.1.445l-.222-.652a6.638,6.638,0,0,1,2.442-.518,2.206,2.206,0,0,1,2.531,2.457v3.73A1.826,1.826,0,0,0,196.537,48.992Zm-1.013-1.051V45.81h-1.347a3.009,3.009,0,0,0-1.806.459,1.6,1.6,0,0,0-.622,1.376,1.666,1.666,0,0,0,.43,1.229,1.619,1.619,0,0,0,1.2.429A2.351,2.351,0,0,0,195.524,47.941Z"/><path d="M204.53,42.554a2.53,2.53,0,0,1,.554,1.746v5.536h-.858V44.419a2.059,2.059,0,0,0-.37-1.362,1.368,1.368,0,0,0-1.095-.429,2.2,2.2,0,0,0-1.311.407,4.472,4.472,0,0,0-1.087,1.191v5.61H199.5V42.1h.74l.089,1.317a3.644,3.644,0,0,1,1.125-1.088,2.789,2.789,0,0,1,1.465-.392A2.045,2.045,0,0,1,204.53,42.554Z"/><path d="M210.486,49.865a6.917,6.917,0,0,1-.681,1.48,3.11,3.11,0,0,1-.962.955,4.359,4.359,0,0,1-1.524.555l-.089-.666a4.1,4.1,0,0,0,1.206-.474,2.2,2.2,0,0,0,.7-.7,6.359,6.359,0,0,0,.525-1.176h-.3L206.667,42.1h.933l2.339,7.1,2.294-7.1h.9Zm.533-11.6.385.769-2.886,1.259-.281-.5Z"/><path d="M218.744,42.117a3.27,3.27,0,0,1,1.006.6l-.429.562a2.778,2.778,0,0,0-.791-.459,2.72,2.72,0,0,0-.925-.148,2.086,2.086,0,0,0-1.747.852A4.024,4.024,0,0,0,215.207,46a3.858,3.858,0,0,0,.644,2.427,2.1,2.1,0,0,0,1.739.814,2.587,2.587,0,0,0,.94-.163,3.5,3.5,0,0,0,.85-.489l.415.578a3.339,3.339,0,0,1-2.221.828,3.137,3.137,0,0,1-1.731-.474,3.087,3.087,0,0,1-1.147-1.368,5.144,5.144,0,0,1-.407-2.139,5.311,5.311,0,0,1,.407-2.153,3.26,3.26,0,0,1,1.147-1.428,2.974,2.974,0,0,1,1.717-.5A3.516,3.516,0,0,1,218.744,42.117Z"/><path d="M226.869,42.561a2.518,2.518,0,0,1,.563,1.739v5.536h-.859V44.419q0-1.791-1.464-1.791a2.2,2.2,0,0,0-1.311.407,4.474,4.474,0,0,0-1.088,1.191v5.61h-.858V38.943l.858-.1v4.544a3.066,3.066,0,0,1,2.561-1.451A2.034,2.034,0,0,1,226.869,42.561Z"/><path d="M239.931,42.976a5.258,5.258,0,0,1,.7,2.952,5.139,5.139,0,0,1-.762,2.968,2.492,2.492,0,0,1-2.182,1.1,2.723,2.723,0,0,1-1.259-.288,2.851,2.851,0,0,1-.947-.777v3.818l-.859.119V42.1h.74l.075,1.125a3.125,3.125,0,0,1,1.043-.947,2.718,2.718,0,0,1,1.339-.341A2.374,2.374,0,0,1,239.931,42.976Zm-.777,5.454a4.539,4.539,0,0,0,.562-2.5q0-3.285-2.058-3.285a2.06,2.06,0,0,0-1.206.355,4.257,4.257,0,0,0-.969.977v4.114a2.341,2.341,0,0,0,2.043,1.184A1.837,1.837,0,0,0,239.154,48.43Z"/><path d="M248.685,46.3H243.52a3.6,3.6,0,0,0,.718,2.243,2.144,2.144,0,0,0,1.694.732,2.9,2.9,0,0,0,1.073-.185,4.665,4.665,0,0,0,1.014-.585l.4.548a4.365,4.365,0,0,1-1.183.71,3.687,3.687,0,0,1-1.348.237,2.964,2.964,0,0,1-2.412-1.051,4.43,4.43,0,0,1-.873-2.915,5.688,5.688,0,0,1,.377-2.154,3.23,3.23,0,0,1,1.081-1.435,2.709,2.709,0,0,1,1.635-.511,2.667,2.667,0,0,1,2.25,1,4.406,4.406,0,0,1,.769,2.746Q248.714,46,248.685,46.3Zm-.815-.888a3.36,3.36,0,0,0-.54-2.034,1.865,1.865,0,0,0-1.605-.733,1.894,1.894,0,0,0-1.555.74,3.812,3.812,0,0,0-.65,2.249h4.35Z"/><path d="M256.181,42.554a2.531,2.531,0,0,1,.555,1.746v5.536h-.859V44.419a2.059,2.059,0,0,0-.37-1.362,1.367,1.367,0,0,0-1.095-.429,2.2,2.2,0,0,0-1.31.407,4.474,4.474,0,0,0-1.088,1.191v5.61h-.859V42.1h.741l.089,1.317a3.623,3.623,0,0,1,1.125-1.088,2.783,2.783,0,0,1,1.464-.392A2.043,2.043,0,0,1,256.181,42.554Z"/><path d="M265.261,46.3H260.1a3.6,3.6,0,0,0,.718,2.243,2.144,2.144,0,0,0,1.694.732,2.9,2.9,0,0,0,1.073-.185A4.665,4.665,0,0,0,264.6,48.5l.4.548a4.35,4.35,0,0,1-1.183.71,3.687,3.687,0,0,1-1.348.237,2.964,2.964,0,0,1-2.412-1.051,4.43,4.43,0,0,1-.873-2.915,5.688,5.688,0,0,1,.377-2.154,3.23,3.23,0,0,1,1.081-1.435,2.711,2.711,0,0,1,1.635-.511,2.667,2.667,0,0,1,2.25,1,4.406,4.406,0,0,1,.769,2.746Q265.29,46,265.261,46.3Zm-.815-.888a3.36,3.36,0,0,0-.54-2.034,1.865,1.865,0,0,0-1.605-.733,1.894,1.894,0,0,0-1.555.74,3.812,3.812,0,0,0-.65,2.249h4.35Zm-.339-6.956.384.445-1.909,1.568h-.533L260.125,38.9l.385-.445,1.806,1.243Z"/><path d="M271.817,42.1v.666L267.5,49.1h4.292l-.089.741h-5.21V49.17l4.323-6.335h-3.967V42.1Z"/><path d="M274.355,48.792a.674.674,0,0,1,.2.5.711.711,0,0,1-1.213.5.681.681,0,0,1-.207-.5.658.658,0,0,1,.207-.5.743.743,0,0,1,1.014,0Z"/><path d="M281.155,49.836V39.7h5.061l-.1.741h-4.07v3.951h3.507v.74h-3.507v4.707Z"/><path d="M288.571,38.869a.645.645,0,0,1,0,.888.644.644,0,0,1-.474.177.621.621,0,0,1-.459-.177.643.643,0,0,1,0-.888.622.622,0,0,1,.459-.178A.644.644,0,0,1,288.571,38.869ZM288.54,42.1v7.741h-.858V42.1Z"/><path d="M295.451,42.021l-.163.814a2.577,2.577,0,0,0-.68-.089,1.58,1.58,0,0,0-1.266.57,4.705,4.705,0,0,0-.807,1.784v4.736h-.858V42.1h.74l.074,1.732a3.1,3.1,0,0,1,.851-1.428,1.978,1.978,0,0,1,1.34-.467A2.845,2.845,0,0,1,295.451,42.021Z"/><path d="M306.219,42.569a2.594,2.594,0,0,1,.54,1.731v5.536H305.9V44.419a2.165,2.165,0,0,0-.348-1.354,1.172,1.172,0,0,0-.97-.437,1.818,1.818,0,0,0-1.169.415,4.768,4.768,0,0,0-1.007,1.183v5.61h-.858V44.419a2.159,2.159,0,0,0-.348-1.354,1.169,1.169,0,0,0-.969-.437,1.839,1.839,0,0,0-1.184.415,4.522,4.522,0,0,0-.992,1.183v5.61H297.2V42.1h.741l.074,1.317a3.535,3.535,0,0,1,1.051-1.088,2.4,2.4,0,0,1,1.332-.392,1.916,1.916,0,0,1,1.243.407,2.031,2.031,0,0,1,.681,1.133,3.7,3.7,0,0,1,1.073-1.133,2.4,2.4,0,0,1,1.354-.407A1.833,1.833,0,0,1,306.219,42.569Z"/><path d="M312.16,49.865a6.919,6.919,0,0,1-.68,1.48,3.12,3.12,0,0,1-.962.955,4.365,4.365,0,0,1-1.525.555l-.088-.666a4.1,4.1,0,0,0,1.206-.474,2.2,2.2,0,0,0,.7-.7,6.359,6.359,0,0,0,.525-1.176h-.3L308.342,42.1h.933l2.338,7.1,2.294-7.1h.9Z"/><path d="M324.578,42.117a3.27,3.27,0,0,1,1.006.6l-.429.562a2.769,2.769,0,0,0-.792-.459,2.71,2.71,0,0,0-.924-.148,2.086,2.086,0,0,0-1.747.852A4.024,4.024,0,0,0,321.041,46a3.858,3.858,0,0,0,.644,2.427,2.1,2.1,0,0,0,1.739.814,2.578,2.578,0,0,0,.939-.163,3.481,3.481,0,0,0,.851-.489l.415.578a3.339,3.339,0,0,1-2.221.828,3.137,3.137,0,0,1-1.731-.474,3.087,3.087,0,0,1-1.147-1.368,5.144,5.144,0,0,1-.407-2.139,5.311,5.311,0,0,1,.407-2.153,3.26,3.26,0,0,1,1.147-1.428,2.974,2.974,0,0,1,1.717-.5A3.516,3.516,0,0,1,324.578,42.117Z"/><path d="M332.7,42.561a2.518,2.518,0,0,1,.563,1.739v5.536h-.859V44.419q0-1.791-1.464-1.791a2.2,2.2,0,0,0-1.311.407,4.474,4.474,0,0,0-1.088,1.191v5.61h-.858V38.943l.858-.1v4.544a3.066,3.066,0,0,1,2.561-1.451A2.034,2.034,0,0,1,332.7,42.561Z"/><path d="M339.851,49.51a2.888,2.888,0,0,1-1.628.488,1.835,1.835,0,0,1-1.391-.525,2.106,2.106,0,0,1-.5-1.517V42.791h-1.3v-.7h1.3v-1.85l.859-.1V42.1h2l-.1.7h-1.894v5.121a1.541,1.541,0,0,0,.281,1.013,1.057,1.057,0,0,0,.858.333,2.359,2.359,0,0,0,1.185-.34Z"/><path d="M346.659,46.3h-5.165a3.6,3.6,0,0,0,.718,2.243,2.145,2.145,0,0,0,1.694.732,2.909,2.909,0,0,0,1.074-.185,4.684,4.684,0,0,0,1.013-.585l.4.548a4.37,4.37,0,0,1-1.184.71,3.678,3.678,0,0,1-1.347.237,2.965,2.965,0,0,1-2.413-1.051,4.43,4.43,0,0,1-.873-2.915,5.688,5.688,0,0,1,.377-2.154,3.237,3.237,0,0,1,1.081-1.435,2.711,2.711,0,0,1,1.635-.511,2.667,2.667,0,0,1,2.25,1,4.4,4.4,0,0,1,.77,2.746A6.153,6.153,0,0,1,346.659,46.3Zm-.814-.888a3.367,3.367,0,0,0-.54-2.034,1.867,1.867,0,0,0-1.606-.733,1.892,1.892,0,0,0-1.554.74,3.8,3.8,0,0,0-.651,2.249h4.351Zm-.34-6.956.385.445-1.909,1.568h-.534L341.524,38.9l.384-.445,1.806,1.243Z"/><path d="M349.419,49.628a1.5,1.5,0,0,1-.362-1.095v-9.59l.858-.1V48.5q0,.756.621.755a1.262,1.262,0,0,0,.534-.1l.236.636a1.958,1.958,0,0,1-.888.207A1.331,1.331,0,0,1,349.419,49.628Z"/><path d="M355.657,49.865a6.919,6.919,0,0,1-.68,1.48,3.12,3.12,0,0,1-.962.955,4.357,4.357,0,0,1-1.525.555l-.088-.666a4.1,4.1,0,0,0,1.206-.474,2.2,2.2,0,0,0,.7-.7,6.359,6.359,0,0,0,.525-1.176h-.3L351.839,42.1h.933l2.339,7.1,2.294-7.1h.9Z"/><path d="M366.993,39.994v9.842h-.858V40.941l-2.427,1.509-.4-.636,2.945-1.82Z"/><path d="M372.929,39.994v9.842h-.858V40.941l-2.427,1.509-.4-.636,2.946-1.82Z"/><path d="M381.1,41.126a7.431,7.431,0,0,1,.784,3.8,7.326,7.326,0,0,1-.792,3.781,2.7,2.7,0,0,1-4.61,0,7.421,7.421,0,0,1-.784-3.8,7.385,7.385,0,0,1,.784-3.789,2.71,2.71,0,0,1,4.618.008Zm-4.514,3.781q0,4.382,2.2,4.381a1.76,1.76,0,0,0,1.635-1.066,7.457,7.457,0,0,0,.556-3.3,7.515,7.515,0,0,0-.556-3.308,1.76,1.76,0,0,0-1.635-1.073Q376.584,40.541,376.584,44.907Z"/><path d="M397.578,42.569a2.588,2.588,0,0,1,.54,1.731v5.536h-.858V44.419a2.159,2.159,0,0,0-.348-1.354,1.17,1.17,0,0,0-.969-.437,1.814,1.814,0,0,0-1.169.415,4.727,4.727,0,0,0-1.007,1.183v5.61h-.859V44.419a2.165,2.165,0,0,0-.347-1.354,1.172,1.172,0,0,0-.97-.437,1.841,1.841,0,0,0-1.184.415,4.56,4.56,0,0,0-.992,1.183v5.61h-.858V42.1h.74l.074,1.317a3.547,3.547,0,0,1,1.051-1.088,2.408,2.408,0,0,1,1.332-.392,1.916,1.916,0,0,1,1.243.407,2.026,2.026,0,0,1,.681,1.133,3.716,3.716,0,0,1,1.073-1.133,2.4,2.4,0,0,1,1.355-.407A1.831,1.831,0,0,1,397.578,42.569Z"/><path d="M402.07,38.869a.645.645,0,0,1,0,.888.644.644,0,0,1-.474.177.621.621,0,0,1-.459-.177.643.643,0,0,1,0-.888.622.622,0,0,1,.459-.178A.644.644,0,0,1,402.07,38.869Zm-.031,3.226v7.741h-.858V42.1Z"/><polygon class="cls-4" points="421.816 144.375 392.44 144.375 392.44 173.383 421.816 173.383 421.816 144.375 421.816 144.375"/><polygon class="cls-4" points="423.407 200.04 392.44 200.04 392.44 228.864 423.407 228.864 423.407 200.04 423.407 200.04"/><polygon class="cls-4" points="401.865 255.542 392.44 255.542 392.44 284.366 401.865 284.366 401.865 255.542 401.865 255.542"/><polygon class="cls-4" points="403.089 311.023 392.44 311.023 392.44 340.031 403.089 340.031 403.089 311.023 403.089 311.023"/><polygon class="cls-4" points="392.44 366.687 410.188 366.687 410.188 395.512 392.44 395.512 392.44 366.687 392.44 366.687"/><polygon class="cls-4" points="397.336 422.168 392.44 422.168 392.44 451.176 397.336 451.176 397.336 422.168 397.336 422.168"/><polygon class="cls-4" points="409.698 477.833 392.44 477.833 392.44 506.657 409.698 506.657 409.698 477.833 409.698 477.833"/><polygon class="cls-6" points="382.771 144.375 392.44 144.375 392.44 173.383 382.771 173.383 382.771 144.375 382.771 144.375"/><polygon class="cls-6" points="372.367 200.04 392.44 200.04 392.44 228.864 372.367 228.864 372.367 200.04 372.367 200.04"/><polygon class="cls-6" points="384.484 255.542 392.44 255.542 392.44 284.366 384.484 284.366 384.484 255.542 384.484 255.542"/><polygon class="cls-6" points="377.018 311.023 392.44 311.023 392.44 340.031 377.018 340.031 377.018 311.023 377.018 311.023"/><polygon class="cls-6" points="224.388 366.687 392.44 366.687 392.44 395.512 224.388 395.512 224.388 366.687 224.388 366.687"/><polygon class="cls-6" points="341.155 422.168 392.44 422.168 392.44 451.176 341.155 451.176 341.155 422.168 341.155 422.168"/><polygon class="cls-6" points="3.459 477.833 392.44 477.833 392.44 506.657 3.459 506.657 3.459 477.833 3.459 477.833"/><path class="cls-3" d="M395.4,535.718a7.349,7.349,0,0,1,0,6.162,2.426,2.426,0,0,1-4.021,0,7.339,7.339,0,0,1,0-6.162,2.434,2.434,0,0,1,4.021,0Zm-3.168.582a8.428,8.428,0,0,0,0,5,1.248,1.248,0,0,0,2.309,0,8.3,8.3,0,0,0,0-4.992,1.25,1.25,0,0,0-2.309-.006Z"/><path class="cls-3" d="M284.029,534.944a2.1,2.1,0,0,1,1.146,1.908,3.147,3.147,0,0,1-.33,1.4,6.894,6.894,0,0,1-1.015,1.452q-.684.78-2.076,2.172h3.612l-.131.924h-4.741v-.876q1.609-1.668,2.281-2.442a6.9,6.9,0,0,0,.96-1.35,2.726,2.726,0,0,0,.288-1.236,1.234,1.234,0,0,0-1.321-1.332,1.768,1.768,0,0,0-.864.2,3.159,3.159,0,0,0-.792.672l-.72-.576a3.332,3.332,0,0,1,1.092-.912,2.971,2.971,0,0,1,1.345-.3A2.68,2.68,0,0,1,284.029,534.944Z"/><path class="cls-3" d="M291.325,535.718a7.339,7.339,0,0,1,0,6.162,2.425,2.425,0,0,1-4.02,0,7.339,7.339,0,0,1,0-6.162,2.433,2.433,0,0,1,4.02,0Zm-3.168.582a8.45,8.45,0,0,0,0,5,1.249,1.249,0,0,0,2.31,0,8.3,8.3,0,0,0,0-4.992,1.251,1.251,0,0,0-2.31-.006Z"/><path class="cls-3" d="M177.483,539.948v.876h-1.044v1.98H175.37v-1.98h-3.431v-.792l2.411-5.376.925.384-2.173,4.908h2.28l.1-2.16h.961v2.16Z"/><path class="cls-3" d="M183.2,535.718a7.339,7.339,0,0,1,0,6.162,2.425,2.425,0,0,1-4.02,0,7.339,7.339,0,0,1,0-6.162,2.433,2.433,0,0,1,4.02,0Zm-3.168.582a8.45,8.45,0,0,0,0,5,1.249,1.249,0,0,0,2.31,0,8.3,8.3,0,0,0,0-4.992,1.251,1.251,0,0,0-2.31-.006Z"/><path class="cls-3" d="M47.649,537.812a2.051,2.051,0,0,1,.8.864,3.01,3.01,0,0,1,.3,1.4,3.2,3.2,0,0,1-.342,1.506,2.514,2.514,0,0,1-.923,1.008,2.44,2.44,0,0,1-1.291.354,2.241,2.241,0,0,1-2.052-1.038,5.414,5.414,0,0,1-.648-2.874,6.612,6.612,0,0,1,.366-2.3,3.429,3.429,0,0,1,1.05-1.536,2.518,2.518,0,0,1,1.62-.546,2.937,2.937,0,0,1,1.656.492l-.432.732a2.309,2.309,0,0,0-1.236-.348,1.537,1.537,0,0,0-1.367.828,4.554,4.554,0,0,0-.553,2.22,2.268,2.268,0,0,1,1.932-1.056A2.209,2.209,0,0,1,47.649,537.812Zm-.384,3.732a2.438,2.438,0,0,0,.372-1.428q0-1.716-1.3-1.716a1.725,1.725,0,0,0-.972.294,2.5,2.5,0,0,0-.756.81,4.084,4.084,0,0,0,.415,1.944,1.27,1.27,0,0,0,1.169.624A1.227,1.227,0,0,0,47.265,541.544Z"/><path class="cls-3" d="M54.591,535.718a7.339,7.339,0,0,1,0,6.162,2.425,2.425,0,0,1-4.02,0,7.339,7.339,0,0,1,0-6.162,2.433,2.433,0,0,1,4.02,0Zm-3.168.582a8.428,8.428,0,0,0,0,5,1.249,1.249,0,0,0,2.31,0,8.325,8.325,0,0,0,0-4.992,1.251,1.251,0,0,0-2.31-.006Z"/><path class="cls-3" d="M67.845,536.858a2.039,2.039,0,0,1,.468,1.41V542.8H67.208v-4.38q0-1.224-.887-1.224a1.194,1.194,0,0,0-.792.27,3.778,3.778,0,0,0-.7.846V542.8h-1.1v-4.38q0-1.224-.888-1.224a1.2,1.2,0,0,0-.8.276,3.81,3.81,0,0,0-.683.84V542.8H60.248V536.48H61.2l.1.924a2.119,2.119,0,0,1,1.824-1.068,1.659,1.659,0,0,1,1,.3,1.634,1.634,0,0,1,.594.84,2.985,2.985,0,0,1,.822-.846,1.9,1.9,0,0,1,1.063-.294A1.6,1.6,0,0,1,67.845,536.858Z"/><path class="cls-3" d="M70.826,542.582a1.419,1.419,0,0,1-.353-1.026v-7.62l1.1-.132v7.728a.646.646,0,0,0,.091.384.357.357,0,0,0,.306.12,1.1,1.1,0,0,0,.408-.072l.288.768a1.8,1.8,0,0,1-.876.216A1.285,1.285,0,0,1,70.826,542.582Z"/><path class="cls-3" d="M78.885,533.936V542.8h-.972l-.108-.876a2.288,2.288,0,0,1-.78.75,2.174,2.174,0,0,1-2.8-.618,4.052,4.052,0,0,1-.63-2.388,4.657,4.657,0,0,1,.3-1.728,2.675,2.675,0,0,1,.864-1.182,2.126,2.126,0,0,1,1.319-.426,2.267,2.267,0,0,1,1.7.78V533.8Zm-1.8,7.9a2.693,2.693,0,0,0,.7-.7v-3.1a2.377,2.377,0,0,0-.666-.618,1.528,1.528,0,0,0-.8-.21,1.279,1.279,0,0,0-1.134.612,3.341,3.341,0,0,0-.4,1.824,3.531,3.531,0,0,0,.373,1.824,1.186,1.186,0,0,0,1.068.6A1.551,1.551,0,0,0,77.085,541.838Z"/><path class="cls-3" d="M82.053,541.52a.8.8,0,0,1,.239.588.823.823,0,0,1-.239.594.8.8,0,0,1-.6.246.793.793,0,0,1-.588-.246.82.82,0,0,1-.24-.594.82.82,0,0,1,.828-.828A.815.815,0,0,1,82.053,541.52Z"/><path class="cls-3" d="M88.425,534.536V542.8h-1.14v-8.268Zm4.5,0-3.132,3.78,3.361,4.488H91.749l-3.263-4.416,3.143-3.852Z"/><path class="cls-3" d="M97.46,536.5a2.884,2.884,0,0,1,.9.522l-.529.7a2.687,2.687,0,0,0-.653-.354,2.068,2.068,0,0,0-.7-.114,1.374,1.374,0,0,0-1.2.612,3.174,3.174,0,0,0-.425,1.812,2.991,2.991,0,0,0,.42,1.77,1.4,1.4,0,0,0,1.2.57,1.974,1.974,0,0,0,.683-.114,3.482,3.482,0,0,0,.7-.366l.5.72a3,3,0,0,1-1.932.7,2.521,2.521,0,0,1-2.023-.864,3.561,3.561,0,0,1-.738-2.388A4.31,4.31,0,0,1,94,537.932a2.721,2.721,0,0,1,.954-1.176,2.555,2.555,0,0,1,1.471-.42A3.127,3.127,0,0,1,97.46,536.5Zm.517-3.114.468.54-1.621,1.356h-.731l-1.633-1.356.481-.54,1.511,1.008Z"/><line class="cls-2" x1="70.778" y1="131.058" x2="70.778" y2="519.996"/><line class="cls-2" x1="177.999" y1="131.058" x2="177.999" y2="519.996"/><line class="cls-2" x1="285.22" y1="131.058" x2="285.22" y2="519.996"/><path class="cls-3" d="M96.14,386.887H94.864l-.333-4.354q-.207-2.562-.234-3.934l-2.066,7.2H91l-2.177-7.209q0,1.749-.18,4.045l-.319,4.256H87.075l.79-9.646h1.774l2.01,7.014,1.913-7.014H95.35Z"/><path class="cls-3" d="M103.389,385.83a.921.921,0,0,0,.457.329l-.291.9a1.932,1.932,0,0,1-.914-.322,1.465,1.465,0,0,1-.514-.784,2.441,2.441,0,0,1-2.176,1.106,2.321,2.321,0,0,1-1.7-.616,2.16,2.16,0,0,1-.623-1.61,2.122,2.122,0,0,1,.838-1.805,3.889,3.889,0,0,1,2.377-.631h1.123v-.546a1.446,1.446,0,0,0-.374-1.12,1.682,1.682,0,0,0-1.15-.336,6.381,6.381,0,0,0-1.968.392l-.319-.938a7.287,7.287,0,0,1,2.522-.5,2.624,2.624,0,0,1,1.927.637,2.452,2.452,0,0,1,.638,1.813v3.374A1.161,1.161,0,0,0,103.389,385.83Zm-1.428-.889v-1.694H101q-2.023,0-2.023,1.512a1.391,1.391,0,0,0,.319.994,1.237,1.237,0,0,0,.942.336A1.9,1.9,0,0,0,101.961,384.941Z"/><path class="cls-3" d="M106.057,386.628a1.652,1.652,0,0,1-.409-1.2v-8.89l1.274-.154V385.4a.754.754,0,0,0,.105.448.408.408,0,0,0,.353.14,1.256,1.256,0,0,0,.472-.084l.332.9a2.064,2.064,0,0,1-1.012.252A1.467,1.467,0,0,1,106.057,386.628Z"/><path class="cls-3" d="M115.2,383.639h-4.656a2.884,2.884,0,0,0,.61,1.792,1.756,1.756,0,0,0,1.357.574,2.93,2.93,0,0,0,.971-.154,3.823,3.823,0,0,0,.928-.49l.555.77a4.012,4.012,0,0,1-2.55.924,2.943,2.943,0,0,1-2.377-1.008,4.161,4.161,0,0,1-.853-2.772,5.317,5.317,0,0,1,.367-2.037,3.2,3.2,0,0,1,1.054-1.393,2.652,2.652,0,0,1,1.614-.5,2.7,2.7,0,0,1,2.232.966,4.158,4.158,0,0,1,.776,2.675Q115.225,383.3,115.2,383.639Zm-1.233-1.036a2.745,2.745,0,0,0-.43-1.666,1.507,1.507,0,0,0-1.289-.574q-1.566,0-1.7,2.324h3.423Zm-.61-6.93.568,1.078-2.937,1.2-.389-.686Z"/><path class="cls-3" d="M126.008,385.83a.926.926,0,0,0,.457.329l-.291.9a1.932,1.932,0,0,1-.914-.322,1.475,1.475,0,0,1-.513-.784,2.443,2.443,0,0,1-2.176,1.106,2.318,2.318,0,0,1-1.7-.616,2.161,2.161,0,0,1-.624-1.61,2.12,2.12,0,0,1,.839-1.805,3.887,3.887,0,0,1,2.377-.631h1.122v-.546a1.45,1.45,0,0,0-.373-1.12,1.684,1.684,0,0,0-1.15-.336,6.381,6.381,0,0,0-1.969.392l-.318-.938a7.277,7.277,0,0,1,2.521-.5,2.627,2.627,0,0,1,1.928.637,2.456,2.456,0,0,1,.637,1.813v3.374A1.161,1.161,0,0,0,126.008,385.83Zm-1.428-.889v-1.694h-.956q-2.022,0-2.023,1.512a1.391,1.391,0,0,0,.319.994,1.237,1.237,0,0,0,.942.336A1.9,1.9,0,0,0,124.58,384.941Z"/><path class="cls-3" d="M135.475,379.551a4.078,4.078,0,0,1,1.137.63l-.541.812a4.458,4.458,0,0,0-.95-.476,2.931,2.931,0,0,0-.949-.154,1.661,1.661,0,0,0-.984.259.881.881,0,0,0-.022,1.407,3.917,3.917,0,0,0,1.227.49,4.364,4.364,0,0,1,1.823.84,1.846,1.846,0,0,1,.6,1.457,1.9,1.9,0,0,1-.838,1.666,3.541,3.541,0,0,1-2.045.573,4.012,4.012,0,0,1-2.758-.966l.68-.784a3.283,3.283,0,0,0,2.05.714,1.93,1.93,0,0,0,1.143-.3.952.952,0,0,0,.424-.819,1.086,1.086,0,0,0-.153-.609,1.242,1.242,0,0,0-.527-.406,7.332,7.332,0,0,0-1.095-.371,3.716,3.716,0,0,1-1.684-.826,1.781,1.781,0,0,1-.52-1.316,1.742,1.742,0,0,1,.34-1.043,2.219,2.219,0,0,1,.943-.728,3.4,3.4,0,0,1,1.351-.259A4.039,4.039,0,0,1,135.475,379.551Z"/><path class="cls-3" d="M142.307,386.551a2.787,2.787,0,0,1-1.635.5,1.919,1.919,0,0,1-1.449-.539,2.162,2.162,0,0,1-.52-1.561V380.5h-1.275v-.994H138.7v-1.666l1.276-.154v1.82h1.732l-.139.994h-1.593v4.4a1.359,1.359,0,0,0,.2.833.8.8,0,0,0,.672.259,2.072,2.072,0,0,0,.97-.294Z"/><path class="cls-3" d="M147.366,375.9l.54.63-1.871,1.582h-.845l-1.885-1.582.555-.63,1.746,1.176Zm.153,3.528-.236,1.26a2.6,2.6,0,0,0-.637-.084,1.349,1.349,0,0,0-1.095.5,3.781,3.781,0,0,0-.652,1.568v4.214h-1.275v-7.378h1.095l.125,1.5a2.8,2.8,0,0,1,.789-1.246,1.763,1.763,0,0,1,1.165-.42A2.94,2.94,0,0,1,147.519,379.425Z"/><path class="cls-3" d="M154.046,383.639h-4.657a2.9,2.9,0,0,0,.61,1.792,1.759,1.759,0,0,0,1.359.574,2.93,2.93,0,0,0,.969-.154,3.828,3.828,0,0,0,.929-.49l.555.77a4.016,4.016,0,0,1-2.551.924,2.944,2.944,0,0,1-2.377-1.008,4.161,4.161,0,0,1-.852-2.772,5.3,5.3,0,0,1,.368-2.037,3.19,3.19,0,0,1,1.052-1.393,2.654,2.654,0,0,1,1.616-.5,2.694,2.694,0,0,1,2.23.966,4.159,4.159,0,0,1,.777,2.675Q154.074,383.3,154.046,383.639Zm-1.233-1.036a2.752,2.752,0,0,0-.43-1.666,1.511,1.511,0,0,0-1.289-.574q-1.567,0-1.7,2.324h3.424Z"/><path class="cls-3" d="M161.766,376.541v10.346h-1.122l-.125-1.022a2.635,2.635,0,0,1-.9.875,2.493,2.493,0,0,1-3.236-.721,4.769,4.769,0,0,1-.726-2.786,5.5,5.5,0,0,1,.345-2.016,3.133,3.133,0,0,1,1-1.379,2.448,2.448,0,0,1,1.526-.5,2.607,2.607,0,0,1,1.966.91v-3.864Zm-2.078,9.219a3.1,3.1,0,0,0,.8-.819v-3.612a2.788,2.788,0,0,0-.768-.721,1.763,1.763,0,0,0-.922-.245,1.478,1.478,0,0,0-1.31.714,3.948,3.948,0,0,0-.464,2.128,4.159,4.159,0,0,0,.429,2.128,1.369,1.369,0,0,0,1.235.7A1.782,1.782,0,0,0,159.688,385.76Z"/><path class="cls-3" d="M169.4,379.943a2.329,2.329,0,0,1,.561,1.652v5.292h-1.275v-5.11a1.648,1.648,0,0,0-.291-1.106,1.1,1.1,0,0,0-.86-.322,1.653,1.653,0,0,0-1.025.336,3.517,3.517,0,0,0-.832.966v5.236H164.4v-7.378h1.094l.112,1.092a2.877,2.877,0,0,1,.963-.924,2.463,2.463,0,0,1,1.267-.336A2.029,2.029,0,0,1,169.4,379.943Z"/><path class="cls-3" d="M174.254,375.673l.568,1.078-2.938,1.2-.388-.686Zm-.457,3.836v7.378h-1.275v-7.378Z"/><path class="cls-3" d="M183.672,376.513a4.683,4.683,0,0,1,.963.378l-.443.9a3.485,3.485,0,0,0-1.539-.35,1.47,1.47,0,0,0-1.012.266,1.1,1.1,0,0,0-.277.826v.98h4.076v7.378h-1.276V380.5h-2.8v6.384h-1.275V380.5h-1.164v-.994h1.164v-.966a2.053,2.053,0,0,1,.624-1.568,2.683,2.683,0,0,1,1.9-.588A4.153,4.153,0,0,1,183.672,376.513Z"/><path class="cls-3" d="M191.967,379.425l-.236,1.26a2.6,2.6,0,0,0-.637-.084,1.353,1.353,0,0,0-1.1.5,3.756,3.756,0,0,0-.65,1.568v4.214h-1.276v-7.378h1.095l.125,1.5a2.811,2.811,0,0,1,.79-1.246,1.757,1.757,0,0,1,1.164-.42A2.946,2.946,0,0,1,191.967,379.425Z"/><path class="cls-3" d="M202.2,379.95a2.388,2.388,0,0,1,.541,1.645v5.292h-1.276v-5.11q0-1.428-1.025-1.428a1.371,1.371,0,0,0-.915.315,4.4,4.4,0,0,0-.8.987v5.236h-1.275v-5.11q0-1.428-1.026-1.428a1.376,1.376,0,0,0-.928.322,4.411,4.411,0,0,0-.791.98v5.236h-1.275v-7.378h1.1l.11,1.078a2.443,2.443,0,0,1,2.107-1.246,1.836,1.836,0,0,1,1.843,1.33,3.462,3.462,0,0,1,.95-.987,2.178,2.178,0,0,1,1.226-.343A1.837,1.837,0,0,1,202.2,379.95Z"/><path class="cls-3" d="M208.127,386.929a4.975,4.975,0,0,1-1.2,2.037,3.6,3.6,0,0,1-2.2.9l-.139-1.008a3.734,3.734,0,0,0,1.15-.364,2.008,2.008,0,0,0,.686-.609,4.28,4.28,0,0,0,.478-1h-.429l-2.453-7.378h1.357l1.955,6.44,1.912-6.44h1.317Z"/><path class="cls-3" d="M291.153,486.039l-4.367,9.646h-1.4l-1.7-9.646h1.358l1.22,8.2,3.534-8.2Z"/><path class="cls-3" d="M295.6,492.059a10.548,10.548,0,0,1-3.493.882q.042,1.834,1.58,1.834a2.9,2.9,0,0,0,.983-.168,4.1,4.1,0,0,0,.971-.518l.541.868a4.377,4.377,0,0,1-2.62.9,2.656,2.656,0,0,1-2.058-.791,3.135,3.135,0,0,1-.728-2.2,6.576,6.576,0,0,1,.381-2.191,4.123,4.123,0,0,1,1.227-1.806,3.189,3.189,0,0,1,2.147-.721,2.463,2.463,0,0,1,1.713.546,1.729,1.729,0,0,1,.6,1.33A2.13,2.13,0,0,1,295.6,492.059Zm-.895-.7a1.36,1.36,0,0,0,.811-1.3.932.932,0,0,0-.236-.616.942.942,0,0,0-.762-.28,1.862,1.862,0,0,0-1.621.812,4.4,4.4,0,0,0-.721,1.988A7.978,7.978,0,0,0,294.707,491.359Z"/><path class="cls-3" d="M299.412,494.243a1.109,1.109,0,0,0-.013.182.381.381,0,0,0,.084.28.352.352,0,0,0,.262.084,1.61,1.61,0,0,0,.5-.1l.264.924a2.455,2.455,0,0,1-1.012.238,1.348,1.348,0,0,1-.991-.35,1.4,1.4,0,0,1-.353-1.036c0-.084.008-.229.028-.434l1.219-8.694,1.275-.154Z"/><path class="cls-3" d="M304.112,489.6a3.618,3.618,0,0,1,1.15-1.092,2.667,2.667,0,0,1,1.344-.364,1.785,1.785,0,0,1,1.275.469,1.587,1.587,0,0,1,.5,1.211,2.352,2.352,0,0,1-.568,1.568,3.606,3.606,0,0,1-1.691,1.036l1.649,3.262h-1.413l-1.747-3.6a4.891,4.891,0,0,0,1.857-.861,1.606,1.606,0,0,0,.568-1.267.716.716,0,0,0-.789-.8,2.021,2.021,0,0,0-1.275.539,4.1,4.1,0,0,0-1.1,1.561l-.609,4.424H302l1.442-10.346,1.275-.154Z"/><path class="cls-3" d="M314.313,492.059a10.548,10.548,0,0,1-3.493.882q.042,1.834,1.58,1.834a2.9,2.9,0,0,0,.983-.168,4.116,4.116,0,0,0,.971-.518l.541.868a4.38,4.38,0,0,1-2.62.9,2.656,2.656,0,0,1-2.058-.791,3.135,3.135,0,0,1-.729-2.2,6.552,6.552,0,0,1,.382-2.191,4.123,4.123,0,0,1,1.227-1.806,3.189,3.189,0,0,1,2.147-.721,2.463,2.463,0,0,1,1.713.546,1.729,1.729,0,0,1,.6,1.33A2.13,2.13,0,0,1,314.313,492.059Zm-.895-.7a1.36,1.36,0,0,0,.811-1.3.932.932,0,0,0-.236-.616.942.942,0,0,0-.762-.28,1.861,1.861,0,0,0-1.621.812,4.39,4.39,0,0,0-.721,1.988A7.978,7.978,0,0,0,313.418,491.359Zm1.338-6.888.416,1.078-3.05,1.2-.291-.686Z"/><path class="cls-3" d="M325.746,495.685h-1.275l.887-6.384h-2.786l-.832,5.978a4.884,4.884,0,0,1-.463,1.631,2.879,2.879,0,0,1-.846.987,7.6,7.6,0,0,1-1.421.77l-.359-.966a5.145,5.145,0,0,0,.92-.518,1.949,1.949,0,0,0,.569-.7,4,4,0,0,0,.34-1.2l.831-5.978h-1.289l.138-.994h1.289l.153-1.05a2.24,2.24,0,0,1,.818-1.512,2.847,2.847,0,0,1,1.844-.56,3.329,3.329,0,0,1,1.094.168,4.129,4.129,0,0,1,.929.462l-.485.854a2.818,2.818,0,0,0-1.5-.448,1.655,1.655,0,0,0-1.039.273,1.19,1.19,0,0,0-.416.833l-.139.98h4.061Z"/><path class="cls-3" d="M333.231,488.237l-.375,1.246a2.349,2.349,0,0,0-.6-.07,1.515,1.515,0,0,0-1.185.595,5.537,5.537,0,0,0-.908,1.771l-.554,3.906h-1.261l1.025-7.378h1.082l-.084,1.512a3.4,3.4,0,0,1,.949-1.26,1.893,1.893,0,0,1,1.172-.42A3.025,3.025,0,0,1,333.231,488.237Z"/><path class="cls-3" d="M343.175,488.636a1.954,1.954,0,0,1,.437,1.337,2.876,2.876,0,0,1-.028.462l-.734,5.25h-1.262l.721-5.152a2.834,2.834,0,0,0,.027-.434.915.915,0,0,0-.207-.693.835.835,0,0,0-.582-.189,1.449,1.449,0,0,0-1.04.553,7.7,7.7,0,0,0-1.025,1.463l-.624,4.452H337.6l.721-5.152a2.7,2.7,0,0,0,.028-.434.915.915,0,0,0-.208-.693.834.834,0,0,0-.582-.189,1.442,1.442,0,0,0-1.039.56,7.778,7.778,0,0,0-1.026,1.484l-.6,4.424h-1.261l1.025-7.378h1.081l-.111,1.414a4.789,4.789,0,0,1,1.116-1.176,2.147,2.147,0,0,1,1.268-.406,1.543,1.543,0,0,1,1.054.392,1.727,1.727,0,0,1,.54,1.106,4.533,4.533,0,0,1,1.144-1.12,2.284,2.284,0,0,1,1.254-.378A1.482,1.482,0,0,1,343.175,488.636Z"/><path class="cls-3" d="M348.24,495.755a5.407,5.407,0,0,1-1.468,2.016,4.307,4.307,0,0,1-2.342.9l-.056-1.008a4.2,4.2,0,0,0,1.212-.364,2.554,2.554,0,0,0,.783-.609,5.494,5.494,0,0,0,.653-1h-.472l-1.4-7.378h1.33l1.025,6.4,2.8-6.4h1.317Z"/><circle class="cls-7" cx="392.44" cy="106.418" r="1.312"/><path class="cls-8" d="M177.751,593.119v.962l-4.03,6.955h4.017l-.13,1.027H172.4V601.1l4.055-6.981H172.8v-1Z"/><path class="cls-8" d="M183.835,592.456v9.607H182.8l-.078-.9a2.017,2.017,0,0,1-1.781,1.066,1.959,1.959,0,0,1-1.736-.949,4.756,4.756,0,0,1-.617-2.613,5.433,5.433,0,0,1,.305-1.9,2.867,2.867,0,0,1,.865-1.268,2.042,2.042,0,0,1,2.912.371v-3.549Zm-1.813,8.593a2.611,2.611,0,0,0,.643-.767V596.85a1.657,1.657,0,0,0-1.365-.871,1.229,1.229,0,0,0-1.092.663,3.855,3.855,0,0,0-.39,2,4.273,4.273,0,0,0,.364,2.015,1.129,1.129,0,0,0,1.027.65A1.311,1.311,0,0,0,182.022,601.049Z"/><path class="cls-8" d="M189.333,595.147l-.194,1.131a1.766,1.766,0,0,0-.533-.078,1.128,1.128,0,0,0-.93.455,3.509,3.509,0,0,0-.565,1.391v4.017h-1.17v-6.838h1.013l.092,1.352q.507-1.507,1.7-1.508A1.945,1.945,0,0,1,189.333,595.147Z"/><path class="cls-8" d="M194.533,595.979a5.118,5.118,0,0,1-.012,5.285,2.66,2.66,0,0,1-4.089.019,5.1,5.1,0,0,1,.007-5.284,2.712,2.712,0,0,1,4.094-.02Zm-3.211.656a3.9,3.9,0,0,0-.4,2.009q0,2.666,1.561,2.665t1.559-2.678a3.968,3.968,0,0,0-.389-2,1.273,1.273,0,0,0-1.158-.637A1.3,1.3,0,0,0,191.322,596.635Z"/><path class="cls-8" d="M198.121,601.79a3.788,3.788,0,0,1-.227,1.423,2.216,2.216,0,0,1-.65.9,5.646,5.646,0,0,1-1.137.683l-.365-.845a3.069,3.069,0,0,0,.7-.468,1.487,1.487,0,0,0,.376-.624,3.373,3.373,0,0,0,.13-1.04v-6.591h1.17Zm-.032-9.568a.754.754,0,0,1,.214.546.782.782,0,0,1-1.319.54.732.732,0,0,1-.214-.54.754.754,0,0,1,.214-.546.8.8,0,0,1,1.1,0Z"/><path class="cls-8" d="M208.145,592.456v9.607h-1.04l-.078-.9a2.019,2.019,0,0,1-1.782,1.066,1.956,1.956,0,0,1-1.735-.949,4.756,4.756,0,0,1-.617-2.613,5.434,5.434,0,0,1,.3-1.9,2.877,2.877,0,0,1,.866-1.268,2.042,2.042,0,0,1,2.912.371v-3.549Zm-1.814,8.593a2.6,2.6,0,0,0,.644-.767V596.85a1.659,1.659,0,0,0-1.365-.871,1.227,1.227,0,0,0-1.092.663,3.844,3.844,0,0,0-.391,2,4.273,4.273,0,0,0,.364,2.015,1.13,1.13,0,0,0,1.028.65A1.308,1.308,0,0,0,206.331,601.049Z"/><path class="cls-8" d="M214.631,601.121a.73.73,0,0,0,.364.305l-.247.793a1.624,1.624,0,0,1-.793-.312,1.283,1.283,0,0,1-.4-.715,2.088,2.088,0,0,1-1.858,1.04,1.889,1.889,0,0,1-1.444-.565,2.12,2.12,0,0,1-.533-1.515,2,2,0,0,1,.715-1.664,3.2,3.2,0,0,1,2.041-.572h.885v-.585a1.506,1.506,0,0,0-.293-1.034,1.252,1.252,0,0,0-.955-.318,4.749,4.749,0,0,0-1.664.364l-.287-.819a5.657,5.657,0,0,1,2.132-.468,1.964,1.964,0,0,1,2.223,2.223V600.5A1.271,1.271,0,0,0,214.631,601.121Zm-1.273-.839V598.67H212.6q-1.689,0-1.69,1.417a1.416,1.416,0,0,0,.273.936.961.961,0,0,0,.78.325A1.519,1.519,0,0,0,213.358,600.282Z"/><path class="cls-8" d="M219.858,601.764a2.416,2.416,0,0,1-1.444.468,1.667,1.667,0,0,1-1.28-.481,1.905,1.905,0,0,1-.448-1.352v-4.29h-.976v-.884h.976v-1.573l1.17-.143v1.716h1.507l-.129.884h-1.378v4.277q0,.885.74.884a1.237,1.237,0,0,0,.41-.065,2.624,2.624,0,0,0,.422-.2Z"/><path class="cls-8" d="M221.826,595.985a.814.814,0,0,1,.228.579.833.833,0,0,1-.228.585.763.763,0,0,1-.59.247.753.753,0,0,1-.58-.247.837.837,0,0,1-.227-.585.817.817,0,0,1,.227-.579.765.765,0,0,1,.58-.24A.775.775,0,0,1,221.826,595.985Zm0,4.836a.814.814,0,0,1,.228.579.833.833,0,0,1-.228.585.766.766,0,0,1-.59.247.757.757,0,0,1-.58-.247.837.837,0,0,1-.227-.585.817.817,0,0,1,.227-.579.765.765,0,0,1,.58-.24A.775.775,0,0,1,221.826,600.821Z"/><path class="cls-8" d="M231.154,595.979a5.121,5.121,0,0,1-.013,5.285,2.66,2.66,0,0,1-4.089.019,5.1,5.1,0,0,1,.007-5.284,2.713,2.713,0,0,1,4.095-.02Zm-3.211.656a3.885,3.885,0,0,0-.4,2.009q0,2.666,1.561,2.665t1.559-2.678a3.957,3.957,0,0,0-.389-2,1.273,1.273,0,0,0-1.157-.637A1.3,1.3,0,0,0,227.943,596.635Z"/><path class="cls-8" d="M238.434,592.456v9.607h-1.04l-.078-.9a2.017,2.017,0,0,1-1.782,1.066,1.957,1.957,0,0,1-1.735-.949,4.765,4.765,0,0,1-.617-2.613,5.386,5.386,0,0,1,.306-1.9,2.858,2.858,0,0,1,.864-1.268,2.042,2.042,0,0,1,2.912.371v-3.549Zm-1.814,8.593a2.583,2.583,0,0,0,.644-.767V596.85a1.657,1.657,0,0,0-1.365-.871,1.229,1.229,0,0,0-1.092.663,3.855,3.855,0,0,0-.39,2,4.287,4.287,0,0,0,.363,2.015,1.131,1.131,0,0,0,1.028.65A1.306,1.306,0,0,0,236.62,601.049Z"/><path class="cls-8" d="M245.174,595.979a5.082,5.082,0,0,1,.565,2.639,4.807,4.807,0,0,1-.63,2.639,1.986,1.986,0,0,1-1.761.975,1.963,1.963,0,0,1-1.639-.819v3.25l-1.17.143v-9.581h1.028l.064.923a2.129,2.129,0,0,1,1.859-1.092A1.849,1.849,0,0,1,245.174,595.979Zm-.656,2.652a4.59,4.59,0,0,0-.332-2.022,1.076,1.076,0,0,0-1.007-.63,1.28,1.28,0,0,0-.807.273,3.138,3.138,0,0,0-.663.741v3.458a1.577,1.577,0,0,0,1.365.845Q244.517,601.3,244.518,598.631Z"/><path class="cls-8" d="M251.875,595.979a5.118,5.118,0,0,1-.012,5.285,2.66,2.66,0,0,1-4.089.019A5.1,5.1,0,0,1,247.78,596a2.713,2.713,0,0,1,4.095-.02Zm-3.211.656a3.9,3.9,0,0,0-.4,2.009q0,2.666,1.559,2.665t1.56-2.678a3.956,3.956,0,0,0-.39-2,1.271,1.271,0,0,0-1.157-.637A1.3,1.3,0,0,0,248.664,596.635Z"/><path class="cls-8" d="M258.857,595.225l-2.041,6.838h-1.4l-2.1-6.838h1.222l1.585,5.85,1.574-5.85Z"/><path class="cls-8" d="M264.745,599.047h-3.978a2.952,2.952,0,0,0,.481,1.723,1.428,1.428,0,0,0,1.17.526,2.3,2.3,0,0,0,.839-.143,2.948,2.948,0,0,0,.773-.468l.52.689a3.192,3.192,0,0,1-2.184.858,2.492,2.492,0,0,1-2.074-.93,4.11,4.11,0,0,1-.734-2.606,4.485,4.485,0,0,1,.7-2.658,2.262,2.262,0,0,1,1.95-.982,2.237,2.237,0,0,1,1.9.878,4.086,4.086,0,0,1,.663,2.5Q264.771,598.709,264.745,599.047Zm-1.04-7.163.455.52-1.573,1.508h-.727l-1.574-1.508.455-.52,1.482,1.144Zm-.065,6.2q0-2.145-1.417-2.145a1.187,1.187,0,0,0-1.027.54,3.389,3.389,0,0,0-.429,1.748h2.873Z"/><path class="cls-8" d="M271.258,592.456v9.607h-1.04l-.078-.9a2.016,2.016,0,0,1-1.781,1.066,1.957,1.957,0,0,1-1.736-.949,4.765,4.765,0,0,1-.617-2.613,5.409,5.409,0,0,1,.306-1.9,2.858,2.858,0,0,1,.864-1.268,2.042,2.042,0,0,1,2.912.371v-3.549Zm-1.813,8.593a2.6,2.6,0,0,0,.643-.767V596.85a1.657,1.657,0,0,0-1.365-.871,1.23,1.23,0,0,0-1.092.663,3.875,3.875,0,0,0-.39,2,4.286,4.286,0,0,0,.364,2.015,1.13,1.13,0,0,0,1.027.65A1.309,1.309,0,0,0,269.445,601.049Z"/><path class="cls-8" d="M274.5,592.222a.754.754,0,0,1-.553,1.3.743.743,0,0,1-.551-.214.729.729,0,0,1-.215-.54.75.75,0,0,1,.215-.546.8.8,0,0,1,1.1,0Zm.032,3v6.838h-1.17v-6.838Z"/><path class="cls-8" d="M287.17,602.063h-1.157l-.274-4.043q-.181-2.716-.194-3.744l-1.717,6.773H282.7l-1.793-6.773q.012,1.131-.143,3.77l-.26,4.017h-1.144l.689-8.944h1.572l1.664,6.617,1.6-6.617h1.6Z"/><path class="cls-8" d="M292.3,593.21a3.647,3.647,0,0,1,1.111.78l-.61.689a3.358,3.358,0,0,0-.878-.578,2.338,2.338,0,0,0-.942-.189,1.5,1.5,0,0,0-1.047.358,1.208,1.208,0,0,0-.4.942,1.351,1.351,0,0,0,.157.669,1.432,1.432,0,0,0,.533.508,5.678,5.678,0,0,0,1.065.461,6.578,6.578,0,0,1,1.3.611,2.231,2.231,0,0,1,.779.832,2.964,2.964,0,0,1-.078,2.646,2.451,2.451,0,0,1-1.007.949,3.277,3.277,0,0,1-1.541.344,3.727,3.727,0,0,1-2.768-1.17l.637-.689a3.885,3.885,0,0,0,.981.656,2.65,2.65,0,0,0,1.111.228,1.715,1.715,0,0,0,1.229-.436,1.575,1.575,0,0,0,.462-1.2,1.47,1.47,0,0,0-.37-1.053,3.478,3.478,0,0,0-1.36-.728,4.568,4.568,0,0,1-1.813-1.027,2.126,2.126,0,0,1-.552-1.521,2.227,2.227,0,0,1,1.261-2.041,2.982,2.982,0,0,1,1.351-.3A3.419,3.419,0,0,1,292.3,593.21Z"/><path class="cls-8" d="M296.452,593.119v8.944h-1.209v-8.944Zm4.394,0-3.029,4.082,3.237,4.862h-1.391l-3.159-4.784,3.055-4.16Z"/><path class="cls-8" d="M302.939,600.815a.8.8,0,0,1,.22.572,1.308,1.308,0,0,1-.057.377c-.039.13-.1.316-.189.559l-.716,1.833h-.727l.48-2.067a.781.781,0,0,1-.377-.689.809.809,0,0,1,.228-.585.774.774,0,0,1,.579-.234A.737.737,0,0,1,302.939,600.815Z"/><path class="cls-8" d="M313.468,599.437a2.624,2.624,0,0,1-2.859,2.795,2.776,2.776,0,0,1-2.12-.773,2.833,2.833,0,0,1-.728-2.022v-6.318h1.209v6.24q0,1.885,1.639,1.885t1.637-1.885v-6.24h1.222Zm-1.937-9.178.5.949-2.523,1.027-.311-.611Z"/><path class="cls-8" d="M316.745,593.119v8.944h-1.209v-8.944Zm4.394,0L318.11,597.2l3.237,4.862h-1.391l-3.159-4.784,3.055-4.16Z"/><path class="cls-8" d="M323.232,600.815a.8.8,0,0,1,.22.572,1.308,1.308,0,0,1-.057.377c-.039.13-.1.316-.189.559l-.716,1.833h-.727l.48-2.067a.781.781,0,0,1-.377-.689.809.809,0,0,1,.228-.585.774.774,0,0,1,.579-.234A.737.737,0,0,1,323.232,600.815Z"/><path class="cls-8" d="M329.394,593.119v8.944h-1.209v-8.944Zm4.393,0-3.029,4.082L334,602.063h-1.39l-3.159-4.784,3.054-4.16Z"/><path class="cls-8" d="M340.469,593.119,338,602.063h-1.443l-2.509-8.944H335.3l2,7.774,1.977-7.774Z"/><path class="cls-8" d="M342.887,593.119v8.944h-1.209v-8.944Zm4.393,0-3.029,4.082,3.237,4.862H346.1l-3.159-4.784,3.054-4.16Z"/><path class="cls-8" d="M356.42,591.572v11.817h-1.093V591.572Z"/><path class="cls-8" d="M370.8,593.119l-2.47,8.944h-1.443l-2.509-8.944h1.248l2,7.774,1.977-7.774Z"/><path class="cls-8" d="M373.091,592.222a.754.754,0,0,1-.553,1.3.743.743,0,0,1-.551-.214.729.729,0,0,1-.215-.54.75.75,0,0,1,.215-.546.8.8,0,0,1,1.1,0Zm.032,3v6.838h-1.17v-6.838Z"/><path class="cls-8" d="M378.961,595.225v.871l-3.237,5h3.25l-.117.962h-4.42v-.871l3.237-5H374.71v-.962Z"/><path class="cls-8" d="M384.954,602.063h-1.013l-.066-1.027a2.154,2.154,0,0,1-1.911,1.2,1.622,1.622,0,0,1-1.287-.533,2.109,2.109,0,0,1-.468-1.443v-5.031h1.17v4.927a1.376,1.376,0,0,0,.228.877.825.825,0,0,0,.682.28q.87,0,1.5-1.144v-4.94h1.17Z"/><path class="cls-8" d="M391.441,601.121a.73.73,0,0,0,.364.305l-.247.793a1.62,1.62,0,0,1-.793-.312,1.271,1.271,0,0,1-.4-.715,2.092,2.092,0,0,1-1.86,1.04,1.888,1.888,0,0,1-1.443-.565,2.116,2.116,0,0,1-.533-1.515,2,2,0,0,1,.715-1.664,3.2,3.2,0,0,1,2.041-.572h.884v-.585a1.5,1.5,0,0,0-.293-1.034,1.247,1.247,0,0,0-.955-.318,4.767,4.767,0,0,0-1.664.364l-.286-.819a5.661,5.661,0,0,1,2.132-.468,1.965,1.965,0,0,1,2.223,2.223V600.5A1.271,1.271,0,0,0,391.441,601.121Zm-1.274-.839V598.67h-.754q-1.691,0-1.69,1.417a1.416,1.416,0,0,0,.273.936.961.961,0,0,0,.78.325A1.516,1.516,0,0,0,390.167,600.282Z"/><path class="cls-8" d="M393.6,601.855a1.455,1.455,0,0,1-.363-1.053v-8.346l1.17-.13v8.437c0,.338.138.507.416.507a1.08,1.08,0,0,0,.376-.078l.26.819a1.833,1.833,0,0,1-.871.221A1.307,1.307,0,0,1,393.6,601.855Z"/><path class="cls-8" d="M397.869,592.222a.8.8,0,0,1,.007,1.086.828.828,0,0,1-1.111,0,.729.729,0,0,1-.215-.54.75.75,0,0,1,.215-.546.8.8,0,0,1,1.1,0Zm.033,3v6.838h-1.17v-6.838Z"/><path class="cls-8" d="M403.738,595.225v.871l-3.237,5h3.25l-.117.962h-4.42v-.871l3.237-5h-2.963v-.962Z"/></svg>