<svg id="Layer_1" data-name="Layer 1" xmlns="http://www.w3.org/2000/svg" viewBox="0 0 403 617.429"><defs><style>.cls-1{fill:#333;}.cls-2{fill:#108aa0;}.cls-3{fill:#666;}.cls-4{isolation:isolate;}.cls-5{fill:#ccc;}.cls-6{fill:#999;}</style></defs><path class="cls-1" d="M104.767,144.956V154.6H103.45v-9.646Zm5.2,0-3.618,4.41,3.881,5.236h-1.622l-3.77-5.152,3.632-4.494Z"/><path class="cls-1" d="M115.439,147.14,115.2,148.4a2.642,2.642,0,0,0-.637-.083,1.349,1.349,0,0,0-1.095.5,3.773,3.773,0,0,0-.652,1.569V154.6h-1.274v-7.378h1.095l.125,1.5a2.79,2.79,0,0,1,.789-1.246,1.754,1.754,0,0,1,1.165-.42A2.932,2.932,0,0,1,115.439,147.14Z"/><path class="cls-1" d="M121.482,153.545a.932.932,0,0,0,.457.329l-.291.9a1.949,1.949,0,0,1-.915-.322,1.478,1.478,0,0,1-.512-.784,2.445,2.445,0,0,1-2.176,1.106,2.316,2.316,0,0,1-1.7-.617,2.158,2.158,0,0,1-.624-1.609,2.121,2.121,0,0,1,.839-1.806,3.885,3.885,0,0,1,2.377-.631h1.123v-.545a1.449,1.449,0,0,0-.374-1.121,1.69,1.69,0,0,0-1.151-.335,6.356,6.356,0,0,0-1.968.392l-.319-.938a7.283,7.283,0,0,1,2.523-.5,2.622,2.622,0,0,1,1.926.636,2.453,2.453,0,0,1,.637,1.813v3.374A1.166,1.166,0,0,0,121.482,153.545Zm-1.427-.889v-1.695H119.1q-2.023,0-2.024,1.513a1.391,1.391,0,0,0,.32.994,1.239,1.239,0,0,0,.942.336A1.9,1.9,0,0,0,120.055,152.656Z"/><path class="cls-1" d="M125.058,154.153a4.435,4.435,0,0,1-.25,1.639,2.428,2.428,0,0,1-.728,1,6.415,6.415,0,0,1-1.337.776l-.374-.938a3.831,3.831,0,0,0,.831-.5,1.471,1.471,0,0,0,.437-.686,4.044,4.044,0,0,0,.145-1.211v-7.014h1.276Zm.013-10.219a.861.861,0,0,1,.25.63.837.837,0,0,1-.25.623.89.89,0,0,1-.651.245.873.873,0,0,1-.638-.245.836.836,0,0,1-.249-.623.857.857,0,0,1,.887-.882A.875.875,0,0,1,125.071,143.934Z"/><path class="cls-1" d="M133.18,151.354h-4.658a2.892,2.892,0,0,0,.611,1.792,1.76,1.76,0,0,0,1.357.574,2.934,2.934,0,0,0,.971-.154,3.918,3.918,0,0,0,.929-.49l.554.77a4.019,4.019,0,0,1-2.55.924,2.943,2.943,0,0,1-2.377-1.008,4.158,4.158,0,0,1-.853-2.772,5.313,5.313,0,0,1,.367-2.037,3.2,3.2,0,0,1,1.054-1.393,2.65,2.65,0,0,1,1.614-.5,2.7,2.7,0,0,1,2.232.966,4.161,4.161,0,0,1,.776,2.674Q133.207,151.017,133.18,151.354Zm-1.234-1.037a2.752,2.752,0,0,0-.429-1.666,1.511,1.511,0,0,0-1.289-.573q-1.568,0-1.706,2.323h3.424Z"/><path class="cls-2" d="M343.521,143.749v9.436H341.6v-7.476l-2.052,1.273-.859-1.343,3.1-1.89Z"/><path class="cls-2" d="M349.605,143.749v9.436H347.68v-7.476l-2.052,1.273-.859-1.343,3.1-1.89Z"/><path class="cls-3" d="M359.89,145.863v.63l-4.047,5.991h4.019l-.083.7H354.9v-.63l4.047-5.992h-3.715v-.7Z"/><path class="cls-3" d="M366.861,149.838h-4.837a3.437,3.437,0,0,0,.672,2.122,2,2,0,0,0,1.587.692,2.7,2.7,0,0,0,1-.174,4.417,4.417,0,0,0,.95-.553l.373.517a4.088,4.088,0,0,1-1.108.673,3.422,3.422,0,0,1-1.261.223,2.768,2.768,0,0,1-2.26-.993,4.229,4.229,0,0,1-.817-2.759,5.422,5.422,0,0,1,.353-2.036,3.066,3.066,0,0,1,1.012-1.359,2.525,2.525,0,0,1,1.532-.482,2.486,2.486,0,0,1,2.106.945,4.191,4.191,0,0,1,.721,2.6A5.79,5.79,0,0,1,366.861,149.838ZM366.1,149a3.219,3.219,0,0,0-.506-1.925,1.743,1.743,0,0,0-1.5-.694,1.767,1.767,0,0,0-1.456.7,3.625,3.625,0,0,0-.61,2.128H366.1Z"/><path class="cls-3" d="M376.494,143.763v9.422h-1.747v-7.617l-2.079,1.275-.775-1.2,3.035-1.876Z"/><path class="cls-3" d="M385.087,149.657v1.372h-1.122v2.156h-1.733v-2.156h-3.964V149.8l2.716-6.215,1.511.574-2.384,5.5h2.135l.18-2.366h1.539v2.366Z"/><path class="cls-3" d="M395.544,146.7a5.019,5.019,0,0,1,.658,2.793,4.88,4.88,0,0,1-.714,2.806,2.325,2.325,0,0,1-2.044,1.043,2.521,2.521,0,0,1-1.178-.272,2.657,2.657,0,0,1-.887-.735v3.611l-.8.113V145.863h.693l.07,1.064a2.94,2.94,0,0,1,.976-.9,2.521,2.521,0,0,1,1.254-.322A2.216,2.216,0,0,1,395.544,146.7Zm-.728,5.159a4.318,4.318,0,0,0,.527-2.366q0-3.108-1.927-3.109a1.912,1.912,0,0,0-1.129.337,4.013,4.013,0,0,0-.908.924v3.892a2.187,2.187,0,0,0,1.912,1.119A1.714,1.714,0,0,0,394.816,151.855Z"/><path class="cls-3" d="M403.375,146.71a4.32,4.32,0,0,1,.811,2.793,4.372,4.372,0,0,1-.825,2.807,3,3,0,0,1-4.5.014,4.364,4.364,0,0,1-.81-2.793,5.086,5.086,0,0,1,.374-2.03,2.961,2.961,0,0,1,1.067-1.331,2.887,2.887,0,0,1,1.636-.461A2.739,2.739,0,0,1,403.375,146.71Zm-3.888.482a4.988,4.988,0,0,0-.007,4.663,1.888,1.888,0,0,0,1.629.8,1.924,1.924,0,0,0,1.642-.8,4.977,4.977,0,0,0,.015-4.669,2.09,2.09,0,0,0-3.279.006Z"/><path class="cls-2" d="M147.047,98.033h-1.095l-.1-1.148a2.776,2.776,0,0,1-.956,1,2.569,2.569,0,0,1-1.316.315,1.931,1.931,0,0,1-1.5-.588,2.374,2.374,0,0,1-.54-1.666V90.655h1.274v5.152a1.683,1.683,0,0,0,.264,1.071,1.061,1.061,0,0,0,.859.315,2.168,2.168,0,0,0,1.829-1.273V90.655h1.276ZM145.4,86.819l.569,1.078-2.939,1.2-.387-.686Z"/><path class="cls-2" d="M153.007,90.7a4.064,4.064,0,0,1,1.137.63l-.541.812a4.458,4.458,0,0,0-.95-.476,2.931,2.931,0,0,0-.949-.154,1.661,1.661,0,0,0-.984.259.881.881,0,0,0-.021,1.407,3.9,3.9,0,0,0,1.227.49,4.365,4.365,0,0,1,1.822.84,1.842,1.842,0,0,1,.6,1.456,1.9,1.9,0,0,1-.838,1.667,3.541,3.541,0,0,1-2.045.573,4.014,4.014,0,0,1-2.758-.966l.68-.784a3.283,3.283,0,0,0,2.05.714,1.935,1.935,0,0,0,1.144-.3.954.954,0,0,0,.423-.819,1.086,1.086,0,0,0-.153-.609,1.242,1.242,0,0,0-.527-.406,7.251,7.251,0,0,0-1.095-.371,3.712,3.712,0,0,1-1.683-.826,1.778,1.778,0,0,1-.521-1.316,1.742,1.742,0,0,1,.34-1.043,2.219,2.219,0,0,1,.943-.728,3.4,3.4,0,0,1,1.351-.259A4.035,4.035,0,0,1,153.007,90.7Z"/><path class="cls-2" d="M161.559,91.5a5.239,5.239,0,0,1,.651,2.842,4.767,4.767,0,0,1-.749,2.8,2.437,2.437,0,0,1-2.12,1.064,2.344,2.344,0,0,1-1.913-.84v3.5l-1.275.154V90.655h1.095l.1.994a2.809,2.809,0,0,1,.97-.861,2.506,2.506,0,0,1,1.192-.3A2.267,2.267,0,0,1,161.559,91.5Zm-.721,2.842q0-2.828-1.65-2.828a1.642,1.642,0,0,0-.984.322,3.138,3.138,0,0,0-.776.826v3.6a1.922,1.922,0,0,0,.693.665,1.851,1.851,0,0,0,.915.231Q160.837,97.151,160.838,94.337Z"/><path class="cls-2" d="M169.874,94.785h-4.657a2.89,2.89,0,0,0,.61,1.792,1.758,1.758,0,0,0,1.358.574,2.932,2.932,0,0,0,.97-.154,3.828,3.828,0,0,0,.929-.49l.555.77a4.016,4.016,0,0,1-2.551.924,2.943,2.943,0,0,1-2.377-1.008,4.161,4.161,0,0,1-.853-2.772,5.3,5.3,0,0,1,.368-2.037,3.2,3.2,0,0,1,1.053-1.393,2.651,2.651,0,0,1,1.615-.5,2.7,2.7,0,0,1,2.231.966,4.158,4.158,0,0,1,.776,2.675C169.9,94.342,169.893,94.561,169.874,94.785ZM168.7,87.043l.541.63-1.871,1.582h-.845l-1.885-1.582.554-.63,1.747,1.176Zm-.054,6.706a2.752,2.752,0,0,0-.43-1.666,1.511,1.511,0,0,0-1.289-.574q-1.567,0-1.7,2.324h3.424Z"/><path class="cls-2" d="M175.266,90.7a4.045,4.045,0,0,1,1.136.63l-.541.812a4.452,4.452,0,0,0-.949-.476,2.936,2.936,0,0,0-.949-.154,1.661,1.661,0,0,0-.984.259.881.881,0,0,0-.021,1.407,3.9,3.9,0,0,0,1.227.49,4.371,4.371,0,0,1,1.822.84,1.842,1.842,0,0,1,.6,1.456,1.9,1.9,0,0,1-.838,1.667,3.536,3.536,0,0,1-2.044.573,4.014,4.014,0,0,1-2.758-.966l.679-.784a3.288,3.288,0,0,0,2.051.714,1.935,1.935,0,0,0,1.144-.3.954.954,0,0,0,.423-.819,1.086,1.086,0,0,0-.153-.609,1.242,1.242,0,0,0-.527-.406,7.251,7.251,0,0,0-1.095-.371,3.706,3.706,0,0,1-1.683-.826,1.778,1.778,0,0,1-.521-1.316,1.736,1.736,0,0,1,.34-1.043,2.222,2.222,0,0,1,.942-.728,3.409,3.409,0,0,1,1.352-.259A4.035,4.035,0,0,1,175.266,90.7Zm.512-3.654.54.63-1.871,1.582H173.6l-1.886-1.582.554-.63,1.747,1.176Z"/><path class="cls-2" d="M183.408,91.089a2.33,2.33,0,0,1,.562,1.652v5.292h-1.276v-5.11a1.643,1.643,0,0,0-.291-1.106,1.1,1.1,0,0,0-.859-.322,1.649,1.649,0,0,0-1.025.336,3.483,3.483,0,0,0-.832.966v5.236h-1.275V90.655h1.095l.11,1.092a2.9,2.9,0,0,1,.964-.924,2.467,2.467,0,0,1,1.268-.336A2.027,2.027,0,0,1,183.408,91.089Z"/><path class="cls-2" d="M191.669,91.524a4.3,4.3,0,0,1,.852,2.813,4.94,4.94,0,0,1-.388,2.023,3.068,3.068,0,0,1-1.122,1.358,3.109,3.109,0,0,1-1.746.483,2.943,2.943,0,0,1-2.4-1.036,4.271,4.271,0,0,1-.859-2.814,4.947,4.947,0,0,1,.389-2.023,3.054,3.054,0,0,1,1.122-1.358,3.139,3.139,0,0,1,1.76-.483A2.923,2.923,0,0,1,191.669,91.524Zm-4.29,2.827q0,2.814,1.886,2.814t1.884-2.828q0-2.814-1.871-2.813Q187.379,91.524,187.379,94.351Z"/><path class="cls-2" d="M197.954,90.7a4.036,4.036,0,0,1,1.137.63l-.54.812a4.458,4.458,0,0,0-.95-.476,2.933,2.933,0,0,0-.95-.154,1.661,1.661,0,0,0-.984.259.883.883,0,0,0-.021,1.407,3.917,3.917,0,0,0,1.227.49,4.364,4.364,0,0,1,1.823.84,1.842,1.842,0,0,1,.6,1.456,1.894,1.894,0,0,1-.839,1.667,3.536,3.536,0,0,1-2.044.573,4.015,4.015,0,0,1-2.758-.966l.679-.784a3.288,3.288,0,0,0,2.052.714,1.931,1.931,0,0,0,1.142-.3.951.951,0,0,0,.423-.819,1.094,1.094,0,0,0-.152-.609,1.248,1.248,0,0,0-.527-.406,7.353,7.353,0,0,0-1.094-.371,3.715,3.715,0,0,1-1.685-.826,1.777,1.777,0,0,1-.519-1.316,1.741,1.741,0,0,1,.339-1.043,2.207,2.207,0,0,1,.943-.728,3.4,3.4,0,0,1,1.351-.259A4.025,4.025,0,0,1,197.954,90.7Z"/><path class="cls-2" d="M204.787,97.7a2.783,2.783,0,0,1-1.636.5,1.915,1.915,0,0,1-1.448-.539,2.157,2.157,0,0,1-.519-1.561V91.649h-1.276v-.994h1.276V88.989l1.274-.154v1.82h1.733l-.138.994h-1.595v4.4a1.365,1.365,0,0,0,.2.833.8.8,0,0,0,.673.259,2.078,2.078,0,0,0,.97-.294Z"/><path class="cls-2" d="M214.06,90.655v.98l-3.812,5.32H214.1l-.153,1.078h-5.141v-.966l3.8-5.32h-3.479V90.655Zm-.805-3.612.541.63-1.871,1.582h-.846l-1.885-1.582.555-.63,1.746,1.176Z"/><path class="cls-2" d="M220.7,96.976a.926.926,0,0,0,.457.329l-.291.9a1.936,1.936,0,0,1-.914-.322,1.467,1.467,0,0,1-.512-.784,2.444,2.444,0,0,1-2.177,1.106,2.315,2.315,0,0,1-1.7-.616,2.161,2.161,0,0,1-.624-1.61,2.12,2.12,0,0,1,.838-1.8,3.887,3.887,0,0,1,2.377-.631h1.123v-.546a1.443,1.443,0,0,0-.375-1.12,1.679,1.679,0,0,0-1.15-.336,6.386,6.386,0,0,0-1.968.392l-.319-.938a7.287,7.287,0,0,1,2.522-.5,2.623,2.623,0,0,1,1.927.637,2.452,2.452,0,0,1,.638,1.813v3.374A1.169,1.169,0,0,0,220.7,96.976Zm-1.677-10.157.569,1.078-2.939,1.2-.388-.686Zm.25,9.268V94.393h-.957q-2.023,0-2.023,1.512a1.39,1.39,0,0,0,.318.994,1.242,1.242,0,0,0,.943.336A1.9,1.9,0,0,0,219.271,96.087Z"/><path class="cls-2" d="M228.82,87.687V98.033H227.7l-.125-1.022a2.647,2.647,0,0,1-.9.875,2.493,2.493,0,0,1-3.236-.721,4.754,4.754,0,0,1-.728-2.786,5.462,5.462,0,0,1,.347-2.016,3.116,3.116,0,0,1,1-1.379,2.443,2.443,0,0,1,1.525-.5,2.614,2.614,0,0,1,1.968.91V87.533Zm-2.079,9.219a3.121,3.121,0,0,0,.8-.819V92.475a2.779,2.779,0,0,0-.77-.721,1.76,1.76,0,0,0-.921-.245,1.476,1.476,0,0,0-1.31.714,3.939,3.939,0,0,0-.464,2.128,4.147,4.147,0,0,0,.43,2.128,1.365,1.365,0,0,0,1.233.7A1.777,1.777,0,0,0,226.741,96.906Z"/><path class="cls-2" d="M236.588,91.524a4.3,4.3,0,0,1,.852,2.813,4.94,4.94,0,0,1-.387,2.023,3.064,3.064,0,0,1-1.123,1.358,3.107,3.107,0,0,1-1.746.483,2.941,2.941,0,0,1-2.4-1.036,4.271,4.271,0,0,1-.859-2.814,4.963,4.963,0,0,1,.387-2.023,3.064,3.064,0,0,1,1.124-1.358,3.136,3.136,0,0,1,1.759-.483A2.921,2.921,0,0,1,236.588,91.524ZM232.3,94.351q0,2.814,1.885,2.814t1.884-2.828q0-2.814-1.871-2.813Q232.3,91.524,232.3,94.351Z"/><path class="cls-2" d="M242.874,90.7a4.05,4.05,0,0,1,1.137.63l-.541.812a4.476,4.476,0,0,0-.949-.476,2.942,2.942,0,0,0-.95-.154,1.661,1.661,0,0,0-.984.259.883.883,0,0,0-.021,1.407,3.9,3.9,0,0,0,1.227.49,4.365,4.365,0,0,1,1.822.84,1.839,1.839,0,0,1,.6,1.456,1.9,1.9,0,0,1-.838,1.667,3.539,3.539,0,0,1-2.045.573,4.017,4.017,0,0,1-2.758-.966l.68-.784a3.285,3.285,0,0,0,2.051.714,1.934,1.934,0,0,0,1.143-.3.954.954,0,0,0,.423-.819,1.094,1.094,0,0,0-.152-.609,1.252,1.252,0,0,0-.528-.406,7.271,7.271,0,0,0-1.094-.371,3.711,3.711,0,0,1-1.684-.826,1.777,1.777,0,0,1-.52-1.316,1.741,1.741,0,0,1,.339-1.043,2.219,2.219,0,0,1,.943-.728,3.4,3.4,0,0,1,1.351-.259A4.031,4.031,0,0,1,242.874,90.7Z"/><path class="cls-2" d="M249.707,97.7a2.783,2.783,0,0,1-1.636.5,1.915,1.915,0,0,1-1.448-.539A2.157,2.157,0,0,1,246.1,96.1V91.649h-1.276v-.994H246.1V88.989l1.274-.154v1.82h1.733l-.138.994h-1.6v4.4a1.365,1.365,0,0,0,.2.833.8.8,0,0,0,.673.259,2.078,2.078,0,0,0,.97-.294Z"/><path class="cls-2" d="M252.756,86.819l.568,1.078-2.938,1.2L250,88.415Zm-.457,3.836v7.378h-1.276V90.655Z"/><path class="cls-2" d="M380.733,203.175a2.7,2.7,0,0,1,.532,1.656,2.809,2.809,0,0,1-.492,1.608,3.276,3.276,0,0,1-1.41,1.144,5.183,5.183,0,0,1-2.154.416,4.987,4.987,0,0,1-2.106-.416,3.281,3.281,0,0,1-1.386-1.128,2.748,2.748,0,0,1-.484-1.576,2.9,2.9,0,0,1,2.012-2.72,2.815,2.815,0,0,1-1.584-2.544,2.481,2.481,0,0,1,.476-1.512,3.049,3.049,0,0,1,1.291-1,4.579,4.579,0,0,1,1.829-.352,4.3,4.3,0,0,1,2.574.736,2.368,2.368,0,0,1,1.022,2.032,2.756,2.756,0,0,1-1.743,2.432A4.187,4.187,0,0,1,380.733,203.175Zm-2.185,2.744a1.428,1.428,0,0,0,.451-1.1,1.482,1.482,0,0,0-.4-1.088,3.953,3.953,0,0,0-1.411-.768l-.506-.176a2.1,2.1,0,0,0-1.189,2,1.431,1.431,0,0,0,.476,1.136,1.9,1.9,0,0,0,1.3.416A1.812,1.812,0,0,0,378.548,205.919Zm-2.32-7.272a1.28,1.28,0,0,0-.381,1,1.311,1.311,0,0,0,.348.952,3.217,3.217,0,0,0,1.11.664l.316.112a2.436,2.436,0,0,0,.808-.776,1.9,1.9,0,0,0,.238-.968,1.3,1.3,0,0,0-.365-.968,1.4,1.4,0,0,0-1.03-.36A1.5,1.5,0,0,0,376.228,198.647Z"/><path class="cls-3" d="M391.561,194.9l.792.208-3.676,14.24-.792-.208Z"/><path class="cls-3" d="M403.772,197.039v10.7h-1.457v-9.136l-2.471,1.52-.634-1.04,3.279-2.048Z"/><path class="cls-2" d="M155.583,143.818v.967l-3.466,8.54-1.164-.392,3.341-8.064h-4.1v-1.051Z"/><path class="cls-2" d="M161.57,144.651a4.223,4.223,0,0,1,.762,2.667,7.786,7.786,0,0,1-.512,3.088,4.211,4.211,0,0,1-1.566,1.862,10.857,10.857,0,0,1-2.856,1.225l-.291-.967a7.014,7.014,0,0,0,2.848-1.441,3.356,3.356,0,0,0,1.061-2.422,2.484,2.484,0,0,1-3.382.749,2.56,2.56,0,0,1-.921-1.051,3.5,3.5,0,0,1-.34-1.588,3.248,3.248,0,0,1,.4-1.652,2.757,2.757,0,0,1,1.074-1.071,3.022,3.022,0,0,1,1.49-.371A2.664,2.664,0,0,1,161.57,144.651Zm-.527,2.962a4.371,4.371,0,0,0-.381-2.234,1.4,1.4,0,0,0-1.3-.678,1.532,1.532,0,0,0-1.262.546,2.407,2.407,0,0,0-.443,1.554,2.253,2.253,0,0,0,.416,1.476,1.383,1.383,0,0,0,1.122.5A2.168,2.168,0,0,0,161.043,147.613Z"/><path class="cls-2" d="M171.2,144.323a2.665,2.665,0,0,1,0,3.444,2.362,2.362,0,0,1-3.242,0,2.665,2.665,0,0,1,0-3.444,2.362,2.362,0,0,1,3.242,0Zm-2.494.644a2.383,2.383,0,0,0,0,2.149.929.929,0,0,0,.866.427q1.123,0,1.122-1.5a2.086,2.086,0,0,0-.249-1.071,1.1,1.1,0,0,0-1.739-.007Zm6.493-1.736.888.587-6.418,9.8-.887-.588Zm1.705,6.034a2.688,2.688,0,0,1,0,3.444,2.158,2.158,0,0,1-1.622.644,2.183,2.183,0,0,1-1.629-.644,2.672,2.672,0,0,1,0-3.444,2.183,2.183,0,0,1,1.629-.644A2.158,2.158,0,0,1,176.9,149.265Zm-2.488.651a2,2,0,0,0-.257,1.07,2.053,2.053,0,0,0,.257,1.072.93.93,0,0,0,.866.426q1.122,0,1.123-1.5a2.066,2.066,0,0,0-.25-1.064,1.117,1.117,0,0,0-1.739-.006Z"/><path class="cls-2" d="M156.8,209.7v1.022H155.6v2.31h-1.234v-2.31H150.4V209.8l2.788-6.272,1.066.448-2.508,5.726h2.633l.111-2.52H155.6v2.52Z"/><path class="cls-2" d="M161.563,203.865a2.454,2.454,0,0,1,.978.917,2.518,2.518,0,0,1,.346,1.309,3.7,3.7,0,0,1-.381,1.638,8.013,8.013,0,0,1-1.171,1.694q-.789.911-2.4,2.534h4.171l-.152,1.078h-5.475v-1.022q1.859-1.946,2.633-2.849a8.041,8.041,0,0,0,1.11-1.575,3.227,3.227,0,0,0,.332-1.442,1.538,1.538,0,0,0-.416-1.141,1.507,1.507,0,0,0-1.109-.413,2.021,2.021,0,0,0-1,.238,3.683,3.683,0,0,0-.915.784l-.831-.672a3.833,3.833,0,0,1,1.261-1.064,3.4,3.4,0,0,1,1.553-.35A3.058,3.058,0,0,1,161.563,203.865Z"/><path class="cls-2" d="M171.973,204.173a2.665,2.665,0,0,1,0,3.444,2.365,2.365,0,0,1-3.244,0,2.665,2.665,0,0,1,0-3.444,2.365,2.365,0,0,1,3.244,0Zm-2.5.644a2.375,2.375,0,0,0,0,2.149.927.927,0,0,0,.866.427q1.122,0,1.123-1.5a2.1,2.1,0,0,0-.25-1.071,1.1,1.1,0,0,0-1.739-.007Zm6.493-1.736.886.588-6.417,9.8-.886-.588Zm1.7,6.034a2.691,2.691,0,0,1,0,3.444,2.372,2.372,0,0,1-3.25,0,2.665,2.665,0,0,1,0-3.444,2.372,2.372,0,0,1,3.25,0Zm-2.488.651a2.008,2.008,0,0,0-.256,1.071,2.046,2.046,0,0,0,.256,1.071.926.926,0,0,0,.866.427q1.124,0,1.123-1.5a2.061,2.061,0,0,0-.249-1.064,1.117,1.117,0,0,0-1.74-.007Z"/><path class="cls-2" d="M156.8,269.554v1.022H155.6v2.31h-1.234v-2.31H150.4v-.924l2.788-6.272,1.066.448-2.508,5.726h2.633l.111-2.52H155.6v2.52Z"/><path class="cls-2" d="M163.406,264.619a8.642,8.642,0,0,1,0,7.189,2.785,2.785,0,0,1-4.642,0,8.632,8.632,0,0,1,0-7.189,2.793,2.793,0,0,1,4.642,0Zm-3.658.679a9.944,9.944,0,0,0,0,5.831,1.437,1.437,0,0,0,2.668,0,9.792,9.792,0,0,0,0-5.824,1.439,1.439,0,0,0-2.668-.007Z"/><path class="cls-2" d="M173.123,264.024a2.665,2.665,0,0,1,0,3.444,2.365,2.365,0,0,1-3.244,0,2.665,2.665,0,0,1,0-3.444,2.365,2.365,0,0,1,3.244,0Zm-2.5.644a2.375,2.375,0,0,0,0,2.149.929.929,0,0,0,.866.427q1.122,0,1.123-1.5a2.1,2.1,0,0,0-.25-1.071,1.1,1.1,0,0,0-1.739-.007Zm6.493-1.736.887.588-6.417,9.8-.887-.588Zm1.7,6.034a2.691,2.691,0,0,1,0,3.444,2.372,2.372,0,0,1-3.25,0,2.665,2.665,0,0,1,0-3.444,2.372,2.372,0,0,1,3.25,0Zm-2.488.651a2,2,0,0,0-.256,1.071,2.051,2.051,0,0,0,.256,1.071.929.929,0,0,0,.866.427q1.123,0,1.123-1.5a2.061,2.061,0,0,0-.249-1.064,1.117,1.117,0,0,0-1.74-.007Z"/><path class="cls-2" d="M154.321,323.371v9.366h-1.274v-7.994l-2.162,1.33-.555-.91,2.869-1.792Z"/><path class="cls-2" d="M160.469,323.567a2.448,2.448,0,0,1,.976.917,2.507,2.507,0,0,1,.347,1.309,3.7,3.7,0,0,1-.381,1.638,8.013,8.013,0,0,1-1.171,1.694q-.791.911-2.4,2.534h4.172l-.153,1.078h-5.474v-1.022q1.857-1.945,2.633-2.849a8.03,8.03,0,0,0,1.109-1.575,3.2,3.2,0,0,0,.332-1.442,1.54,1.54,0,0,0-.415-1.141,1.507,1.507,0,0,0-1.108-.413,2.028,2.028,0,0,0-1,.238,3.645,3.645,0,0,0-.915.784l-.831-.672a3.833,3.833,0,0,1,1.261-1.064,3.4,3.4,0,0,1,1.552-.35A3.067,3.067,0,0,1,160.469,323.567Z"/><path class="cls-2" d="M170.877,323.875a2.665,2.665,0,0,1,0,3.444,2.363,2.363,0,0,1-3.243,0,2.665,2.665,0,0,1,0-3.444,2.363,2.363,0,0,1,3.243,0Zm-2.494.644a2.375,2.375,0,0,0,0,2.149.926.926,0,0,0,.865.427q1.124,0,1.123-1.5a2.091,2.091,0,0,0-.25-1.071,1.1,1.1,0,0,0-1.738-.007Zm6.492-1.736.888.588-6.417,9.8-.887-.588Zm1.705,6.034a2.688,2.688,0,0,1,0,3.444,2.153,2.153,0,0,1-1.621.644,2.176,2.176,0,0,1-1.629-.644,2.665,2.665,0,0,1,0-3.444,2.18,2.18,0,0,1,1.629-.644A2.157,2.157,0,0,1,176.58,328.817Zm-2.488.651a2.012,2.012,0,0,0-.256,1.071,2.061,2.061,0,0,0,.256,1.071.931.931,0,0,0,.867.427q1.122,0,1.123-1.5a2.061,2.061,0,0,0-.25-1.064.93.93,0,0,0-.873-.42A.943.943,0,0,0,174.092,329.468Z"/><path class="cls-2" d="M154.321,443.072v9.367h-1.274v-8l-2.162,1.33-.555-.91,2.869-1.792Z"/><path class="cls-2" d="M160.129,443.072v9.367h-1.275v-8l-2.163,1.33-.554-.91,2.869-1.792Z"/><path class="cls-2" d="M169.824,443.577a2.665,2.665,0,0,1,0,3.444,2.365,2.365,0,0,1-3.244,0,2.665,2.665,0,0,1,0-3.444,2.365,2.365,0,0,1,3.244,0Zm-2.5.644a2.375,2.375,0,0,0,0,2.149.93.93,0,0,0,.866.426q1.122,0,1.123-1.5a2.094,2.094,0,0,0-.25-1.07,1.1,1.1,0,0,0-1.739-.007Zm6.493-1.737.887.588-6.417,9.8-.887-.588Zm1.7,6.035a2.69,2.69,0,0,1,0,3.443,2.369,2.369,0,0,1-3.25,0,2.664,2.664,0,0,1,0-3.443,2.372,2.372,0,0,1,3.25,0Zm-2.488.651a2,2,0,0,0-.256,1.07,2.053,2.053,0,0,0,.256,1.072.93.93,0,0,0,.866.426q1.124,0,1.123-1.5a2.066,2.066,0,0,0-.249-1.064,1.116,1.116,0,0,0-1.74-.006Z"/><path class="cls-2" d="M154.321,502.923v9.367h-1.274V504.3l-2.162,1.331-.555-.911,2.869-1.792Z"/><path class="cls-2" d="M162.859,509.784a2.426,2.426,0,0,1-.408,1.379,2.751,2.751,0,0,1-1.144.952,4.245,4.245,0,0,1-3.327.007,2.63,2.63,0,0,1-1.115-.939,2.445,2.445,0,0,1-.4-1.372,2.283,2.283,0,0,1,.464-1.456,3.44,3.44,0,0,1,1.365-.979,2.791,2.791,0,0,1-1.088-.917,2.269,2.269,0,0,1-.354-1.268,2.164,2.164,0,0,1,.4-1.3,2.478,2.478,0,0,1,1.04-.826,3.434,3.434,0,0,1,1.379-.279,3.569,3.569,0,0,1,1.365.265,2.456,2.456,0,0,1,1.046.805,2.1,2.1,0,0,1,.4,1.3,1.924,1.924,0,0,1-.387,1.2,3.428,3.428,0,0,1-1.193.91A2.662,2.662,0,0,1,162.859,509.784Zm-1.836,1.2a1.516,1.516,0,0,0,.506-1.191,1.525,1.525,0,0,0-.818-1.449,6.487,6.487,0,0,0-1.205-.524l-.348-.126a2.46,2.46,0,0,0-1.025.847,2.268,2.268,0,0,0-.332,1.266,1.49,1.49,0,0,0,.5,1.2,2.014,2.014,0,0,0,1.359.427A1.988,1.988,0,0,0,161.023,510.988Zm-2.5-6.86a1.369,1.369,0,0,0-.423,1.078,1.272,1.272,0,0,0,.409,1.021,3.944,3.944,0,0,0,1.31.645l.236.084a2.75,2.75,0,0,0,.9-.771,1.723,1.723,0,0,0,.277-.994,1.387,1.387,0,0,0-.409-1.05,1.606,1.606,0,0,0-1.157-.391A1.655,1.655,0,0,0,158.528,504.128Z"/><path class="cls-2" d="M171.653,503.427a2.667,2.667,0,0,1,0,3.445,2.366,2.366,0,0,1-3.243,0,2.667,2.667,0,0,1,0-3.445,2.366,2.366,0,0,1,3.243,0Zm-2.5.645a2.381,2.381,0,0,0,0,2.148.93.93,0,0,0,.867.427q1.122,0,1.122-1.5a2.094,2.094,0,0,0-.249-1.07,1.1,1.1,0,0,0-1.74-.007Zm6.494-1.736.887.587-6.418,9.8-.887-.588Zm1.705,6.034a2.69,2.69,0,0,1,0,3.443,2.157,2.157,0,0,1-1.623.645,2.179,2.179,0,0,1-1.628-.645,2.67,2.67,0,0,1,0-3.443,2.179,2.179,0,0,1,1.628-.645A2.157,2.157,0,0,1,177.357,508.37Zm-2.488.65a2,2,0,0,0-.257,1.071,2.043,2.043,0,0,0,.257,1.072.927.927,0,0,0,.865.426q1.124,0,1.123-1.5a2.064,2.064,0,0,0-.249-1.064,1.116,1.116,0,0,0-1.739-.007Z"/><path class="cls-2" d="M163.221,384.055a4.221,4.221,0,0,1,.761,2.667,7.8,7.8,0,0,1-.511,3.087,4.219,4.219,0,0,1-1.567,1.862,10.83,10.83,0,0,1-2.855,1.225l-.291-.966a7.016,7.016,0,0,0,2.847-1.442,3.35,3.35,0,0,0,1.061-2.422,2.419,2.419,0,0,1-2.078,1.12,2.368,2.368,0,0,1-1.3-.371,2.571,2.571,0,0,1-.921-1.05,3.513,3.513,0,0,1-.34-1.589,3.244,3.244,0,0,1,.4-1.652,2.754,2.754,0,0,1,1.073-1.071,3.033,3.033,0,0,1,1.49-.371A2.663,2.663,0,0,1,163.221,384.055Zm-.528,2.961a4.354,4.354,0,0,0-.381-2.233,1.4,1.4,0,0,0-1.294-.679,1.532,1.532,0,0,0-1.262.546,2.4,2.4,0,0,0-.444,1.554,2.251,2.251,0,0,0,.417,1.477,1.385,1.385,0,0,0,1.122.5A2.166,2.166,0,0,0,162.693,387.016Z"/><path class="cls-2" d="M172.846,383.726a2.665,2.665,0,0,1,0,3.444,2.362,2.362,0,0,1-3.242,0,2.665,2.665,0,0,1,0-3.444,2.362,2.362,0,0,1,3.242,0Zm-2.494.644a2.383,2.383,0,0,0,0,2.149.926.926,0,0,0,.866.427q1.124,0,1.122-1.5a2.091,2.091,0,0,0-.249-1.071,1.1,1.1,0,0,0-1.739-.007Zm6.493-1.736.887.588-6.418,9.8-.886-.588Zm1.705,6.034a2.688,2.688,0,0,1,0,3.444,2.154,2.154,0,0,1-1.622.644,2.179,2.179,0,0,1-1.629-.644,2.668,2.668,0,0,1,0-3.444,2.183,2.183,0,0,1,1.629-.644A2.158,2.158,0,0,1,178.55,388.668Zm-2.488.651a2,2,0,0,0-.257,1.071,2.051,2.051,0,0,0,.257,1.071.926.926,0,0,0,.866.427q1.122,0,1.123-1.5a2.061,2.061,0,0,0-.25-1.064,1.116,1.116,0,0,0-1.739-.007Z"/><path class="cls-2" d="M315.169,262.305v1.728h-1.251v2.4h-2.186l-.016-2.4H307.2V262.5l3.073-7.088,1.9.719-2.647,6.177h2.219l.237-2.64h1.933v2.64Z"/><path class="cls-3" d="M325.068,253.521l1.237.288L322.646,268.1l-1.251-.3Z"/><path class="cls-3" d="M337.281,255.729v10.7h-1.457V257.3l-2.47,1.52-.635-1.039L336,255.729Z"/><path class="cls-3" d="M346.1,256.984a9.888,9.888,0,0,1,0,8.217,3.184,3.184,0,0,1-5.307,0,9.888,9.888,0,0,1,0-8.217,3.2,3.2,0,0,1,5.307,0Zm-4.182.777a11.374,11.374,0,0,0,0,6.664,1.642,1.642,0,0,0,3.049,0,11.155,11.155,0,0,0,0-6.656,1.644,1.644,0,0,0-3.049-.008Z"/><path class="cls-2" d="M334.365,501.705a2.877,2.877,0,0,1,1.648,2.648,4.044,4.044,0,0,1-.372,1.7,7.914,7.914,0,0,1-1.268,1.84q-.9,1.024-2.605,2.64h4.482l-.253,1.76h-6.8v-1.648q2-2.016,2.883-3.008a9.065,9.065,0,0,0,1.252-1.68,2.984,2.984,0,0,0,.364-1.408,1.482,1.482,0,0,0-.395-1.088,1.432,1.432,0,0,0-1.063-.4,2.062,2.062,0,0,0-1.045.264,3.791,3.791,0,0,0-.967.872l-1.345-1.088a4.256,4.256,0,0,1,3.564-1.808A4.2,4.2,0,0,1,334.365,501.705Z"/><path class="cls-3" d="M346.355,499.377l1.237.288-3.659,14.288-1.251-.3Z"/><path class="cls-3" d="M358.568,501.585v10.7h-1.457v-9.136l-2.47,1.52-.635-1.04,3.279-2.048Z"/><path class="cls-3" d="M365.205,501.585v10.7h-1.457v-9.136l-2.471,1.52-.633-1.04,3.279-2.048Z"/><path class="cls-1" d="M72.9,267.85H71.144l-3.881-8.19q.081.966.131,1.785t.048,1.981v4.424H66.209V258.2h1.719l3.922,8.2q-.042-.365-.111-1.274c-.047-.607-.069-1.162-.069-1.666V258.2H72.9Z"/><path class="cls-1" d="M81.1,264.6H76.438a2.886,2.886,0,0,0,.61,1.792,1.76,1.76,0,0,0,1.357.574,2.934,2.934,0,0,0,.971-.154,3.918,3.918,0,0,0,.929-.49l.554.77a4.014,4.014,0,0,1-2.55.924,2.943,2.943,0,0,1-2.377-1.008,4.158,4.158,0,0,1-.853-2.772,5.317,5.317,0,0,1,.367-2.037,3.2,3.2,0,0,1,1.054-1.393,2.65,2.65,0,0,1,1.614-.5,2.7,2.7,0,0,1,2.232.966,4.161,4.161,0,0,1,.776,2.674C81.122,264.158,81.113,264.378,81.1,264.6Zm-1.234-1.036a2.753,2.753,0,0,0-.429-1.667,1.51,1.51,0,0,0-1.289-.573q-1.567,0-1.7,2.323h3.423Z"/><path class="cls-1" d="M87.346,260.472v.98l-3.812,5.32h3.854l-.153,1.078H82.093v-.966l3.8-5.32h-3.48v-1.092Z"/><path class="cls-1" d="M90.4,257.182a.857.857,0,0,1,.25.63.833.833,0,0,1-.25.623.89.89,0,0,1-.652.245.875.875,0,0,1-.638-.245.836.836,0,0,1-.249-.623.857.857,0,0,1,.887-.882A.875.875,0,0,1,90.4,257.182Zm0,3.29v7.378H89.12v-7.378Z"/><path class="cls-1" d="M96.354,260.514a4.036,4.036,0,0,1,1.137.63l-.541.812A4.406,4.406,0,0,0,96,261.48a2.909,2.909,0,0,0-.949-.154,1.659,1.659,0,0,0-.985.259.882.882,0,0,0-.02,1.407,3.912,3.912,0,0,0,1.226.49,4.358,4.358,0,0,1,1.823.84,1.84,1.84,0,0,1,.6,1.456,1.9,1.9,0,0,1-.838,1.666,3.53,3.53,0,0,1-2.045.574,4.013,4.013,0,0,1-2.757-.966l.679-.784a3.285,3.285,0,0,0,2.051.714,1.944,1.944,0,0,0,1.144-.3.955.955,0,0,0,.422-.819,1.084,1.084,0,0,0-.152-.609,1.234,1.234,0,0,0-.527-.406,7.14,7.14,0,0,0-1.095-.371,3.716,3.716,0,0,1-1.684-.827,1.779,1.779,0,0,1-.52-1.315,1.733,1.733,0,0,1,.34-1.043,2.2,2.2,0,0,1,.942-.728,3.392,3.392,0,0,1,1.352-.259A4.025,4.025,0,0,1,96.354,260.514Z"/><path class="cls-1" d="M100.775,257.35v10.5H99.5V257.5Zm4.2,3.122-2.69,3.261,2.994,4.117h-1.524l-2.9-4.033,2.69-3.345Z"/><path class="cls-1" d="M111.607,261.34a4.291,4.291,0,0,1,.853,2.814,4.947,4.947,0,0,1-.389,2.023,2.973,2.973,0,0,1-2.868,1.841,2.946,2.946,0,0,1-2.4-1.036,4.269,4.269,0,0,1-.86-2.814,4.94,4.94,0,0,1,.389-2.023,3.062,3.062,0,0,1,1.122-1.358,3.132,3.132,0,0,1,1.761-.483A2.921,2.921,0,0,1,111.607,261.34Zm-4.29,2.828q0,2.814,1.886,2.814t1.885-2.828q0-2.814-1.871-2.814Q107.317,261.34,107.317,264.168Z"/><path class="cls-1" d="M119.875,260.472l-2.48,7.378h-1.54l-2.522-7.378h1.386l1.913,6.23,1.9-6.23Z"/><path class="cls-1" d="M122.605,257.35v10.5H121.33V257.5Zm4.2,3.122-2.689,3.261,2.993,4.117h-1.524l-2.9-4.033,2.689-3.345Z"/><path class="cls-1" d="M131.351,267.892a5,5,0,0,1-1.2,2.037,3.608,3.608,0,0,1-2.2.9l-.139-1.008a3.741,3.741,0,0,0,1.151-.364,2.008,2.008,0,0,0,.686-.609,4.3,4.3,0,0,0,.478-1h-.43l-2.453-7.378h1.358l1.955,6.44,1.913-6.44h1.316Z"/><path class="cls-1" d="M19.362,387.184H18.087l-.333-4.354q-.209-2.562-.234-3.934l-2.067,7.2H14.221l-2.177-7.21q0,1.749-.181,4.046l-.318,4.256H10.3l.79-9.646h1.773l2.01,7.014,1.913-7.014h1.788Z"/><path class="cls-1" d="M26.611,386.127a.932.932,0,0,0,.457.329l-.291.9a1.936,1.936,0,0,1-.914-.322,1.474,1.474,0,0,1-.513-.784,2.445,2.445,0,0,1-2.176,1.106,2.316,2.316,0,0,1-1.7-.617,2.158,2.158,0,0,1-.623-1.609,2.123,2.123,0,0,1,.838-1.806,3.885,3.885,0,0,1,2.377-.63h1.123v-.546a1.445,1.445,0,0,0-.374-1.12,1.683,1.683,0,0,0-1.151-.336,6.356,6.356,0,0,0-1.968.392l-.319-.938a7.288,7.288,0,0,1,2.523-.5,2.622,2.622,0,0,1,1.926.636,2.454,2.454,0,0,1,.638,1.813v3.374A1.175,1.175,0,0,0,26.611,386.127Zm-1.427-.889v-1.694h-.957q-2.024,0-2.024,1.512a1.4,1.4,0,0,0,.319.994,1.239,1.239,0,0,0,.943.336A1.9,1.9,0,0,0,25.184,385.238Z"/><path class="cls-1" d="M29.279,386.925a1.66,1.66,0,0,1-.409-1.2v-8.891l1.275-.153V385.7a.764.764,0,0,0,.1.448.413.413,0,0,0,.354.14,1.251,1.251,0,0,0,.471-.084l.332.9a2.058,2.058,0,0,1-1.011.252A1.474,1.474,0,0,1,29.279,386.925Z"/><path class="cls-1" d="M38.42,383.936H33.764a2.88,2.88,0,0,0,.609,1.792,1.763,1.763,0,0,0,1.357.574,2.93,2.93,0,0,0,.971-.154,3.9,3.9,0,0,0,.929-.49l.555.77a4.014,4.014,0,0,1-2.55.924,2.94,2.94,0,0,1-2.377-1.008,4.158,4.158,0,0,1-.854-2.772,5.317,5.317,0,0,1,.367-2.037,3.2,3.2,0,0,1,1.054-1.393,2.652,2.652,0,0,1,1.614-.5,2.7,2.7,0,0,1,2.233.966,4.161,4.161,0,0,1,.775,2.674Q38.447,383.6,38.42,383.936ZM37.187,382.9a2.752,2.752,0,0,0-.43-1.666,1.508,1.508,0,0,0-1.289-.573q-1.566,0-1.7,2.323h3.423Zm-.611-6.929.569,1.077-2.938,1.2-.389-.686Z"/><path class="cls-1" d="M49.23,386.127a.93.93,0,0,0,.458.329l-.292.9a1.941,1.941,0,0,1-.914-.322,1.472,1.472,0,0,1-.512-.784,2.446,2.446,0,0,1-2.177,1.106,2.312,2.312,0,0,1-1.7-.617,2.158,2.158,0,0,1-.624-1.609,2.121,2.121,0,0,1,.839-1.806,3.883,3.883,0,0,1,2.377-.63H47.8v-.546a1.448,1.448,0,0,0-.373-1.12,1.685,1.685,0,0,0-1.151-.336,6.346,6.346,0,0,0-1.968.392l-.319-.938a7.278,7.278,0,0,1,2.522-.5,2.624,2.624,0,0,1,1.927.636,2.457,2.457,0,0,1,.637,1.813v3.374A1.175,1.175,0,0,0,49.23,386.127Zm-1.427-.889v-1.694h-.956q-2.024,0-2.024,1.512a1.391,1.391,0,0,0,.32.994,1.234,1.234,0,0,0,.941.336A1.9,1.9,0,0,0,47.8,385.238Z"/><path class="cls-1" d="M58.7,379.848a4.05,4.05,0,0,1,1.137.63l-.541.812a4.406,4.406,0,0,0-.949-.476,2.909,2.909,0,0,0-.949-.154,1.657,1.657,0,0,0-.985.259.881.881,0,0,0-.021,1.407,3.922,3.922,0,0,0,1.226.49,4.346,4.346,0,0,1,1.823.84,1.841,1.841,0,0,1,.6,1.456,1.9,1.9,0,0,1-.838,1.666,3.53,3.53,0,0,1-2.045.574,4.015,4.015,0,0,1-2.758-.966l.68-.784a3.285,3.285,0,0,0,2.051.714,1.936,1.936,0,0,0,1.142-.3.952.952,0,0,0,.424-.819,1.1,1.1,0,0,0-.152-.61,1.247,1.247,0,0,0-.527-.405,7.257,7.257,0,0,0-1.095-.371,3.72,3.72,0,0,1-1.685-.827,1.782,1.782,0,0,1-.519-1.315,1.733,1.733,0,0,1,.34-1.043A2.2,2.2,0,0,1,56,379.9a3.385,3.385,0,0,1,1.352-.259A4.029,4.029,0,0,1,58.7,379.848Z"/><path class="cls-1" d="M65.529,386.848a2.781,2.781,0,0,1-1.634.5,1.924,1.924,0,0,1-1.45-.539,2.168,2.168,0,0,1-.519-1.561V380.8H60.65v-.994h1.276V378.14l1.275-.155v1.821h1.733l-.139.994H63.2v4.4a1.367,1.367,0,0,0,.2.833.8.8,0,0,0,.672.259,2.075,2.075,0,0,0,.971-.294Z"/><path class="cls-1" d="M70.589,376.193l.54.631-1.871,1.582h-.846l-1.885-1.582.555-.631,1.746,1.177Zm.152,3.529-.235,1.26a2.616,2.616,0,0,0-.638-.084,1.353,1.353,0,0,0-1.095.5,3.786,3.786,0,0,0-.652,1.569v4.214H66.847v-7.378h1.094l.125,1.5a2.8,2.8,0,0,1,.789-1.246,1.759,1.759,0,0,1,1.166-.42A2.932,2.932,0,0,1,70.741,379.722Z"/><path class="cls-1" d="M77.269,383.936H72.611a2.892,2.892,0,0,0,.611,1.792,1.759,1.759,0,0,0,1.358.574,2.932,2.932,0,0,0,.97-.154,3.918,3.918,0,0,0,.929-.49l.554.77a4.014,4.014,0,0,1-2.551.924,2.947,2.947,0,0,1-2.377-1.008,4.163,4.163,0,0,1-.851-2.772,5.3,5.3,0,0,1,.367-2.037,3.186,3.186,0,0,1,1.053-1.393,2.653,2.653,0,0,1,1.615-.5,2.7,2.7,0,0,1,2.231.966,4.161,4.161,0,0,1,.777,2.674C77.3,383.492,77.287,383.711,77.269,383.936ZM76.035,382.9a2.745,2.745,0,0,0-.43-1.666,1.509,1.509,0,0,0-1.289-.573q-1.567,0-1.7,2.323h3.424Z"/><path class="cls-1" d="M84.988,376.837v10.347H83.866l-.125-1.022a2.65,2.65,0,0,1-.9.875,2.493,2.493,0,0,1-3.236-.721,4.766,4.766,0,0,1-.727-2.786,5.482,5.482,0,0,1,.346-2.016,3.112,3.112,0,0,1,1-1.379,2.437,2.437,0,0,1,1.525-.5,2.609,2.609,0,0,1,1.967.909v-3.863Zm-2.078,9.22a3.1,3.1,0,0,0,.8-.819v-3.612a2.762,2.762,0,0,0-.769-.721,1.751,1.751,0,0,0-.922-.245,1.475,1.475,0,0,0-1.309.714,3.936,3.936,0,0,0-.465,2.128,4.154,4.154,0,0,0,.43,2.127,1.368,1.368,0,0,0,1.234.7A1.777,1.777,0,0,0,82.91,386.057Z"/><path class="cls-1" d="M92.618,380.24a2.326,2.326,0,0,1,.562,1.652v5.292H91.9v-5.11a1.643,1.643,0,0,0-.291-1.106,1.1,1.1,0,0,0-.859-.322,1.649,1.649,0,0,0-1.025.336,3.5,3.5,0,0,0-.833.966v5.236H87.622v-7.378h1.095l.111,1.092a2.877,2.877,0,0,1,.963-.924,2.469,2.469,0,0,1,1.268-.336A2.023,2.023,0,0,1,92.618,380.24Z"/><path class="cls-1" d="M97.477,375.97l.568,1.077-2.939,1.2-.387-.686Zm-.457,3.836v7.378H95.744v-7.378Z"/><path class="cls-1" d="M106.9,376.81a4.675,4.675,0,0,1,.962.378l-.443.9a3.48,3.48,0,0,0-1.539-.351,1.468,1.468,0,0,0-1.012.267,1.1,1.1,0,0,0-.276.826v.98h4.075v7.378h-1.275V380.8h-2.8v6.384h-1.275V380.8h-1.165v-.994h1.165v-.967a2.052,2.052,0,0,1,.624-1.567,2.676,2.676,0,0,1,1.9-.588A4.161,4.161,0,0,1,106.9,376.81Z"/><path class="cls-1" d="M115.189,379.722l-.236,1.26a2.59,2.59,0,0,0-.637-.084,1.352,1.352,0,0,0-1.095.5,3.76,3.76,0,0,0-.651,1.569v4.214H111.3v-7.378h1.095l.125,1.5a2.791,2.791,0,0,1,.79-1.246,1.75,1.75,0,0,1,1.164-.42A2.932,2.932,0,0,1,115.189,379.722Z"/><path class="cls-1" d="M125.418,380.247a2.385,2.385,0,0,1,.541,1.645v5.292h-1.275v-5.11q0-1.428-1.026-1.428a1.373,1.373,0,0,0-.915.315,4.4,4.4,0,0,0-.8.987v5.236h-1.275v-5.11q0-1.428-1.025-1.428a1.373,1.373,0,0,0-.929.322,4.411,4.411,0,0,0-.79.98v5.236h-1.275v-7.378h1.095l.111,1.078a2.441,2.441,0,0,1,2.106-1.246,1.839,1.839,0,0,1,1.844,1.33,3.46,3.46,0,0,1,.949-.987,2.176,2.176,0,0,1,1.227-.343A1.832,1.832,0,0,1,125.418,380.247Z"/><path class="cls-1" d="M131.35,387.226a5,5,0,0,1-1.2,2.037,3.6,3.6,0,0,1-2.2.9l-.139-1.008a3.759,3.759,0,0,0,1.151-.364,2.014,2.014,0,0,0,.685-.609,4.338,4.338,0,0,0,.479-1h-.43l-2.453-7.378H128.6l1.956,6.44,1.912-6.44h1.316Z"/><path class="cls-1" d="M109.111,439.431a3.81,3.81,0,0,1,1.414,1.7,6.578,6.578,0,0,1,.506,2.716,6.5,6.5,0,0,1-.506,2.688,3.857,3.857,0,0,1-1.414,1.708,3.8,3.8,0,0,1-2.113.588,3.862,3.862,0,0,1-2.113-.574,3.763,3.763,0,0,1-1.414-1.694,7.43,7.43,0,0,1,0-5.39,3.876,3.876,0,0,1,1.421-1.729A3.769,3.769,0,0,1,107,438.85,3.835,3.835,0,0,1,109.111,439.431Zm-4.053,1.463a5.08,5.08,0,0,0-.694,2.968,4.946,4.946,0,0,0,.7,2.94,2.281,2.281,0,0,0,1.934.938q2.632,0,2.634-3.892T107,439.942A2.26,2.26,0,0,0,105.058,440.894Z"/><path class="cls-1" d="M118.433,442.133a4.772,4.772,0,0,1,.734,2.835,5.468,5.468,0,0,1-.347,2.023,3.018,3.018,0,0,1-1,1.358,2.488,2.488,0,0,1-1.524.483,2.407,2.407,0,0,1-1.941-.98l-.125.812H113.11V438.318l1.275-.154v4.046a2.438,2.438,0,0,1,2.065-1.092A2.327,2.327,0,0,1,118.433,442.133Zm-1.117,4.984a3.83,3.83,0,0,0,.479-2.149,4.027,4.027,0,0,0-.444-2.163,1.428,1.428,0,0,0-1.261-.665,2.065,2.065,0,0,0-1.7,1.148v3.528a2.26,2.26,0,0,0,.714.728,1.647,1.647,0,0,0,.894.266A1.519,1.519,0,0,0,117.316,447.117Z"/><path class="cls-1" d="M125.2,441.307a3.312,3.312,0,0,1,1.039.609l-.609.812a3.161,3.161,0,0,0-.756-.413,2.381,2.381,0,0,0-.81-.133,1.578,1.578,0,0,0-1.379.714,3.732,3.732,0,0,0-.493,2.114,3.52,3.52,0,0,0,.486,2.065,1.61,1.61,0,0,0,1.386.665,2.262,2.262,0,0,0,.79-.133,3.978,3.978,0,0,0,.8-.427l.582.84a3.442,3.442,0,0,1-2.231.812,2.893,2.893,0,0,1-2.335-1.008,4.183,4.183,0,0,1-.853-2.786,5.068,5.068,0,0,1,.388-2.058,3.163,3.163,0,0,1,1.1-1.372,2.924,2.924,0,0,1,1.7-.49A3.591,3.591,0,0,1,125.2,441.307Z"/><path class="cls-1" d="M133.18,445.416h-4.658a2.89,2.89,0,0,0,.611,1.792,1.756,1.756,0,0,0,1.357.574,2.934,2.934,0,0,0,.971-.154,3.918,3.918,0,0,0,.929-.49l.554.77a4.014,4.014,0,0,1-2.55.924,2.943,2.943,0,0,1-2.377-1.008,4.156,4.156,0,0,1-.853-2.772,5.317,5.317,0,0,1,.367-2.037,3.2,3.2,0,0,1,1.054-1.393,2.65,2.65,0,0,1,1.614-.5,2.7,2.7,0,0,1,2.232.966,4.163,4.163,0,0,1,.776,2.674Q133.207,445.081,133.18,445.416Zm-1.234-1.036a2.752,2.752,0,0,0-.429-1.666,1.512,1.512,0,0,0-1.289-.574q-1.568,0-1.706,2.324h3.424Z"/><path class="cls-1" d="M114.3,504.165a4.473,4.473,0,0,1,1.316.847l-.721.812a4.092,4.092,0,0,0-1.059-.637,3.051,3.051,0,0,0-1.116-.2,2.059,2.059,0,0,0-1.234.35,1.182,1.182,0,0,0-.485,1.022,1.4,1.4,0,0,0,.166.707,1.485,1.485,0,0,0,.617.525,7.907,7.907,0,0,0,1.31.5,8.6,8.6,0,0,1,1.5.6,2.465,2.465,0,0,1,1.331,2.324,2.638,2.638,0,0,1-1.588,2.492,4.219,4.219,0,0,1-1.822.364,4.419,4.419,0,0,1-3.244-1.246l.721-.812a4.692,4.692,0,0,0,1.178.721,3.457,3.457,0,0,0,1.331.245,2.364,2.364,0,0,0,1.469-.441,1.509,1.509,0,0,0,.582-1.281,1.577,1.577,0,0,0-.18-.791,1.612,1.612,0,0,0-.617-.567,6.292,6.292,0,0,0-1.268-.5,5.561,5.561,0,0,1-2.148-1.078,2.215,2.215,0,0,1-.68-1.708,2.3,2.3,0,0,1,.382-1.3,2.545,2.545,0,0,1,1.067-.9,3.636,3.636,0,0,1,1.559-.322A4.386,4.386,0,0,1,114.3,504.165Z"/><path class="cls-1" d="M121.482,513.37a2.782,2.782,0,0,1-1.635.5,1.921,1.921,0,0,1-1.449-.539,2.162,2.162,0,0,1-.519-1.561v-4.452H116.6v-.994h1.275v-1.666l1.274-.154v1.82h1.734l-.139.994h-1.595v4.4a1.374,1.374,0,0,0,.2.833.8.8,0,0,0,.673.259,2.075,2.075,0,0,0,.97-.294Z"/><path class="cls-1" d="M127.774,512.649a.932.932,0,0,0,.457.329l-.291.9a1.941,1.941,0,0,1-.914-.322,1.467,1.467,0,0,1-.512-.784,2.446,2.446,0,0,1-2.177,1.106,2.315,2.315,0,0,1-1.7-.616,2.161,2.161,0,0,1-.624-1.61,2.121,2.121,0,0,1,.839-1.806,3.889,3.889,0,0,1,2.377-.63h1.122v-.546a1.446,1.446,0,0,0-.374-1.12,1.682,1.682,0,0,0-1.151-.336,6.386,6.386,0,0,0-1.968.392l-.319-.938a7.288,7.288,0,0,1,2.523-.5,2.62,2.62,0,0,1,1.926.637,2.452,2.452,0,0,1,.638,1.813v3.374A1.171,1.171,0,0,0,127.774,512.649ZM126.1,502.492l.568,1.078-2.938,1.2-.389-.686Zm.249,9.268v-1.694h-.956q-2.025,0-2.024,1.512a1.391,1.391,0,0,0,.319.994,1.238,1.238,0,0,0,.942.336A1.9,1.9,0,0,0,126.347,511.76Z"/><path class="cls-1" d="M133.929,513.37a2.787,2.787,0,0,1-1.636.5,1.918,1.918,0,0,1-1.448-.539,2.158,2.158,0,0,1-.52-1.561v-4.452H129.05v-.994h1.275v-1.666l1.275-.154v1.82h1.733l-.139.994H131.6v4.4a1.367,1.367,0,0,0,.2.833.8.8,0,0,0,.673.259,2.071,2.071,0,0,0,.969-.294Z"/><path class="cls-1" d="M72.459,317.148,69.41,326.8H68l-3.077-9.647h1.414l2.4,8.2,2.4-8.2Z"/><path class="cls-1" d="M79,323.546H74.345a2.884,2.884,0,0,0,.609,1.792,1.761,1.761,0,0,0,1.358.575,2.928,2.928,0,0,0,.97-.155,3.828,3.828,0,0,0,.929-.49l.555.771a4.018,4.018,0,0,1-2.55.923,2.941,2.941,0,0,1-2.377-1.007,4.166,4.166,0,0,1-.853-2.773,5.282,5.282,0,0,1,.368-2.037,3.175,3.175,0,0,1,1.052-1.392,2.655,2.655,0,0,1,1.615-.5,2.7,2.7,0,0,1,2.232.965,4.157,4.157,0,0,1,.776,2.674Q79.029,323.211,79,323.546Zm-1.233-1.036a2.752,2.752,0,0,0-.43-1.666,1.506,1.506,0,0,0-1.289-.574q-1.566,0-1.7,2.324h3.423Z"/><path class="cls-1" d="M81.406,326.536a1.665,1.665,0,0,1-.409-1.2v-8.89l1.275-.153v9.015a.762.762,0,0,0,.1.448.409.409,0,0,0,.353.14,1.234,1.234,0,0,0,.472-.084l.332.9a2.066,2.066,0,0,1-1.012.251A1.474,1.474,0,0,1,81.406,326.536Z"/><path class="cls-1" d="M86.4,316.3v10.5H85.128V316.448Zm4.2,3.122-2.69,3.261,2.994,4.117H89.383l-2.9-4.033,2.69-3.345Z"/><path class="cls-1" d="M97.587,323.546H92.931a2.878,2.878,0,0,0,.609,1.792,1.761,1.761,0,0,0,1.358.575,2.928,2.928,0,0,0,.97-.155,3.828,3.828,0,0,0,.929-.49l.555.771a4.018,4.018,0,0,1-2.55.923,2.941,2.941,0,0,1-2.377-1.007,4.161,4.161,0,0,1-.853-2.773,5.3,5.3,0,0,1,.367-2.037,3.185,3.185,0,0,1,1.053-1.392,2.655,2.655,0,0,1,1.615-.5,2.7,2.7,0,0,1,2.232.965,4.163,4.163,0,0,1,.776,2.674C97.615,323.1,97.605,323.322,97.587,323.546Zm-1.233-1.036a2.752,2.752,0,0,0-.43-1.666,1.506,1.506,0,0,0-1.289-.574q-1.566,0-1.7,2.324h3.423Zm-.61-6.929.568,1.077-2.938,1.2-.389-.686Z"/><path class="cls-1" d="M106.9,316.42a4.675,4.675,0,0,1,.962.378l-.443.9a3.479,3.479,0,0,0-1.539-.35,1.473,1.473,0,0,0-1.012.266,1.1,1.1,0,0,0-.276.826v.981h4.074V326.8h-1.275v-6.384h-2.8V326.8h-1.275v-6.384h-1.165v-.994h1.165v-.967a2.053,2.053,0,0,1,.624-1.568,2.677,2.677,0,0,1,1.9-.587A4.174,4.174,0,0,1,106.9,316.42Z"/><path class="cls-1" d="M115.189,319.333l-.235,1.259a2.653,2.653,0,0,0-.638-.084,1.348,1.348,0,0,0-1.094.5,3.767,3.767,0,0,0-.652,1.569V326.8H111.3v-7.378h1.095l.125,1.5a2.791,2.791,0,0,1,.79-1.246,1.747,1.747,0,0,1,1.164-.42A2.879,2.879,0,0,1,115.189,319.333Z"/><path class="cls-1" d="M125.418,319.857a2.392,2.392,0,0,1,.541,1.646V326.8h-1.275v-5.111q0-1.428-1.026-1.428a1.373,1.373,0,0,0-.915.315,4.4,4.4,0,0,0-.8.987V326.8h-1.275v-5.111q0-1.428-1.025-1.428a1.372,1.372,0,0,0-.929.323,4.4,4.4,0,0,0-.79.979V326.8h-1.275v-7.378h1.094l.112,1.078a2.441,2.441,0,0,1,2.106-1.246,1.838,1.838,0,0,1,1.844,1.33,3.438,3.438,0,0,1,.949-.988,2.181,2.181,0,0,1,1.227-.342A1.834,1.834,0,0,1,125.418,319.857Z"/><path class="cls-1" d="M131.351,326.836a5.01,5.01,0,0,1-1.2,2.038,3.6,3.6,0,0,1-2.2.9l-.139-1.008a3.732,3.732,0,0,0,1.151-.364,1.975,1.975,0,0,0,.685-.609,4.349,4.349,0,0,0,.479-1h-.43l-2.453-7.378h1.358l1.955,6.439,1.912-6.439h1.317Z"/><path class="cls-1" d="M64.976,199.514l-3.05,9.646H60.513l-3.077-9.646H58.85l2.4,8.2,2.4-8.2Z"/><path class="cls-1" d="M70.229,199.619a4.506,4.506,0,0,1,1.316.847l-.721.812a4.1,4.1,0,0,0-1.06-.637,3.047,3.047,0,0,0-1.116-.2,2.061,2.061,0,0,0-1.234.35,1.184,1.184,0,0,0-.484,1.022,1.378,1.378,0,0,0,.166.707,1.478,1.478,0,0,0,.617.525,7.926,7.926,0,0,0,1.309.5,8.583,8.583,0,0,1,1.5.6,2.466,2.466,0,0,1,1.33,2.324,2.713,2.713,0,0,1-.409,1.484,2.74,2.74,0,0,1-1.178,1.008,4.22,4.22,0,0,1-1.823.364,4.417,4.417,0,0,1-3.243-1.246l.721-.812a4.692,4.692,0,0,0,1.178.721,3.455,3.455,0,0,0,1.33.245,2.365,2.365,0,0,0,1.47-.441,1.511,1.511,0,0,0,.582-1.281,1.567,1.567,0,0,0-.181-.791,1.6,1.6,0,0,0-.616-.567,6.281,6.281,0,0,0-1.269-.5,5.562,5.562,0,0,1-2.148-1.078,2.218,2.218,0,0,1-.679-1.708,2.3,2.3,0,0,1,.382-1.3,2.548,2.548,0,0,1,1.066-.9,3.64,3.64,0,0,1,1.56-.322A4.394,4.394,0,0,1,70.229,199.619Zm.207-3.185.541.63-1.872,1.54H68.26l-1.885-1.54.555-.63,1.746,1.134Z"/><path class="cls-1" d="M82.467,208.1a.927.927,0,0,0,.457.329l-.291.9a1.932,1.932,0,0,1-.914-.322,1.469,1.469,0,0,1-.514-.784,2.441,2.441,0,0,1-2.176,1.106,2.321,2.321,0,0,1-1.7-.616,2.16,2.16,0,0,1-.623-1.61,2.123,2.123,0,0,1,.838-1.806,3.9,3.9,0,0,1,2.377-.63h1.123v-.546a1.446,1.446,0,0,0-.374-1.12,1.682,1.682,0,0,0-1.15-.336,6.381,6.381,0,0,0-1.968.392l-.319-.938a7.287,7.287,0,0,1,2.522-.5,2.624,2.624,0,0,1,1.927.637,2.452,2.452,0,0,1,.637,1.813v3.374A1.16,1.16,0,0,0,82.467,208.1Zm-1.428-.889V205.52h-.957q-2.023,0-2.023,1.512a1.391,1.391,0,0,0,.319.994,1.237,1.237,0,0,0,.942.336A1.9,1.9,0,0,0,81.039,207.214Z"/><path class="cls-1" d="M93.971,201.782,91.49,209.16H89.951l-2.522-7.378h1.385l1.914,6.23,1.9-6.23Z"/><path class="cls-1" d="M98.35,209.2a4.987,4.987,0,0,1-1.2,2.037,3.6,3.6,0,0,1-2.2.9l-.139-1.008a3.732,3.732,0,0,0,1.151-.364,2.014,2.014,0,0,0,.685-.609,4.318,4.318,0,0,0,.479-1H96.7l-2.453-7.378h1.357l1.956,6.44,1.912-6.44h1.316Zm.263-11.256.569,1.078-2.939,1.2-.388-.686Z"/><path class="cls-1" d="M106.527,201.782v.98l-3.811,5.32h3.852l-.152,1.078h-5.142v-.966l3.8-5.32h-3.479v-1.092Z"/><path class="cls-1" d="M109.576,198.66v10.5H108.3V198.814Zm4.2,3.122-2.688,3.262,2.993,4.116h-1.524l-2.9-4.032,2.689-3.346Z"/><path class="cls-1" d="M120.734,209.16h-1.095l-.1-1.148a2.791,2.791,0,0,1-.955,1,2.578,2.578,0,0,1-1.317.315,1.936,1.936,0,0,1-1.5-.588,2.378,2.378,0,0,1-.54-1.666v-5.292h1.275v5.152a1.683,1.683,0,0,0,.264,1.071,1.058,1.058,0,0,0,.859.315,2.171,2.171,0,0,0,1.83-1.274v-5.264h1.275Z"/><path class="cls-1" d="M132.141,202.223a2.391,2.391,0,0,1,.541,1.645v5.292h-1.276v-5.11q0-1.428-1.025-1.428a1.376,1.376,0,0,0-.916.315,4.371,4.371,0,0,0-.8.987v5.236h-1.275v-5.11q0-1.428-1.026-1.428a1.378,1.378,0,0,0-.929.322,4.411,4.411,0,0,0-.789.98v5.236h-1.276v-7.378h1.095l.11,1.078a2.445,2.445,0,0,1,2.108-1.246,1.839,1.839,0,0,1,1.843,1.33,3.449,3.449,0,0,1,.95-.987,2.176,2.176,0,0,1,1.226-.343A1.837,1.837,0,0,1,132.141,202.223Z"/><g class="cls-4"><path d="M12.531,19.362A4.632,4.632,0,0,1,12,21.6a3.732,3.732,0,0,1-1.584,1.539,5.336,5.336,0,0,1-2.529.558,4.649,4.649,0,0,1-3.42-1.179,4.251,4.251,0,0,1-1.188-3.159v-8.37H5.655v8.244A2.979,2.979,0,0,0,6.2,21.2a2.084,2.084,0,0,0,1.683.648,2.107,2.107,0,0,0,1.7-.648,2.979,2.979,0,0,0,.549-1.962V10.992h2.394ZM9.363,6.582l.9,1.8L6.141,9.876,5.547,8.688Z"/><path d="M21.5,14.772l-.9,1.35a4.487,4.487,0,0,0-2.394-.774,1.858,1.858,0,0,0-1.062.261.8.8,0,0,0-.378.693.868.868,0,0,0,.162.54,1.468,1.468,0,0,0,.585.405,9.8,9.8,0,0,0,1.251.423,5.5,5.5,0,0,1,2.295,1.1,2.457,2.457,0,0,1,.747,1.908A2.556,2.556,0,0,1,20.648,22.9a4.888,4.888,0,0,1-2.861.8,6.06,6.06,0,0,1-2.134-.36,5.18,5.18,0,0,1-1.665-.99l1.153-1.3a4.249,4.249,0,0,0,2.591.936,2.195,2.195,0,0,0,1.234-.306.965.965,0,0,0,.459-.846,1.132,1.132,0,0,0-.171-.657,1.408,1.408,0,0,0-.612-.432,12.845,12.845,0,0,0-1.377-.459,4.6,4.6,0,0,1-2.142-1.107,2.456,2.456,0,0,1-.685-1.773,2.362,2.362,0,0,1,.459-1.422,3.058,3.058,0,0,1,1.3-.99,4.819,4.819,0,0,1,1.917-.36A5.359,5.359,0,0,1,21.5,14.772Z"/><path d="M31.27,14.952a6.7,6.7,0,0,1,.863,3.69,7.232,7.232,0,0,1-.441,2.619,3.981,3.981,0,0,1-1.3,1.791,3.257,3.257,0,0,1-2.025.648,2.965,2.965,0,0,1-2.393-1.044V27.1l-2.305.252V13.908h2.016l.126,1.17A3.732,3.732,0,0,1,27.093,14a3.338,3.338,0,0,1,1.512-.36A2.968,2.968,0,0,1,31.27,14.952ZM29.721,18.66a5.265,5.265,0,0,0-.45-2.52,1.466,1.466,0,0,0-1.35-.774,1.855,1.855,0,0,0-1.08.351,3.049,3.049,0,0,0-.863.945v4.284a2.017,2.017,0,0,0,1.745.99Q29.721,21.936,29.721,18.66Z"/><path d="M42.158,19.38H36.183a3.023,3.023,0,0,0,.719,1.98,2.23,2.23,0,0,0,1.62.594,3.394,3.394,0,0,0,1.189-.207,5.54,5.54,0,0,0,1.187-.639l.955,1.314A5.482,5.482,0,0,1,38.324,23.7a4.245,4.245,0,0,1-3.356-1.332,5.288,5.288,0,0,1-1.179-3.636,6.515,6.515,0,0,1,.5-2.619A4.149,4.149,0,0,1,35.751,14.3a4.34,4.34,0,0,1,5.363.612,5.228,5.228,0,0,1,1.1,3.537C42.213,18.565,42.194,18.876,42.158,19.38ZM40.413,9.03l.882,1.008-2.5,2.25h-1.44l-2.5-2.25.881-1.008,2.34,1.584Zm-.486,8.748q0-2.5-1.855-2.5a1.573,1.573,0,0,0-1.322.621,3.692,3.692,0,0,0-.567,1.989h3.744Z"/><path d="M50.673,14.772l-.9,1.35a4.481,4.481,0,0,0-2.393-.774,1.861,1.861,0,0,0-1.063.261.8.8,0,0,0-.378.693.869.869,0,0,0,.163.54,1.461,1.461,0,0,0,.585.405,9.8,9.8,0,0,0,1.251.423,5.5,5.5,0,0,1,2.294,1.1,2.458,2.458,0,0,1,.748,1.908A2.556,2.556,0,0,1,49.826,22.9a4.89,4.89,0,0,1-2.861.8,6.06,6.06,0,0,1-2.134-.36,5.17,5.17,0,0,1-1.665-.99l1.152-1.3a4.252,4.252,0,0,0,2.592.936,2.195,2.195,0,0,0,1.234-.306.965.965,0,0,0,.459-.846,1.132,1.132,0,0,0-.171-.657,1.418,1.418,0,0,0-.613-.432,12.845,12.845,0,0,0-1.377-.459A4.6,4.6,0,0,1,44.3,18.183a2.456,2.456,0,0,1-.685-1.773,2.362,2.362,0,0,1,.459-1.422,3.052,3.052,0,0,1,1.3-.99,4.816,4.816,0,0,1,1.917-.36A5.361,5.361,0,0,1,50.673,14.772Zm-.99-5.742.881,1.008-2.5,2.25h-1.44l-2.5-2.25L45,9.03l2.34,1.584Z"/><path d="M59.916,14.4a3.017,3.017,0,0,1,.711,2.133V23.43h-2.3V16.9a1.822,1.822,0,0,0-.3-1.188,1.093,1.093,0,0,0-.872-.342,1.7,1.7,0,0,0-1.071.369,4.228,4.228,0,0,0-.927,1.071V23.43h-2.3V13.908h2l.18,1.242a3.537,3.537,0,0,1,2.9-1.512A2.584,2.584,0,0,1,59.916,14.4Z"/><path d="M70.481,14.979a5.38,5.38,0,0,1,1.18,3.681,6.122,6.122,0,0,1-.54,2.637,4.094,4.094,0,0,1-1.548,1.773,4.427,4.427,0,0,1-2.394.63,4.171,4.171,0,0,1-3.294-1.341,5.384,5.384,0,0,1-1.188-3.7,6.047,6.047,0,0,1,.54-2.628,4.1,4.1,0,0,1,1.557-1.764,4.468,4.468,0,0,1,2.4-.63A4.146,4.146,0,0,1,70.481,14.979ZM65.127,18.66a4.73,4.73,0,0,0,.513,2.493,1.873,1.873,0,0,0,3.078-.009,4.738,4.738,0,0,0,.512-2.484,4.687,4.687,0,0,0-.512-2.475,1.69,1.69,0,0,0-1.521-.8Q65.126,15.384,65.127,18.66Z"/><path d="M80.211,14.772l-.9,1.35a4.487,4.487,0,0,0-2.394-.774,1.861,1.861,0,0,0-1.063.261.806.806,0,0,0-.377.693.868.868,0,0,0,.162.54,1.461,1.461,0,0,0,.585.405,9.8,9.8,0,0,0,1.251.423,5.508,5.508,0,0,1,2.3,1.1,2.457,2.457,0,0,1,.747,1.908A2.556,2.556,0,0,1,79.364,22.9a4.888,4.888,0,0,1-2.861.8,6.06,6.06,0,0,1-2.134-.36,5.18,5.18,0,0,1-1.665-.99l1.152-1.3a4.254,4.254,0,0,0,2.592.936,2.195,2.195,0,0,0,1.234-.306.965.965,0,0,0,.459-.846,1.132,1.132,0,0,0-.171-.657,1.418,1.418,0,0,0-.613-.432,12.845,12.845,0,0,0-1.377-.459,4.6,4.6,0,0,1-2.141-1.107,2.456,2.456,0,0,1-.685-1.773,2.362,2.362,0,0,1,.459-1.422,3.058,3.058,0,0,1,1.3-.99,4.816,4.816,0,0,1,1.917-.36A5.361,5.361,0,0,1,80.211,14.772Z"/><path d="M87.843,22.98a3.683,3.683,0,0,1-1.125.54,4.536,4.536,0,0,1-1.269.18,2.826,2.826,0,0,1-2.133-.8,3.28,3.28,0,0,1-.729-2.313V15.564H81.093V13.908h1.494V11.8l2.3-.27v2.376H87.1l-.233,1.656h-1.98v4.968a1.636,1.636,0,0,0,.243,1.008.918.918,0,0,0,.765.306,2.351,2.351,0,0,0,1.134-.342Z"/><path d="M101.235,14.952a6.687,6.687,0,0,1,.864,3.69,7.232,7.232,0,0,1-.441,2.619,3.981,3.981,0,0,1-1.3,1.791,3.257,3.257,0,0,1-2.025.648,2.969,2.969,0,0,1-2.394-1.044V27.1l-2.3.252V13.908h2.016l.126,1.17A3.723,3.723,0,0,1,97.059,14a3.338,3.338,0,0,1,1.512-.36A2.965,2.965,0,0,1,101.235,14.952ZM99.687,18.66a5.265,5.265,0,0,0-.45-2.52,1.466,1.466,0,0,0-1.35-.774,1.855,1.855,0,0,0-1.08.351,3.064,3.064,0,0,0-.864.945v4.284a2.02,2.02,0,0,0,1.745.99Q99.688,21.936,99.687,18.66Z"/><path d="M110.019,13.782l-.4,2.232a3.474,3.474,0,0,0-.846-.108,1.619,1.619,0,0,0-1.332.6,4.622,4.622,0,0,0-.773,1.845V23.43h-2.305V13.908h2l.216,1.872a3.44,3.44,0,0,1,.99-1.575,2.245,2.245,0,0,1,1.494-.549A3.412,3.412,0,0,1,110.019,13.782Z"/><path d="M118.091,14.979a5.385,5.385,0,0,1,1.18,3.681,6.107,6.107,0,0,1-.541,2.637,4.1,4.1,0,0,1-1.547,1.773,4.43,4.43,0,0,1-2.4.63,4.172,4.172,0,0,1-3.294-1.341,5.384,5.384,0,0,1-1.187-3.7,6.033,6.033,0,0,1,.54-2.628,4.094,4.094,0,0,1,1.556-1.764,4.472,4.472,0,0,1,2.4-.63A4.147,4.147,0,0,1,118.091,14.979Zm-5.355,3.681a4.73,4.73,0,0,0,.513,2.493,1.873,1.873,0,0,0,3.078-.009,4.737,4.737,0,0,0,.513-2.484,4.686,4.686,0,0,0-.513-2.475,1.688,1.688,0,0,0-1.52-.8Q112.736,15.384,112.736,18.66Z"/><path d="M123.716,22.584a5.578,5.578,0,0,1-.4,2.3,3.558,3.558,0,0,1-1.143,1.431,9.151,9.151,0,0,1-1.926,1.026l-.738-1.674a5.479,5.479,0,0,0,1.1-.639,1.968,1.968,0,0,0,.6-.855,4.112,4.112,0,0,0,.207-1.44v-8.82h2.3ZM123.6,9.489a1.357,1.357,0,0,1,.405,1,1.328,1.328,0,0,1-.405.99,1.442,1.442,0,0,1-1.053.4,1.419,1.419,0,0,1-1.035-.4,1.329,1.329,0,0,1-.406-.99,1.358,1.358,0,0,1,.406-1,1.4,1.4,0,0,1,1.035-.405A1.424,1.424,0,0,1,123.6,9.489Z"/><path d="M134.246,19.38h-5.975a3.023,3.023,0,0,0,.719,1.98,2.227,2.227,0,0,0,1.62.594,3.394,3.394,0,0,0,1.189-.207,5.563,5.563,0,0,0,1.187-.639l.954,1.314a5.477,5.477,0,0,1-3.528,1.278,4.245,4.245,0,0,1-3.356-1.332,5.288,5.288,0,0,1-1.179-3.636,6.515,6.515,0,0,1,.5-2.619,4.149,4.149,0,0,1,1.458-1.818,4.34,4.34,0,0,1,5.363.612,5.228,5.228,0,0,1,1.1,3.537C134.3,18.565,134.282,18.876,134.246,19.38Zm-2.231-1.6q0-2.5-1.855-2.5a1.573,1.573,0,0,0-1.322.621,3.692,3.692,0,0,0-.567,1.989h3.744Z"/><path d="M138.675,9.84V23.43H136.37V10.092Zm5.706,4.068L141.212,18.1l3.475,5.328H142.04l-3.275-5.2,3.185-4.32Z"/><path d="M151.436,22.98a3.683,3.683,0,0,1-1.125.54,4.541,4.541,0,0,1-1.269.18,2.824,2.824,0,0,1-2.133-.8,3.28,3.28,0,0,1-.729-2.313V15.564h-1.494V13.908h1.494V11.8l2.3-.27v2.376H150.7l-.233,1.656h-1.981v4.968a1.629,1.629,0,0,0,.244,1.008.918.918,0,0,0,.765.306,2.351,2.351,0,0,0,1.134-.342Z"/><path d="M159.6,14.979a5.384,5.384,0,0,1,1.179,3.681,6.107,6.107,0,0,1-.54,2.637,4.094,4.094,0,0,1-1.548,1.773,4.424,4.424,0,0,1-2.394.63A4.172,4.172,0,0,1,153,22.359a5.384,5.384,0,0,1-1.188-3.7,6.047,6.047,0,0,1,.54-2.628,4.1,4.1,0,0,1,1.557-1.764,4.471,4.471,0,0,1,2.4-.63A4.149,4.149,0,0,1,159.6,14.979Zm-5.355,3.681a4.73,4.73,0,0,0,.513,2.493,1.873,1.873,0,0,0,3.078-.009,4.737,4.737,0,0,0,.513-2.484,4.686,4.686,0,0,0-.513-2.475,1.69,1.69,0,0,0-1.521-.8Q154.244,15.384,154.244,18.66Z"/><path d="M170.48,13.908l-3.095,9.522H164.63l-3.15-9.522h2.5l2.035,7.668,2.087-7.668Z"/><path d="M176.511,23.466a5.851,5.851,0,0,1-1.746,2.745,5.553,5.553,0,0,1-3.2,1.143l-.235-1.674a5.78,5.78,0,0,0,1.5-.405,2.418,2.418,0,0,0,.908-.693,4.57,4.57,0,0,0,.63-1.152h-.792l-3.023-9.522H173L175.07,21.9l2.16-7.992h2.376Zm-.073-14.8.937,1.8-4.068,1.62-.649-1.17Z"/><path d="M186.42,13.908a4.5,4.5,0,0,1,1.413.846l-1.026,1.386a3.707,3.707,0,0,0-.937-.522,2.9,2.9,0,0,0-.989-.162q-2.143,0-2.143,3.258A3.975,3.975,0,0,0,183.3,21.1a1.875,1.875,0,0,0,1.584.729,2.575,2.575,0,0,0,.927-.162,6.023,6.023,0,0,0,1-.522l1.026,1.458a4.74,4.74,0,0,1-3.078,1.1,4.541,4.541,0,0,1-2.376-.6,3.94,3.94,0,0,1-1.548-1.719,5.974,5.974,0,0,1-.54-2.628,6.273,6.273,0,0,1,.54-2.673,4.126,4.126,0,0,1,1.548-1.8,4.317,4.317,0,0,1,2.357-.639A4.933,4.933,0,0,1,186.42,13.908Z"/><path d="M196.562,14.412a3,3,0,0,1,.72,2.124V23.43h-2.3V16.9a1.828,1.828,0,0,0-.3-1.188,1.1,1.1,0,0,0-.872-.342,1.719,1.719,0,0,0-1.063.369,4.2,4.2,0,0,0-.935,1.053V23.43h-2.305V10.11l2.305-.234v5.166a3.474,3.474,0,0,1,2.771-1.4A2.575,2.575,0,0,1,196.562,14.412Z"/><path d="M210.656,13.908v1.656l-4.608,6.066h4.7l-.234,1.8H203.4V21.774l4.626-6.066H203.8v-1.8Zm-1.17-4.878.882,1.008-2.5,2.25h-1.44l-2.5-2.25.882-1.008,2.34,1.584Z"/><path d="M219.484,21.729a1.1,1.1,0,0,0,.549.405l-.485,1.53a2.94,2.94,0,0,1-1.323-.4,2.031,2.031,0,0,1-.784-.99,3.049,3.049,0,0,1-1.214,1.071,3.713,3.713,0,0,1-1.629.351,3.076,3.076,0,0,1-2.25-.81,2.838,2.838,0,0,1-.828-2.124,2.748,2.748,0,0,1,1.125-2.367,5.4,5.4,0,0,1,3.212-.819h1.189v-.54a1.647,1.647,0,0,0-.423-1.287,2.045,2.045,0,0,0-1.359-.369,8.039,8.039,0,0,0-2.521.5l-.539-1.566a9.617,9.617,0,0,1,3.455-.684q3.656,0,3.654,3.276v4A1.528,1.528,0,0,0,219.484,21.729ZM217.046,8.67l.935,1.8-4.067,1.62-.648-1.17Zm0,12.186V18.93h-.954q-2.232,0-2.233,1.656a1.53,1.53,0,0,0,.342,1.062,1.294,1.294,0,0,0,1.009.378A2.039,2.039,0,0,0,217.046,20.856Z"/><path d="M230.114,10.092V23.43H228.08l-.162-1.206a3.327,3.327,0,0,1-1.144,1.08,3.116,3.116,0,0,1-1.574.4,3.066,3.066,0,0,1-2.682-1.35,6.35,6.35,0,0,1-.936-3.672,6.8,6.8,0,0,1,.468-2.6,4.1,4.1,0,0,1,1.341-1.791,3.384,3.384,0,0,1,4.419.378V9.84Zm-3.186,11.565a3.086,3.086,0,0,0,.882-.927V16.374a3.338,3.338,0,0,0-.837-.756,1.885,1.885,0,0,0-.981-.252,1.645,1.645,0,0,0-1.449.819,4.6,4.6,0,0,0-.531,2.475,5.094,5.094,0,0,0,.467,2.529,1.511,1.511,0,0,0,1.369.765A1.974,1.974,0,0,0,226.928,21.657Z"/><path d="M240.059,14.979a5.384,5.384,0,0,1,1.179,3.681,6.107,6.107,0,0,1-.54,2.637,4.094,4.094,0,0,1-1.548,1.773,4.424,4.424,0,0,1-2.394.63,4.172,4.172,0,0,1-3.294-1.341,5.384,5.384,0,0,1-1.188-3.7,6.047,6.047,0,0,1,.54-2.628,4.1,4.1,0,0,1,1.557-1.764,4.471,4.471,0,0,1,2.4-.63A4.149,4.149,0,0,1,240.059,14.979ZM234.7,18.66a4.73,4.73,0,0,0,.513,2.493,1.873,1.873,0,0,0,3.078-.009,4.737,4.737,0,0,0,.513-2.484,4.686,4.686,0,0,0-.513-2.475,1.69,1.69,0,0,0-1.521-.8Q234.7,15.384,234.7,18.66Z"/><path d="M249.788,14.772l-.9,1.35a4.487,4.487,0,0,0-2.394-.774,1.858,1.858,0,0,0-1.062.261.8.8,0,0,0-.378.693.868.868,0,0,0,.162.54,1.468,1.468,0,0,0,.585.405,9.8,9.8,0,0,0,1.251.423,5.5,5.5,0,0,1,2.3,1.1,2.457,2.457,0,0,1,.747,1.908,2.556,2.556,0,0,1-1.153,2.223,4.888,4.888,0,0,1-2.861.8,6.06,6.06,0,0,1-2.134-.36,5.18,5.18,0,0,1-1.665-.99l1.153-1.3a4.249,4.249,0,0,0,2.591.936,2.195,2.195,0,0,0,1.234-.306.965.965,0,0,0,.459-.846,1.132,1.132,0,0,0-.171-.657,1.408,1.408,0,0,0-.612-.432,12.845,12.845,0,0,0-1.377-.459,4.6,4.6,0,0,1-2.142-1.107,2.456,2.456,0,0,1-.685-1.773,2.362,2.362,0,0,1,.459-1.422,3.058,3.058,0,0,1,1.3-.99,4.819,4.819,0,0,1,1.917-.36A5.359,5.359,0,0,1,249.788,14.772Z"/><path d="M257.419,22.98a3.683,3.683,0,0,1-1.125.54,4.536,4.536,0,0,1-1.269.18,2.822,2.822,0,0,1-2.132-.8,3.275,3.275,0,0,1-.73-2.313V15.564h-1.494V13.908h1.494V11.8l2.3-.27v2.376h2.214l-.234,1.656h-1.98v4.968a1.636,1.636,0,0,0,.243,1.008.919.919,0,0,0,.766.306,2.351,2.351,0,0,0,1.133-.342Z"/><path d="M261.235,8.67l.936,1.8L258.1,12.09l-.649-1.17Zm-.215,5.238V23.43h-2.305V13.908Z"/></g><path d="M4.566,39.561V49.836h-.9V39.561Zm5.385,0-4.26,4.725,4.515,5.55H9.111l-4.485-5.5,4.29-4.77Z"/><path d="M15.621,41.916l-.165.824a2.653,2.653,0,0,0-.69-.09,1.6,1.6,0,0,0-1.283.578,4.743,4.743,0,0,0-.817,1.808v4.8H11.8V41.99h.75l.075,1.756a3.139,3.139,0,0,1,.862-1.448,2.007,2.007,0,0,1,1.358-.472A2.883,2.883,0,0,1,15.621,41.916Z"/><path d="M21.9,48.981a.964.964,0,0,0,.5.4l-.2.616a1.548,1.548,0,0,1-.832-.406,1.617,1.617,0,0,1-.383-.914A2.678,2.678,0,0,1,18.546,50a2.433,2.433,0,0,1-1.777-.638,2.271,2.271,0,0,1-.653-1.7,2.22,2.22,0,0,1,.863-1.875,3.855,3.855,0,0,1,2.392-.66h1.5V44.36a1.9,1.9,0,0,0-.42-1.372,1.9,1.9,0,0,0-1.394-.427,6.369,6.369,0,0,0-2.13.449l-.226-.659a6.719,6.719,0,0,1,2.476-.525,2.234,2.234,0,0,1,2.564,2.49V48.1A1.867,1.867,0,0,0,21.9,48.981Zm-1.027-1.065V45.755H19.507a3.056,3.056,0,0,0-1.83.465,1.625,1.625,0,0,0-.631,1.4,1.685,1.685,0,0,0,.435,1.245A1.644,1.644,0,0,0,18.7,49.3,2.381,2.381,0,0,0,20.871,47.916Z"/><path d="M25.626,49.55a4.8,4.8,0,0,1-.225,1.628,2.283,2.283,0,0,1-.66.975,5.31,5.31,0,0,1-1.23.727l-.255-.629a3.988,3.988,0,0,0,.878-.563,1.731,1.731,0,0,0,.465-.765,4.572,4.572,0,0,0,.157-1.342V41.99h.87Zm.03-10.83a.654.654,0,0,1,0,.9.652.652,0,0,1-.48.179.632.632,0,0,1-.465-.179.654.654,0,0,1,0-.9.632.632,0,0,1,.465-.179A.652.652,0,0,1,25.656,38.72Z"/><path d="M32.061,42.043a4.413,4.413,0,0,1,1.169.652l-.4.571a4.47,4.47,0,0,0-1.02-.548,3.088,3.088,0,0,0-1.05-.173,2.05,2.05,0,0,0-1.26.36,1.143,1.143,0,0,0-.48.96,1.048,1.048,0,0,0,.413.886,4.53,4.53,0,0,0,1.492.6,4.75,4.75,0,0,1,1.928.869,1.9,1.9,0,0,1,.591,1.5,1.978,1.978,0,0,1-.809,1.665A3.254,3.254,0,0,1,30.605,50a4.326,4.326,0,0,1-1.574-.263A4.187,4.187,0,0,1,27.8,49l.48-.555a3.862,3.862,0,0,0,1.073.622,3.542,3.542,0,0,0,1.237.2,2.284,2.284,0,0,0,1.4-.4,1.3,1.3,0,0,0,.532-1.1,1.505,1.505,0,0,0-.179-.781,1.442,1.442,0,0,0-.616-.517,7.093,7.093,0,0,0-1.274-.443,4.38,4.38,0,0,1-1.793-.824,1.693,1.693,0,0,1-.547-1.321,1.742,1.742,0,0,1,.345-1.057,2.262,2.262,0,0,1,.937-.735,3.242,3.242,0,0,1,1.328-.262A3.9,3.9,0,0,1,32.061,42.043Z"/><path d="M36.636,38.691V49.836h-.87V38.8Zm4.395,3.3L37.73,45.5l3.646,4.335h-1.05l-3.6-4.291,3.3-3.555Z"/><path d="M48.516,46.251H43.28a3.651,3.651,0,0,0,.728,2.272,2.177,2.177,0,0,0,1.718.743,2.93,2.93,0,0,0,1.087-.188,4.776,4.776,0,0,0,1.028-.593l.405.556a4.449,4.449,0,0,1-1.2.719A3.726,3.726,0,0,1,45.681,50a3.009,3.009,0,0,1-2.446-1.065,4.5,4.5,0,0,1-.884-2.955,5.767,5.767,0,0,1,.382-2.183,3.279,3.279,0,0,1,1.1-1.455,2.744,2.744,0,0,1,1.657-.517,2.705,2.705,0,0,1,2.281,1.012,4.464,4.464,0,0,1,.78,2.783C48.546,45.84,48.535,46.05,48.516,46.251Zm-.826-.9a3.424,3.424,0,0,0-.546-2.063,1.9,1.9,0,0,0-1.628-.743,1.922,1.922,0,0,0-1.576.75,3.874,3.874,0,0,0-.66,2.281h4.41Zm-1.035-7.245.391.779-2.925,1.276-.285-.511Z"/><path d="M60.583,42.883a5.329,5.329,0,0,1,.712,2.993,5.2,5.2,0,0,1-.773,3.007A2.524,2.524,0,0,1,58.311,50a2.753,2.753,0,0,1-1.276-.293,2.871,2.871,0,0,1-.96-.788v3.871l-.87.12V41.99h.75l.075,1.14a3.181,3.181,0,0,1,1.058-.96,2.762,2.762,0,0,1,1.357-.344A2.406,2.406,0,0,1,60.583,42.883ZM59.8,48.411a4.6,4.6,0,0,0,.57-2.535q0-3.331-2.085-3.331a2.092,2.092,0,0,0-1.222.36,4.319,4.319,0,0,0-.983.991v4.17a2.372,2.372,0,0,0,2.071,1.2A1.861,1.861,0,0,0,59.8,48.411Z"/><path d="M67.745,41.916l-.165.824a2.653,2.653,0,0,0-.69-.09,1.6,1.6,0,0,0-1.283.578,4.743,4.743,0,0,0-.817,1.808v4.8h-.87V41.99h.75l.075,1.756a3.139,3.139,0,0,1,.862-1.448,2.007,2.007,0,0,1,1.358-.472A2.883,2.883,0,0,1,67.745,41.916Z"/><path d="M74.2,42.9a4.6,4.6,0,0,1,.878,2.993,4.645,4.645,0,0,1-.893,3.007,3.26,3.26,0,0,1-4.875.015,4.643,4.643,0,0,1-.877-2.993,5.389,5.389,0,0,1,.4-2.174,3.018,3.018,0,0,1,2.925-1.92A2.974,2.974,0,0,1,74.2,42.9ZM70,43.416a4.184,4.184,0,0,0-.63,2.5,4.2,4.2,0,0,0,.623,2.491,2.051,2.051,0,0,0,1.763.855,2.09,2.09,0,0,0,1.777-.855,4.183,4.183,0,0,0,.638-2.52,4.163,4.163,0,0,0-.623-2.483A2.275,2.275,0,0,0,70,43.416Z"/><path d="M78.5,49.55a4.8,4.8,0,0,1-.225,1.628,2.283,2.283,0,0,1-.66.975,5.31,5.31,0,0,1-1.23.727l-.255-.629a3.988,3.988,0,0,0,.878-.563,1.731,1.731,0,0,0,.465-.765,4.572,4.572,0,0,0,.157-1.342V41.99h.87Zm.03-10.83a.654.654,0,0,1,0,.9.652.652,0,0,1-.48.179.632.632,0,0,1-.465-.179.654.654,0,0,1,0-.9.632.632,0,0,1,.465-.179A.652.652,0,0,1,78.53,38.72Z"/><path d="M87.215,46.251H81.979a3.651,3.651,0,0,0,.728,2.272,2.179,2.179,0,0,0,1.718.743,2.939,2.939,0,0,0,1.088-.188,4.8,4.8,0,0,0,1.027-.593l.4.556a4.434,4.434,0,0,1-1.2.719A3.726,3.726,0,0,1,84.38,50a3.005,3.005,0,0,1-2.445-1.065,4.493,4.493,0,0,1-.885-2.955,5.748,5.748,0,0,1,.383-2.183,3.277,3.277,0,0,1,1.094-1.455,2.747,2.747,0,0,1,1.658-.517,2.7,2.7,0,0,1,2.28,1.012,4.464,4.464,0,0,1,.78,2.783C87.245,45.84,87.234,46.05,87.215,46.251Zm-.825-.9a3.424,3.424,0,0,0-.547-2.063,1.894,1.894,0,0,0-1.628-.743,1.918,1.918,0,0,0-1.575.75,3.874,3.874,0,0,0-.661,2.281H86.39Z"/><path d="M90.59,38.691V49.836h-.87V38.8Zm4.395,3.3-3.3,3.511,3.645,4.335H94.28l-3.6-4.291,3.3-3.555Z"/><path d="M100.61,49.505a2.924,2.924,0,0,1-1.65.5,1.86,1.86,0,0,1-1.41-.533,2.136,2.136,0,0,1-.51-1.537V42.7H95.72v-.7h1.32V40.115l.87-.105v1.98h2.026l-.106.7H97.91v5.19a1.565,1.565,0,0,0,.285,1.028,1.075,1.075,0,0,0,.87.338,2.387,2.387,0,0,0,1.2-.346Z"/><path d="M104.585,49.865a7.038,7.038,0,0,1-.689,1.5,3.164,3.164,0,0,1-.976.968,4.409,4.409,0,0,1-1.545.563l-.09-.676a4.146,4.146,0,0,0,1.223-.48,2.228,2.228,0,0,0,.7-.712,6.473,6.473,0,0,0,.532-1.192h-.3l-2.73-7.846h.945l2.37,7.2,2.325-7.2h.916Z"/><path d="M118.789,49.836h-.75l-.045-1.395A2.86,2.86,0,0,1,115.43,50a2.13,2.13,0,0,1-1.643-.623,2.513,2.513,0,0,1-.578-1.777V41.99h.87v5.52a1.974,1.974,0,0,0,.383,1.343,1.48,1.48,0,0,0,1.162.427,2.679,2.679,0,0,0,2.3-1.605V41.99h.87Z"/><path d="M125.224,42.043a4.434,4.434,0,0,1,1.17.652l-.405.571a4.47,4.47,0,0,0-1.02-.548,3.088,3.088,0,0,0-1.05-.173,2.052,2.052,0,0,0-1.26.36,1.143,1.143,0,0,0-.48.96,1.048,1.048,0,0,0,.413.886,4.53,4.53,0,0,0,1.492.6,4.75,4.75,0,0,1,1.928.869,1.9,1.9,0,0,1,.592,1.5,1.979,1.979,0,0,1-.81,1.665,3.253,3.253,0,0,1-2.025.616,4.331,4.331,0,0,1-1.575-.263,4.187,4.187,0,0,1-1.23-.742l.48-.555a3.862,3.862,0,0,0,1.073.622,3.542,3.542,0,0,0,1.237.2,2.284,2.284,0,0,0,1.4-.4,1.3,1.3,0,0,0,.532-1.1,1.505,1.505,0,0,0-.179-.781,1.445,1.445,0,0,0-.615-.517,7.108,7.108,0,0,0-1.275-.443,4.38,4.38,0,0,1-1.793-.824,1.693,1.693,0,0,1-.547-1.321,1.749,1.749,0,0,1,.345-1.057,2.265,2.265,0,0,1,.938-.735,3.234,3.234,0,0,1,1.327-.262A3.9,3.9,0,0,1,125.224,42.043Z"/><path d="M134.307,42.883a5.337,5.337,0,0,1,.712,2.993,5.2,5.2,0,0,1-.773,3.007A2.527,2.527,0,0,1,132.034,50a2.749,2.749,0,0,1-1.275-.293,2.871,2.871,0,0,1-.96-.788v3.871l-.87.12V41.99h.75l.075,1.14a3.172,3.172,0,0,1,1.058-.96,2.762,2.762,0,0,1,1.357-.344A2.407,2.407,0,0,1,134.307,42.883Zm-.788,5.528a4.607,4.607,0,0,0,.57-2.535q0-3.331-2.085-3.331a2.1,2.1,0,0,0-1.223.36,4.316,4.316,0,0,0-.982.991v4.17a2.371,2.371,0,0,0,2.07,1.2A1.861,1.861,0,0,0,133.519,48.411Z"/><path d="M143.179,46.251h-5.236a3.651,3.651,0,0,0,.728,2.272,2.177,2.177,0,0,0,1.718.743,2.939,2.939,0,0,0,1.088-.188,4.8,4.8,0,0,0,1.027-.593l.405.556a4.434,4.434,0,0,1-1.2.719,3.726,3.726,0,0,1-1.365.241,3.009,3.009,0,0,1-2.446-1.065,4.5,4.5,0,0,1-.884-2.955A5.767,5.767,0,0,1,137.4,43.8a3.279,3.279,0,0,1,1.1-1.455,2.746,2.746,0,0,1,1.657-.517,2.705,2.705,0,0,1,2.281,1.012,4.464,4.464,0,0,1,.78,2.783C143.209,45.84,143.2,46.05,143.179,46.251Zm-.825-.9a3.424,3.424,0,0,0-.547-2.063,1.9,1.9,0,0,0-1.628-.743,1.918,1.918,0,0,0-1.575.75,3.867,3.867,0,0,0-.661,2.281h4.411Zm-.345-7.051.389.451-1.934,1.589h-.54l-1.95-1.589.389-.451,1.83,1.261Z"/><path d="M145.977,49.626a1.522,1.522,0,0,1-.369-1.11V38.8l.871-.1v9.794q0,.767.629.766a1.281,1.281,0,0,0,.54-.1l.241.645a2,2,0,0,1-.9.21A1.349,1.349,0,0,1,145.977,49.626Z"/><path d="M152.3,49.865a7.036,7.036,0,0,1-.69,1.5,3.161,3.161,0,0,1-.975.968,4.417,4.417,0,0,1-1.545.563L149,52.22a4.146,4.146,0,0,0,1.223-.48,2.228,2.228,0,0,0,.7-.712,6.473,6.473,0,0,0,.532-1.192h-.3l-2.73-7.846h.945l2.37,7.2,2.325-7.2h.915Z"/><path d="M164.254,42.043a4.434,4.434,0,0,1,1.17.652l-.4.571A4.5,4.5,0,0,0,164,42.718a3.084,3.084,0,0,0-1.05-.173,2.054,2.054,0,0,0-1.26.36,1.143,1.143,0,0,0-.48.96,1.05,1.05,0,0,0,.413.886,4.54,4.54,0,0,0,1.492.6,4.75,4.75,0,0,1,1.928.869,1.9,1.9,0,0,1,.592,1.5,1.979,1.979,0,0,1-.81,1.665A3.253,3.253,0,0,1,162.8,50a4.322,4.322,0,0,1-1.574-.263A4.18,4.18,0,0,1,159.994,49l.481-.555a3.857,3.857,0,0,0,1.072.622,3.542,3.542,0,0,0,1.237.2,2.289,2.289,0,0,0,1.4-.4,1.3,1.3,0,0,0,.532-1.1,1.5,1.5,0,0,0-.18-.781,1.445,1.445,0,0,0-.615-.517,7.108,7.108,0,0,0-1.275-.443,4.386,4.386,0,0,1-1.793-.824,1.692,1.692,0,0,1-.546-1.321,1.748,1.748,0,0,1,.344-1.057,2.265,2.265,0,0,1,.938-.735,3.237,3.237,0,0,1,1.327-.262A3.9,3.9,0,0,1,164.254,42.043Z"/><path d="M174.934,39.86v9.976h-.871V40.82L171.6,42.351l-.406-.645,2.986-1.846Z"/><path d="M180.948,39.86v9.976h-.87V40.82l-2.46,1.531-.405-.645L180.2,39.86Z"/><path d="M192.769,41.99v.676l-4.38,6.42h4.349l-.09.75h-5.28v-.675l4.38-6.421h-4.019v-.75Z"/><path d="M200.313,46.251h-5.235a3.651,3.651,0,0,0,.728,2.272,2.175,2.175,0,0,0,1.717.743,2.932,2.932,0,0,0,1.088-.188,4.776,4.776,0,0,0,1.028-.593l.405.556a4.449,4.449,0,0,1-1.2.719,3.726,3.726,0,0,1-1.365.241,3.007,3.007,0,0,1-2.446-1.065,4.493,4.493,0,0,1-.885-2.955,5.748,5.748,0,0,1,.383-2.183,3.272,3.272,0,0,1,1.095-1.455,2.744,2.744,0,0,1,1.657-.517,2.7,2.7,0,0,1,2.28,1.012,4.458,4.458,0,0,1,.781,2.783C200.344,45.84,200.333,46.05,200.313,46.251Zm-.825-.9a3.417,3.417,0,0,0-.547-2.063,1.894,1.894,0,0,0-1.628-.743,1.921,1.921,0,0,0-1.575.75,3.874,3.874,0,0,0-.66,2.281h4.41Z"/><path d="M209.793,39.86v9.976h-.87V40.82l-2.46,1.531-.405-.645,2.985-1.846Z"/><path d="M218.854,46.49v.721H217.5v2.625h-.855V47.211h-4.365v-.645l3.045-6.871.735.3-2.849,6.494h3.434l.1-2.924h.75V46.49Z"/><path d="M230.53,42.883a5.329,5.329,0,0,1,.712,2.993,5.205,5.205,0,0,1-.772,3.007A2.527,2.527,0,0,1,228.258,50a2.753,2.753,0,0,1-1.276-.293,2.881,2.881,0,0,1-.96-.788v3.871l-.87.12V41.99h.75l.076,1.14a3.178,3.178,0,0,1,1.057-.96,2.763,2.763,0,0,1,1.358-.344A2.4,2.4,0,0,1,230.53,42.883Zm-.788,5.528a4.6,4.6,0,0,0,.57-2.535q0-3.331-2.084-3.331a2.1,2.1,0,0,0-1.223.36,4.319,4.319,0,0,0-.983.991v4.17a2.372,2.372,0,0,0,2.071,1.2A1.861,1.861,0,0,0,229.742,48.411Z"/><path d="M239.005,42.9a4.6,4.6,0,0,1,.878,2.993,4.645,4.645,0,0,1-.893,3.007,3.26,3.26,0,0,1-4.875.015,4.638,4.638,0,0,1-.878-2.993,5.389,5.389,0,0,1,.406-2.174,3.017,3.017,0,0,1,2.924-1.92A2.976,2.976,0,0,1,239.005,42.9Zm-4.208.518a4.184,4.184,0,0,0-.63,2.5,4.2,4.2,0,0,0,.623,2.491,2.051,2.051,0,0,0,1.763.855,2.093,2.093,0,0,0,1.777-.855,4.183,4.183,0,0,0,.638-2.52,4.163,4.163,0,0,0-.623-2.483,2.275,2.275,0,0,0-3.548.008Z"/><path d="M248.027,38.8V49.836h-.75l-.1-1.2A2.586,2.586,0,0,1,244.817,50a2.516,2.516,0,0,1-2.152-1.088,4.964,4.964,0,0,1-.787-2.962,5.808,5.808,0,0,1,.367-2.145,3.277,3.277,0,0,1,1.066-1.455,2.651,2.651,0,0,1,1.642-.525,2.727,2.727,0,0,1,2.2,1.065v-4.2ZM246.221,48.92a3.285,3.285,0,0,0,.937-1.094V43.731a2.464,2.464,0,0,0-2.055-1.186,1.958,1.958,0,0,0-1.688.886,4.242,4.242,0,0,0-.607,2.505,4.5,4.5,0,0,0,.57,2.482,1.789,1.789,0,0,0,1.575.862A2.161,2.161,0,0,0,246.221,48.92Z"/><path d="M256.239,48.981a.964.964,0,0,0,.5.4l-.195.616a1.548,1.548,0,0,1-.832-.406,1.617,1.617,0,0,1-.383-.914A2.678,2.678,0,0,1,252.887,50a2.437,2.437,0,0,1-1.778-.638,2.274,2.274,0,0,1-.652-1.7,2.222,2.222,0,0,1,.862-1.875,3.858,3.858,0,0,1,2.393-.66h1.5V44.36a1.542,1.542,0,0,0-1.815-1.8,6.369,6.369,0,0,0-2.129.449l-.226-.659a6.719,6.719,0,0,1,2.476-.525,2.234,2.234,0,0,1,2.564,2.49V48.1A1.867,1.867,0,0,0,256.239,48.981Zm-1.027-1.065V45.755h-1.364a3.056,3.056,0,0,0-1.83.465,1.625,1.625,0,0,0-.631,1.4,1.685,1.685,0,0,0,.435,1.245,1.644,1.644,0,0,0,1.215.435A2.381,2.381,0,0,0,255.212,47.916Z"/><path d="M264.34,42.456a2.567,2.567,0,0,1,.562,1.77v5.61h-.87V44.345a2.088,2.088,0,0,0-.375-1.38,1.385,1.385,0,0,0-1.11-.435,2.223,2.223,0,0,0-1.327.413,4.531,4.531,0,0,0-1.1,1.207v5.686h-.87V41.99H260l.09,1.336a3.667,3.667,0,0,1,1.141-1.1,2.816,2.816,0,0,1,1.484-.4A2.069,2.069,0,0,1,264.34,42.456Z"/><path d="M270.377,49.865a7.038,7.038,0,0,1-.689,1.5,3.164,3.164,0,0,1-.976.968,4.417,4.417,0,0,1-1.545.563l-.09-.676a4.146,4.146,0,0,0,1.223-.48,2.228,2.228,0,0,0,.7-.712,6.473,6.473,0,0,0,.532-1.192h-.3l-2.73-7.846h.945l2.37,7.2,2.325-7.2h.915Zm.54-11.759.391.779-2.926,1.276-.284-.511Z"/><path d="M278.747,42.013a3.293,3.293,0,0,1,1.021.608l-.436.57a2.806,2.806,0,0,0-.8-.465,2.733,2.733,0,0,0-.937-.15,2.117,2.117,0,0,0-1.771.862,4.081,4.081,0,0,0-.66,2.513,3.914,3.914,0,0,0,.653,2.46,2.127,2.127,0,0,0,1.762.824,2.6,2.6,0,0,0,.953-.165,3.555,3.555,0,0,0,.863-.494l.419.585a3.382,3.382,0,0,1-2.25.84,3.192,3.192,0,0,1-1.754-.48,3.139,3.139,0,0,1-1.163-1.388,5.206,5.206,0,0,1-.413-2.168,5.379,5.379,0,0,1,.413-2.182,3.3,3.3,0,0,1,1.163-1.447,3.02,3.02,0,0,1,1.74-.51A3.555,3.555,0,0,1,278.747,42.013Z"/><path d="M286.982,42.463a2.552,2.552,0,0,1,.571,1.763v5.61h-.87V44.345q0-1.813-1.486-1.815a2.225,2.225,0,0,0-1.327.413,4.513,4.513,0,0,0-1.1,1.207v5.686H281.9V38.8l.871-.1v4.6a3.105,3.105,0,0,1,2.594-1.469A2.058,2.058,0,0,1,286.982,42.463Z"/><path d="M300.22,42.883a5.337,5.337,0,0,1,.712,2.993,5.2,5.2,0,0,1-.773,3.007A2.526,2.526,0,0,1,297.947,50a2.752,2.752,0,0,1-1.275-.293,2.871,2.871,0,0,1-.96-.788v3.871l-.87.12V41.99h.75l.075,1.14a3.181,3.181,0,0,1,1.058-.96,2.762,2.762,0,0,1,1.357-.344A2.407,2.407,0,0,1,300.22,42.883Zm-.788,5.528a4.6,4.6,0,0,0,.57-2.535q0-3.331-2.085-3.331a2.1,2.1,0,0,0-1.223.36,4.316,4.316,0,0,0-.982.991v4.17a2.371,2.371,0,0,0,2.07,1.2A1.861,1.861,0,0,0,299.432,48.411Z"/><path d="M307.382,41.916l-.165.824a2.655,2.655,0,0,0-.691-.09,1.6,1.6,0,0,0-1.282.578,4.728,4.728,0,0,0-.817,1.808v4.8h-.87V41.99h.75l.075,1.756a3.139,3.139,0,0,1,.862-1.448,2.006,2.006,0,0,1,1.358-.472A2.883,2.883,0,0,1,307.382,41.916Z"/><path d="M313.84,42.9a4.6,4.6,0,0,1,.878,2.993,4.645,4.645,0,0,1-.893,3.007,3.26,3.26,0,0,1-4.875.015,4.638,4.638,0,0,1-.878-2.993,5.389,5.389,0,0,1,.406-2.174,3.017,3.017,0,0,1,2.924-1.92A2.976,2.976,0,0,1,313.84,42.9Zm-4.208.518a4.184,4.184,0,0,0-.63,2.5,4.2,4.2,0,0,0,.623,2.491,2.051,2.051,0,0,0,1.763.855,2.093,2.093,0,0,0,1.777-.855,4.183,4.183,0,0,0,.638-2.52,4.163,4.163,0,0,0-.623-2.483,2.275,2.275,0,0,0-3.548.008Z"/><path d="M318.137,49.55a4.8,4.8,0,0,1-.225,1.628,2.283,2.283,0,0,1-.66.975,5.3,5.3,0,0,1-1.231.727l-.254-.629a4.037,4.037,0,0,0,.878-.563,1.721,1.721,0,0,0,.464-.765,4.534,4.534,0,0,0,.158-1.342V41.99h.87Zm.03-10.83a.654.654,0,0,1,0,.9.652.652,0,0,1-.48.179.632.632,0,0,1-.465-.179.654.654,0,0,1,0-.9.632.632,0,0,1,.465-.179A.652.652,0,0,1,318.167,38.72Z"/><path d="M326.852,46.251h-5.236a3.651,3.651,0,0,0,.728,2.272,2.177,2.177,0,0,0,1.718.743,2.93,2.93,0,0,0,1.087-.188,4.776,4.776,0,0,0,1.028-.593l.4.556a4.449,4.449,0,0,1-1.2.719,3.726,3.726,0,0,1-1.365.241,3.009,3.009,0,0,1-2.446-1.065,4.493,4.493,0,0,1-.884-2.955,5.748,5.748,0,0,1,.382-2.183,3.272,3.272,0,0,1,1.095-1.455,2.744,2.744,0,0,1,1.657-.517,2.705,2.705,0,0,1,2.281,1.012,4.464,4.464,0,0,1,.78,2.783C326.882,45.84,326.871,46.05,326.852,46.251Zm-.826-.9a3.417,3.417,0,0,0-.547-2.063,1.894,1.894,0,0,0-1.627-.743,1.922,1.922,0,0,0-1.576.75,3.874,3.874,0,0,0-.66,2.281h4.41Z"/><path d="M330.227,38.691V49.836h-.871V38.8Zm4.4,3.3-3.3,3.511,3.646,4.335h-1.05l-3.6-4.291,3.3-3.555Z"/><path d="M340.247,49.505a2.927,2.927,0,0,1-1.65.5,1.859,1.859,0,0,1-1.41-.533,2.136,2.136,0,0,1-.51-1.537V42.7h-1.321v-.7h1.321V40.115l.87-.105v1.98h2.025l-.105.7h-1.92v5.19a1.565,1.565,0,0,0,.285,1.028,1.074,1.074,0,0,0,.87.338,2.381,2.381,0,0,0,1.2-.346Z"/><path d="M347.3,49.836h-.75l-.045-1.395A2.861,2.861,0,0,1,343.937,50a2.13,2.13,0,0,1-1.643-.623,2.513,2.513,0,0,1-.578-1.777V41.99h.87v5.52a1.974,1.974,0,0,0,.383,1.343,1.48,1.48,0,0,0,1.162.427,2.679,2.679,0,0,0,2.3-1.605V41.99h.87Zm-1.733-11.918a1.445,1.445,0,0,1,0,2.025,1.46,1.46,0,0,1-1.057.4,1.48,1.48,0,0,1-1.072-.4,1.448,1.448,0,0,1,0-2.025,1.48,1.48,0,0,1,1.072-.4A1.46,1.46,0,0,1,345.563,37.918Zm-1.679.375a1.053,1.053,0,0,0,0,1.283.823.823,0,0,0,.622.224.8.8,0,0,0,.607-.224,1.053,1.053,0,0,0,0-1.283.788.788,0,0,0-.607-.232A.808.808,0,0,0,343.884,38.293Z"/><path d="M350.949,48.778a.682.682,0,0,1,.2.5,2.093,2.093,0,0,1-.224.826l-.84,1.995h-.63l.6-2.2a.615.615,0,0,1-.255-.255.741.741,0,0,1-.09-.361.667.667,0,0,1,.21-.5.754.754,0,0,1,1.027,0Z"/><path d="M366.908,42.47a2.626,2.626,0,0,1,.548,1.756v5.61h-.87V44.345a2.19,2.19,0,0,0-.353-1.372,1.185,1.185,0,0,0-.982-.443,1.847,1.847,0,0,0-1.186.421,4.858,4.858,0,0,0-1.019,1.2v5.686h-.87V44.345a2.184,2.184,0,0,0-.353-1.372,1.185,1.185,0,0,0-.982-.443,1.861,1.861,0,0,0-1.2.421,4.61,4.61,0,0,0-1,1.2v5.686h-.87V41.99h.75l.075,1.336a3.575,3.575,0,0,1,1.065-1.1,2.434,2.434,0,0,1,1.35-.4,1.939,1.939,0,0,1,1.26.412,2.057,2.057,0,0,1,.69,1.147,3.762,3.762,0,0,1,1.087-1.147,2.434,2.434,0,0,1,1.373-.412A1.856,1.856,0,0,1,366.908,42.47Z"/><path d="M375.593,48.981a.957.957,0,0,0,.5.4l-.2.616a1.552,1.552,0,0,1-.832-.406,1.609,1.609,0,0,1-.382-.914A2.68,2.68,0,0,1,372.24,50a2.433,2.433,0,0,1-1.777-.638,2.27,2.27,0,0,1-.652-1.7,2.222,2.222,0,0,1,.862-1.875,3.855,3.855,0,0,1,2.392-.66h1.5V44.36a1.541,1.541,0,0,0-1.814-1.8,6.369,6.369,0,0,0-2.13.449l-.225-.659a6.714,6.714,0,0,1,2.475-.525,2.235,2.235,0,0,1,2.565,2.49V48.1A1.855,1.855,0,0,0,375.593,48.981Zm-1.028-1.065V45.755H373.2a3.056,3.056,0,0,0-1.83.465,1.625,1.625,0,0,0-.631,1.4,1.685,1.685,0,0,0,.436,1.245,1.642,1.642,0,0,0,1.215.435A2.38,2.38,0,0,0,374.565,47.916Z"/><path d="M378.744,49.626a1.526,1.526,0,0,1-.368-1.11V38.8l.87-.1v9.794q0,.767.63.766a1.281,1.281,0,0,0,.54-.1l.24.645a2,2,0,0,1-.9.21A1.35,1.35,0,0,1,378.744,49.626Z"/><path d="M388.171,46.251h-5.235a3.651,3.651,0,0,0,.727,2.272,2.179,2.179,0,0,0,1.718.743,2.939,2.939,0,0,0,1.088-.188,4.8,4.8,0,0,0,1.027-.593l.405.556a4.434,4.434,0,0,1-1.2.719,3.726,3.726,0,0,1-1.365.241,3.005,3.005,0,0,1-2.445-1.065,4.493,4.493,0,0,1-.885-2.955,5.748,5.748,0,0,1,.383-2.183,3.277,3.277,0,0,1,1.094-1.455,2.747,2.747,0,0,1,1.658-.517,2.7,2.7,0,0,1,2.28,1.012,4.464,4.464,0,0,1,.78,2.783C388.2,45.84,388.19,46.05,388.171,46.251Zm-.825-.9a3.424,3.424,0,0,0-.547-2.063,1.894,1.894,0,0,0-1.628-.743,1.92,1.92,0,0,0-1.575.75,3.867,3.867,0,0,0-.66,2.281h4.41Zm-1.035-7.245.39.779-2.925,1.276-.285-.511Z"/><path d="M399.376,39.246l-.315.63a4.374,4.374,0,0,0-1.861-.451,1.64,1.64,0,0,0-1.109.308,1.314,1.314,0,0,0-.346,1.027v1.23h4.381v7.846h-.87V42.7h-3.511v7.141h-.869V42.7h-1.29v-.7h1.29V40.715a1.9,1.9,0,0,1,.592-1.492,2.465,2.465,0,0,1,1.7-.532A4.6,4.6,0,0,1,399.376,39.246Z"/><rect class="cls-5" x="402.711" y="383.326" width="12" height="12" rx="2"/><rect class="cls-5" x="402.711" y="369.326" width="12" height="12" rx="2"/><rect class="cls-5" x="388.711" y="383.326" width="12" height="12" rx="2"/><rect class="cls-5" x="388.711" y="369.326" width="12" height="12" rx="2"/><rect class="cls-5" x="374.711" y="383.326" width="12" height="12" rx="2"/><rect class="cls-5" x="374.711" y="369.326" width="12" height="12" rx="2"/><rect class="cls-5" x="360.711" y="383.326" width="12" height="12" rx="2"/><rect class="cls-5" x="360.711" y="369.326" width="12" height="12" rx="2"/><rect class="cls-5" x="342.711" y="383.326" width="12" height="12" rx="2"/><rect class="cls-5" x="342.711" y="369.326" width="12" height="12" rx="2"/><rect class="cls-5" x="328.711" y="383.326" width="12" height="12" rx="2"/><rect class="cls-5" x="328.711" y="369.326" width="12" height="12" rx="2"/><rect class="cls-5" x="314.711" y="383.326" width="12" height="12" rx="2"/><rect class="cls-5" x="314.711" y="369.326" width="12" height="12" rx="2"/><rect class="cls-5" x="300.711" y="383.326" width="12" height="12" rx="2"/><rect class="cls-5" x="300.711" y="369.326" width="12" height="12" rx="2"/><rect class="cls-5" x="286.711" y="383.326" width="12" height="12" rx="2"/><rect class="cls-5" x="286.711" y="369.326" width="12" height="12" rx="2"/><rect class="cls-5" x="268.711" y="383.326" width="12" height="12" rx="2"/><rect class="cls-5" x="268.711" y="369.326" width="12" height="12" rx="2"/><rect class="cls-5" x="254.711" y="383.326" width="12" height="12" rx="2"/><rect class="cls-5" x="254.711" y="369.326" width="12" height="12" rx="2"/><rect class="cls-5" x="240.711" y="383.326" width="12" height="12" rx="2"/><rect class="cls-5" x="240.711" y="369.326" width="12" height="12" rx="2"/><rect class="cls-2" x="226.711" y="383.326" width="12" height="12" rx="2"/><rect class="cls-2" x="226.711" y="369.326" width="12" height="12" rx="2"/><rect class="cls-2" x="212.711" y="383.326" width="12" height="12" rx="2"/><rect class="cls-2" x="212.711" y="369.326" width="12" height="12" rx="2"/><rect class="cls-5" x="402.711" y="322.936" width="12" height="12" rx="2"/><rect class="cls-5" x="402.711" y="308.936" width="12" height="12" rx="2"/><rect class="cls-5" x="388.711" y="322.936" width="12" height="12" rx="2"/><rect class="cls-5" x="388.711" y="308.936" width="12" height="12" rx="2"/><rect class="cls-5" x="374.711" y="322.936" width="12" height="12" rx="2"/><rect class="cls-5" x="374.711" y="308.936" width="12" height="12" rx="2"/><rect class="cls-5" x="360.711" y="322.936" width="12" height="12" rx="2"/><rect class="cls-5" x="360.711" y="308.936" width="12" height="12" rx="2"/><rect class="cls-5" x="342.711" y="322.936" width="12" height="12" rx="2"/><rect class="cls-5" x="342.711" y="308.936" width="12" height="12" rx="2"/><rect class="cls-5" x="328.711" y="322.936" width="12" height="12" rx="2"/><rect class="cls-5" x="328.711" y="308.936" width="12" height="12" rx="2"/><rect class="cls-5" x="314.711" y="322.936" width="12" height="12" rx="2"/><rect class="cls-5" x="314.711" y="308.936" width="12" height="12" rx="2"/><rect class="cls-5" x="300.711" y="322.936" width="12" height="12" rx="2"/><rect class="cls-5" x="300.711" y="308.936" width="12" height="12" rx="2"/><rect class="cls-5" x="286.711" y="322.936" width="12" height="12" rx="2"/><rect class="cls-5" x="286.711" y="308.936" width="12" height="12" rx="2"/><rect class="cls-5" x="268.711" y="322.936" width="12" height="12" rx="2"/><rect class="cls-5" x="268.711" y="308.936" width="12" height="12" rx="2"/><rect class="cls-5" x="254.711" y="322.936" width="12" height="12" rx="2"/><rect class="cls-5" x="254.711" y="308.936" width="12" height="12" rx="2"/><rect class="cls-5" x="240.711" y="322.936" width="12" height="12" rx="2"/><rect class="cls-5" x="240.711" y="308.936" width="12" height="12" rx="2"/><rect class="cls-2" x="226.711" y="322.936" width="12" height="12" rx="2"/><rect class="cls-2" x="226.711" y="308.936" width="12" height="12" rx="2"/><rect class="cls-2" x="212.711" y="322.936" width="12" height="12" rx="2"/><rect class="cls-2" x="212.711" y="308.936" width="12" height="12" rx="2"/><rect class="cls-2" x="226.711" y="444.806" width="12" height="12" rx="2"/><rect class="cls-5" x="402.711" y="444.806" width="12" height="12" rx="2"/><rect class="cls-5" x="402.711" y="430.806" width="12" height="12" rx="2"/><rect class="cls-5" x="388.711" y="444.806" width="12" height="12" rx="2"/><rect class="cls-5" x="388.711" y="430.806" width="12" height="12" rx="2"/><rect class="cls-5" x="374.711" y="444.806" width="12" height="12" rx="2"/><rect class="cls-5" x="374.711" y="430.806" width="12" height="12" rx="2"/><rect class="cls-5" x="360.711" y="444.806" width="12" height="12" rx="2"/><rect class="cls-5" x="360.711" y="430.806" width="12" height="12" rx="2"/><rect class="cls-5" x="342.711" y="444.806" width="12" height="12" rx="2"/><rect class="cls-5" x="342.711" y="430.806" width="12" height="12" rx="2"/><rect class="cls-5" x="328.711" y="444.806" width="12" height="12" rx="2"/><rect class="cls-5" x="328.711" y="430.806" width="12" height="12" rx="2"/><rect class="cls-5" x="314.711" y="444.806" width="12" height="12" rx="2"/><rect class="cls-5" x="314.711" y="430.806" width="12" height="12" rx="2"/><rect class="cls-5" x="300.711" y="444.806" width="12" height="12" rx="2"/><rect class="cls-5" x="300.711" y="430.806" width="12" height="12" rx="2"/><rect class="cls-5" x="286.711" y="444.806" width="12" height="12" rx="2"/><rect class="cls-5" x="286.711" y="430.806" width="12" height="12" rx="2"/><rect class="cls-5" x="268.711" y="444.806" width="12" height="12" rx="2"/><rect class="cls-5" x="268.711" y="430.806" width="12" height="12" rx="2"/><rect class="cls-5" x="254.711" y="444.806" width="12" height="12" rx="2"/><rect class="cls-5" x="254.711" y="430.806" width="12" height="12" rx="2"/><rect class="cls-5" x="240.711" y="444.806" width="12" height="12" rx="2"/><rect class="cls-5" x="240.711" y="430.806" width="12" height="12" rx="2"/><rect class="cls-5" x="226.711" y="430.806" width="12" height="12" rx="2"/><rect class="cls-2" x="212.711" y="444.806" width="12" height="12" rx="2"/><rect class="cls-2" x="212.711" y="430.806" width="12" height="12" rx="2"/><rect class="cls-5" x="342.711" y="204.851" width="12" height="12" rx="2"/><rect class="cls-5" x="328.711" y="204.851" width="12" height="12" rx="2"/><rect class="cls-5" x="328.711" y="190.851" width="12" height="12" rx="2"/><rect class="cls-5" x="314.711" y="204.851" width="12" height="12" rx="2"/><rect class="cls-5" x="314.711" y="190.851" width="12" height="12" rx="2"/><rect class="cls-5" x="300.711" y="204.851" width="12" height="12" rx="2"/><rect class="cls-5" x="300.711" y="190.851" width="12" height="12" rx="2"/><rect class="cls-5" x="286.711" y="204.851" width="12" height="12" rx="2"/><rect class="cls-5" x="286.711" y="190.851" width="12" height="12" rx="2"/><rect class="cls-5" x="268.711" y="204.851" width="12" height="12" rx="2"/><rect class="cls-5" x="268.711" y="190.851" width="12" height="12" rx="2"/><rect class="cls-2" x="254.711" y="204.851" width="12" height="12" rx="2"/><rect class="cls-2" x="254.711" y="190.851" width="12" height="12" rx="2"/><rect class="cls-2" x="240.711" y="204.851" width="12" height="12" rx="2"/><rect class="cls-2" x="240.711" y="190.851" width="12" height="12" rx="2"/><rect class="cls-2" x="226.711" y="204.851" width="12" height="12" rx="2"/><rect class="cls-2" x="226.711" y="190.851" width="12" height="12" rx="2"/><rect class="cls-2" x="212.711" y="204.851" width="12" height="12" rx="2"/><rect class="cls-2" x="212.711" y="190.851" width="12" height="12" rx="2"/><rect class="cls-5" x="300.711" y="150.744" width="12" height="12" rx="2"/><rect class="cls-5" x="300.711" y="136.744" width="12" height="12" rx="2"/><rect class="cls-2" x="286.711" y="150.744" width="12" height="12" rx="2"/><rect class="cls-5" x="286.711" y="136.744" width="12" height="12" rx="2"/><rect class="cls-2" x="268.711" y="150.744" width="12" height="12" rx="2"/><rect class="cls-2" x="268.711" y="136.744" width="12" height="12" rx="2"/><rect class="cls-2" x="254.711" y="150.744" width="12" height="12" rx="2"/><rect class="cls-2" x="254.711" y="136.744" width="12" height="12" rx="2"/><rect class="cls-2" x="240.711" y="150.744" width="12" height="12" rx="2"/><rect class="cls-2" x="240.711" y="136.744" width="12" height="12" rx="2"/><rect class="cls-2" x="226.711" y="150.744" width="12" height="12" rx="2"/><rect class="cls-2" x="226.711" y="136.744" width="12" height="12" rx="2"/><rect class="cls-2" x="212.711" y="150.744" width="12" height="12" rx="2"/><rect class="cls-2" x="212.711" y="136.744" width="12" height="12" rx="2"/><rect class="cls-5" x="286.711" y="509.849" width="12" height="12" rx="2"/><rect class="cls-5" x="268.711" y="509.849" width="12" height="12" rx="2"/><rect class="cls-5" x="268.711" y="495.849" width="12" height="12" rx="2"/><rect class="cls-5" x="254.711" y="509.849" width="12" height="12" rx="2"/><rect class="cls-5" x="254.711" y="495.849" width="12" height="12" rx="2"/><rect class="cls-5" x="240.711" y="509.849" width="12" height="12" rx="2"/><rect class="cls-5" x="240.711" y="495.849" width="12" height="12" rx="2"/><rect class="cls-5" x="226.711" y="509.849" width="12" height="12" rx="2"/><rect class="cls-5" x="226.711" y="495.849" width="12" height="12" rx="2"/><rect class="cls-2" x="212.711" y="509.849" width="12" height="12" rx="2"/><rect class="cls-2" x="212.711" y="495.849" width="12" height="12" rx="2"/><rect class="cls-5" x="268.711" y="263.992" width="12" height="12" rx="2"/><rect class="cls-5" x="268.711" y="249.992" width="12" height="12" rx="2"/><rect class="cls-5" x="254.711" y="263.992" width="12" height="12" rx="2"/><rect class="cls-5" x="254.711" y="249.992" width="12" height="12" rx="2"/><rect class="cls-5" x="240.711" y="263.992" width="12" height="12" rx="2"/><rect class="cls-5" x="240.711" y="249.992" width="12" height="12" rx="2"/><rect class="cls-2" x="226.711" y="263.992" width="12" height="12" rx="2"/><rect class="cls-2" x="226.711" y="249.992" width="12" height="12" rx="2"/><rect class="cls-2" x="212.711" y="263.992" width="12" height="12" rx="2"/><rect class="cls-2" x="212.711" y="249.992" width="12" height="12" rx="2"/><path class="cls-6" d="M177.751,593.119v.962l-4.03,6.955h4.016l-.13,1.027H172.4V601.1l4.055-6.981H172.8v-1Z"/><path class="cls-6" d="M183.835,592.456v9.607H182.8l-.078-.9a2.018,2.018,0,0,1-1.781,1.066,1.956,1.956,0,0,1-1.736-.949,4.756,4.756,0,0,1-.617-2.613,5.433,5.433,0,0,1,.305-1.9,2.867,2.867,0,0,1,.865-1.268,2.042,2.042,0,0,1,2.912.371v-3.549Zm-1.814,8.593a2.6,2.6,0,0,0,.644-.767V596.85a1.659,1.659,0,0,0-1.365-.871,1.229,1.229,0,0,0-1.092.663,3.854,3.854,0,0,0-.391,2,4.259,4.259,0,0,0,.365,2.015,1.129,1.129,0,0,0,1.027.65A1.306,1.306,0,0,0,182.021,601.049Z"/><path class="cls-6" d="M189.333,595.147l-.194,1.131a1.768,1.768,0,0,0-.534-.078,1.128,1.128,0,0,0-.929.455,3.523,3.523,0,0,0-.566,1.391v4.017h-1.17v-6.838h1.014l.092,1.352q.507-1.507,1.7-1.508A1.945,1.945,0,0,1,189.333,595.147Z"/><path class="cls-6" d="M194.533,595.979a5.118,5.118,0,0,1-.012,5.285,2.66,2.66,0,0,1-4.089.019,5.1,5.1,0,0,1,.006-5.284,2.713,2.713,0,0,1,4.095-.02Zm-3.211.656a3.9,3.9,0,0,0-.4,2.009q0,2.666,1.56,2.665t1.56-2.678a3.956,3.956,0,0,0-.39-2,1.271,1.271,0,0,0-1.157-.637A1.3,1.3,0,0,0,191.322,596.635Z"/><path class="cls-6" d="M198.121,601.79a3.788,3.788,0,0,1-.227,1.423,2.226,2.226,0,0,1-.65.9,5.629,5.629,0,0,1-1.138.683l-.364-.845a3.06,3.06,0,0,0,.7-.468,1.5,1.5,0,0,0,.377-.624,3.373,3.373,0,0,0,.13-1.04v-6.591h1.17Zm-.032-9.568a.758.758,0,0,1,.214.546.783.783,0,0,1-1.32.54.735.735,0,0,1-.213-.54.757.757,0,0,1,.213-.546.8.8,0,0,1,1.106,0Z"/><path class="cls-6" d="M208.145,592.456v9.607H207.1l-.078-.9a2.017,2.017,0,0,1-1.781,1.066,1.956,1.956,0,0,1-1.735-.949,4.756,4.756,0,0,1-.617-2.613,5.434,5.434,0,0,1,.3-1.9,2.867,2.867,0,0,1,.865-1.268,2.044,2.044,0,0,1,2.913.371v-3.549Zm-1.814,8.593a2.613,2.613,0,0,0,.644-.767V596.85a1.659,1.659,0,0,0-1.366-.871,1.226,1.226,0,0,0-1.091.663,3.844,3.844,0,0,0-.391,2,4.273,4.273,0,0,0,.364,2.015,1.129,1.129,0,0,0,1.028.65A1.308,1.308,0,0,0,206.331,601.049Z"/><path class="cls-6" d="M214.631,601.121a.73.73,0,0,0,.364.305l-.247.793a1.624,1.624,0,0,1-.793-.312,1.283,1.283,0,0,1-.4-.715,2.09,2.09,0,0,1-1.859,1.04,1.887,1.887,0,0,1-1.443-.565,2.12,2.12,0,0,1-.533-1.515,2,2,0,0,1,.715-1.664,3.2,3.2,0,0,1,2.041-.572h.884v-.585a1.5,1.5,0,0,0-.293-1.034,1.249,1.249,0,0,0-.955-.318,4.758,4.758,0,0,0-1.664.364l-.286-.819a5.657,5.657,0,0,1,2.132-.468,1.965,1.965,0,0,1,2.223,2.223V600.5A1.271,1.271,0,0,0,214.631,601.121Zm-1.274-.839V598.67H212.6q-1.689,0-1.69,1.417a1.416,1.416,0,0,0,.273.936.961.961,0,0,0,.78.325A1.517,1.517,0,0,0,213.357,600.282Z"/><path class="cls-6" d="M219.857,601.764a2.414,2.414,0,0,1-1.443.468,1.666,1.666,0,0,1-1.28-.481,1.905,1.905,0,0,1-.448-1.352v-4.29h-.976v-.884h.976v-1.573l1.169-.143v1.716h1.508l-.13.884h-1.378v4.277c0,.59.248.884.741.884a1.237,1.237,0,0,0,.41-.065,2.664,2.664,0,0,0,.422-.2Z"/><path class="cls-6" d="M221.826,595.985a.814.814,0,0,1,.228.579.833.833,0,0,1-.228.585.763.763,0,0,1-.591.247.752.752,0,0,1-.579-.247.837.837,0,0,1-.227-.585.817.817,0,0,1,.227-.579.764.764,0,0,1,.579-.24A.775.775,0,0,1,221.826,595.985Zm0,4.836a.814.814,0,0,1,.228.579.833.833,0,0,1-.228.585.767.767,0,0,1-.591.247.756.756,0,0,1-.579-.247.837.837,0,0,1-.227-.585.817.817,0,0,1,.227-.579.764.764,0,0,1,.579-.24A.775.775,0,0,1,221.826,600.821Z"/><path class="cls-6" d="M231.153,595.979a5.118,5.118,0,0,1-.012,5.285,2.66,2.66,0,0,1-4.089.019,5.1,5.1,0,0,1,.007-5.284,2.712,2.712,0,0,1,4.094-.02Zm-3.211.656a3.9,3.9,0,0,0-.4,2.009q0,2.666,1.561,2.665t1.559-2.678a3.957,3.957,0,0,0-.389-2,1.273,1.273,0,0,0-1.158-.637A1.3,1.3,0,0,0,227.942,596.635Z"/><path class="cls-6" d="M238.434,592.456v9.607h-1.04l-.079-.9a2.015,2.015,0,0,1-1.781,1.066,1.957,1.957,0,0,1-1.735-.949,4.765,4.765,0,0,1-.617-2.613,5.41,5.41,0,0,1,.305-1.9,2.859,2.859,0,0,1,.865-1.268,2.042,2.042,0,0,1,2.912.371v-3.549Zm-1.814,8.593a2.6,2.6,0,0,0,.644-.767V596.85a1.657,1.657,0,0,0-1.366-.871,1.227,1.227,0,0,0-1.091.663,3.855,3.855,0,0,0-.39,2,4.287,4.287,0,0,0,.363,2.015,1.13,1.13,0,0,0,1.028.65A1.306,1.306,0,0,0,236.62,601.049Z"/><path class="cls-6" d="M245.174,595.979a5.082,5.082,0,0,1,.565,2.639,4.806,4.806,0,0,1-.631,2.639,1.984,1.984,0,0,1-1.76.975,1.963,1.963,0,0,1-1.639-.819v3.25l-1.17.143v-9.581h1.027l.065.923a2.129,2.129,0,0,1,1.859-1.092A1.851,1.851,0,0,1,245.174,595.979Zm-.656,2.652a4.59,4.59,0,0,0-.332-2.022,1.076,1.076,0,0,0-1.007-.63,1.278,1.278,0,0,0-.807.273,3.138,3.138,0,0,0-.663.741v3.458a1.575,1.575,0,0,0,1.365.845Q244.517,601.3,244.518,598.631Z"/><path class="cls-6" d="M251.875,595.979a5.115,5.115,0,0,1-.013,5.285,2.66,2.66,0,0,1-4.089.019A5.1,5.1,0,0,1,247.78,596a2.713,2.713,0,0,1,4.095-.02Zm-3.211.656a3.9,3.9,0,0,0-.4,2.009q0,2.666,1.559,2.665t1.56-2.678a3.956,3.956,0,0,0-.39-2,1.272,1.272,0,0,0-1.157-.637A1.3,1.3,0,0,0,248.664,596.635Z"/><path class="cls-6" d="M258.856,595.225l-2.041,6.838h-1.4l-2.1-6.838h1.221l1.586,5.85,1.574-5.85Z"/><path class="cls-6" d="M264.745,599.047h-3.978a2.952,2.952,0,0,0,.481,1.723,1.428,1.428,0,0,0,1.17.526,2.307,2.307,0,0,0,.839-.143,2.948,2.948,0,0,0,.773-.468l.52.689a3.192,3.192,0,0,1-2.184.858,2.492,2.492,0,0,1-2.074-.93,4.11,4.11,0,0,1-.734-2.606,4.485,4.485,0,0,1,.7-2.658,2.262,2.262,0,0,1,1.95-.982,2.234,2.234,0,0,1,1.9.878,4.079,4.079,0,0,1,.664,2.5Q264.771,598.709,264.745,599.047Zm-1.04-7.163.455.52-1.573,1.508h-.728l-1.573-1.508.455-.52,1.482,1.144Zm-.065,6.2q0-2.145-1.417-2.145a1.187,1.187,0,0,0-1.027.54,3.379,3.379,0,0,0-.429,1.748h2.873Z"/><path class="cls-6" d="M271.258,592.456v9.607h-1.04l-.078-.9a2.017,2.017,0,0,1-1.782,1.066,1.957,1.957,0,0,1-1.735-.949,4.765,4.765,0,0,1-.617-2.613,5.386,5.386,0,0,1,.306-1.9,2.858,2.858,0,0,1,.864-1.268,2.042,2.042,0,0,1,2.912.371v-3.549Zm-1.814,8.593a2.583,2.583,0,0,0,.644-.767V596.85a1.657,1.657,0,0,0-1.365-.871,1.229,1.229,0,0,0-1.092.663,3.855,3.855,0,0,0-.39,2,4.287,4.287,0,0,0,.363,2.015,1.131,1.131,0,0,0,1.028.65A1.306,1.306,0,0,0,269.444,601.049Z"/><path class="cls-6" d="M274.5,592.222a.775.775,0,0,1-1.1,1.086.732.732,0,0,1-.214-.54.754.754,0,0,1,.214-.546.8.8,0,0,1,1.1,0Zm.032,3v6.838h-1.17v-6.838Z"/><path class="cls-6" d="M287.17,602.063h-1.157l-.274-4.043q-.181-2.716-.194-3.744l-1.717,6.773H282.7l-1.794-6.773q.013,1.131-.142,3.77l-.26,4.017h-1.145l.69-8.944h1.572l1.664,6.617,1.6-6.617h1.6Z"/><path class="cls-6" d="M292.3,593.21a3.671,3.671,0,0,1,1.111.78l-.61.689a3.358,3.358,0,0,0-.878-.578,2.342,2.342,0,0,0-.942-.189,1.5,1.5,0,0,0-1.047.358,1.208,1.208,0,0,0-.4.942,1.361,1.361,0,0,0,.156.669,1.443,1.443,0,0,0,.534.508,5.678,5.678,0,0,0,1.065.461,6.605,6.605,0,0,1,1.3.611,2.239,2.239,0,0,1,.779.832,2.964,2.964,0,0,1-.078,2.646,2.451,2.451,0,0,1-1.007.949,3.277,3.277,0,0,1-1.541.344,3.727,3.727,0,0,1-2.768-1.17l.636-.689a3.907,3.907,0,0,0,.982.656,2.65,2.65,0,0,0,1.111.228,1.715,1.715,0,0,0,1.229-.436,1.575,1.575,0,0,0,.462-1.2,1.471,1.471,0,0,0-.371-1.053,3.473,3.473,0,0,0-1.359-.728,4.568,4.568,0,0,1-1.813-1.027,2.122,2.122,0,0,1-.552-1.521,2.227,2.227,0,0,1,1.261-2.041,2.982,2.982,0,0,1,1.351-.3A3.426,3.426,0,0,1,292.3,593.21Z"/><path class="cls-6" d="M296.452,593.119v8.944h-1.209v-8.944Zm4.394,0-3.03,4.082,3.238,4.862h-1.391l-3.159-4.784,3.055-4.16Z"/><path class="cls-6" d="M302.938,600.815a.8.8,0,0,1,.221.572,1.308,1.308,0,0,1-.057.377q-.06.2-.189.559l-.716,1.833h-.727l.48-2.067a.781.781,0,0,1-.377-.689.8.8,0,0,1,.228-.585.774.774,0,0,1,.579-.234A.735.735,0,0,1,302.938,600.815Z"/><path class="cls-6" d="M313.468,599.437a2.624,2.624,0,0,1-2.86,2.795,2.775,2.775,0,0,1-2.119-.773,2.833,2.833,0,0,1-.728-2.022v-6.318h1.209v6.24q0,1.885,1.638,1.885t1.638-1.885v-6.24h1.222Zm-1.937-9.178.494.949-2.522,1.027-.312-.611Z"/><path class="cls-6" d="M316.745,593.119v8.944h-1.209v-8.944Zm4.394,0-3.03,4.082,3.238,4.862h-1.391l-3.159-4.784,3.055-4.16Z"/><path class="cls-6" d="M323.231,600.815a.8.8,0,0,1,.221.572,1.308,1.308,0,0,1-.057.377q-.06.2-.189.559l-.716,1.833h-.727l.48-2.067a.781.781,0,0,1-.377-.689.8.8,0,0,1,.228-.585.772.772,0,0,1,.579-.234A.735.735,0,0,1,323.231,600.815Z"/><path class="cls-6" d="M329.394,593.119v8.944h-1.209v-8.944Zm4.393,0-3.029,4.082L334,602.063H332.6l-3.159-4.784,3.055-4.16Z"/><path class="cls-6" d="M340.469,593.119,338,602.063h-1.443l-2.509-8.944H335.3l2,7.774,1.976-7.774Z"/><path class="cls-6" d="M342.887,593.119v8.944h-1.209v-8.944Zm4.393,0-3.029,4.082,3.237,4.862H346.1l-3.16-4.784,3.055-4.16Z"/><path class="cls-6" d="M356.42,591.572v11.817h-1.093V591.572Z"/><path class="cls-6" d="M370.8,593.119l-2.47,8.944h-1.443l-2.509-8.944h1.248l2,7.774,1.977-7.774Z"/><path class="cls-6" d="M373.091,592.222a.8.8,0,0,1,.007,1.086.829.829,0,0,1-1.112,0,.733.733,0,0,1-.215-.54.754.754,0,0,1,.215-.546.8.8,0,0,1,1.105,0Zm.032,3v6.838h-1.17v-6.838Z"/><path class="cls-6" d="M378.961,595.225v.871l-3.237,5h3.25l-.118.962h-4.419v-.871l3.237-5H374.71v-.962Z"/><path class="cls-6" d="M384.954,602.063H383.94l-.065-1.027a2.155,2.155,0,0,1-1.911,1.2,1.622,1.622,0,0,1-1.287-.533,2.109,2.109,0,0,1-.468-1.443v-5.031h1.17v4.927a1.383,1.383,0,0,0,.227.877.827.827,0,0,0,.683.28q.87,0,1.5-1.144v-4.94h1.17Z"/><path class="cls-6" d="M391.44,601.121a.737.737,0,0,0,.365.305l-.247.793a1.62,1.62,0,0,1-.793-.312,1.271,1.271,0,0,1-.4-.715,2.09,2.09,0,0,1-1.859,1.04,1.887,1.887,0,0,1-1.443-.565,2.116,2.116,0,0,1-.534-1.515,2.006,2.006,0,0,1,.716-1.664,3.2,3.2,0,0,1,2.041-.572h.884v-.585a1.506,1.506,0,0,0-.293-1.034,1.249,1.249,0,0,0-.955-.318,4.763,4.763,0,0,0-1.664.364l-.286-.819a5.653,5.653,0,0,1,2.132-.468,1.965,1.965,0,0,1,2.223,2.223V600.5A1.285,1.285,0,0,0,391.44,601.121Zm-1.273-.839V598.67h-.754q-1.691,0-1.69,1.417a1.411,1.411,0,0,0,.273.936.96.96,0,0,0,.779.325A1.516,1.516,0,0,0,390.167,600.282Z"/><path class="cls-6" d="M393.6,601.855a1.451,1.451,0,0,1-.364-1.053v-8.346l1.17-.13v8.437q0,.507.416.507a1.081,1.081,0,0,0,.377-.078l.26.819a1.833,1.833,0,0,1-.871.221A1.307,1.307,0,0,1,393.6,601.855Z"/><path class="cls-6" d="M397.869,592.222a.754.754,0,0,1-.553,1.3.743.743,0,0,1-.551-.214.729.729,0,0,1-.215-.54.75.75,0,0,1,.215-.546.8.8,0,0,1,1.1,0Zm.032,3v6.838h-1.17v-6.838Z"/><path class="cls-6" d="M403.738,595.225v.871l-3.237,5h3.25l-.117.962h-4.42v-.871l3.237-5h-2.964v-.962Z"/></svg>